<?xml version="1.0" encoding="UTF-8"?>
<svg width="22px" height="22px" viewBox="0 0 22 22" version="1.1" xmlns="http://www.w3.org/2000/svg" xmlns:xlink="http://www.w3.org/1999/xlink">
    <!-- Generator: Sketch 41.2 (35397) - http://www.bohemiancoding.com/sketch -->
    <title>all</title>
    <desc>Created with Sketch.</desc>
    <defs></defs>
    <g id="Desktop" stroke="none" stroke-width="1" fill="none" fill-rule="evenodd">
        <g id="5.1---Messaging---Inbox" transform="translate(-30.000000, -349.000000)" fill="#0B61FF">
            <g id="Menu" transform="translate(0.000000, 60.000000)">
                <g id="Active-(Hover)" transform="translate(0.000000, 280.000000)">
                    <path d="M30.000043,19.3125 L40.3125,19.3125 L40.3125,9 L30.000043,9 L30.000043,19.3125 L30.000043,19.3125 Z M30.687457,9.6875 L39.625,9.6875 L39.625,18.625 L30.687457,18.625 L30.687457,9.6875 Z M41.687543,9 L41.687543,19.3125 L52,19.3125 L52,9 L41.687543,9 Z M51.312543,18.625 L42.375,18.625 L42.375,9.6875 L51.312543,9.6875 L51.312543,18.625 Z M30.000043,31 L40.3125,31 L40.3125,20.6875 L30.000043,20.6875 L30.000043,31 Z M30.687457,21.375 L39.625,21.375 L39.625,30.3125 L30.687457,30.3125 L30.687457,21.375 Z M41.687543,31 L52,31 L52,20.6875 L41.687543,20.6875 L41.687543,31 Z M42.375,21.375 L51.312543,21.375 L51.312543,30.3125 L42.375,30.3125 L42.375,21.375 L42.375,21.375 Z" id="all"></path>
                </g>
            </g>
        </g>
    </g>
</svg>