<?xml version="1.0" encoding="UTF-8"?>
<svg width="22px" height="21px" viewBox="0 0 22 21" version="1.1" xmlns="http://www.w3.org/2000/svg" xmlns:xlink="http://www.w3.org/1999/xlink">
    <!-- Generator: Sketch 41.2 (35397) - http://www.bohemiancoding.com/sketch -->
    <title>allcontacts</title>
    <desc>Created with Sketch.</desc>
    <defs></defs>
    <g id="Desktop" stroke="none" stroke-width="1" fill="none" fill-rule="evenodd">
        <g id="6.1.-Contacts---All" transform="translate(-30.000000, -130.000000)" fill="#0B61FF">
            <g id="Conversations" transform="translate(0.000000, 60.000000)">
                <g id="Menu">
                    <g id="List-View-(Active)" transform="translate(30.000000, 70.000000)">
                        <path d="M20.1718,16.270875 L16.6690333,14.479875 C16.3386667,14.31075 16.1333333,13.971 16.1333333,13.593 L16.1333333,12.325125 C16.2173,12.220125 16.3056667,12.1005 16.3969667,11.9685 C16.8512667,11.31225 17.2153667,10.58175 17.4801,9.793875 C17.9974667,9.55125 18.3333333,9.028125 18.3333333,8.4375 L18.3333333,6.9375 C18.3333333,6.576375 18.2013333,6.2265 17.9666667,5.953125 L17.9666667,3.9585 C17.9872,3.75225 18.0678667,2.5245 17.1996,1.511625 C16.4464667,0.633 15.2243667,0.1875 13.5666667,0.1875 C11.9089667,0.1875 10.6868667,0.633 9.93373333,1.51125 C9.40756667,2.125125 9.23046667,2.816625 9.17693333,3.313125 C8.54846667,2.980875 7.8078,2.8125 6.96666667,2.8125 C3.15736667,2.8125 2.93553333,6.133125 2.93333333,6.1875 L2.93333333,7.904625 C2.69573333,8.169375 2.56666667,8.475 2.56666667,8.778375 L2.56666667,10.073625 C2.56666667,10.47825 2.74376667,10.8555 3.04736667,11.1105 C3.34986667,12.27675 4.09383333,13.158 4.3835,13.467375 L4.3835,14.496 C4.3835,14.791125 4.22656667,15.061875 3.95413333,15.214125 L1.5147,16.779 C0.580433333,17.30025 0,18.300375 0,19.388625 L0,20.8125 L5.13333333,20.8125 L5.86666667,20.8125 L22,20.8125 L22,19.296375 C22,18.007125 21.2993,16.847625 20.1718,16.270875 Z M5.13333333,19.22325 L5.13333333,20.0625 L0.733333333,20.0625 L0.733333333,19.388625 C0.733333333,18.574875 1.16746667,17.827125 1.88503333,17.42625 L4.3241,15.861375 C4.81286667,15.58875 5.11646667,15.066 5.11646667,14.496 L5.11646667,13.149375 L4.99986667,13.038 C4.99033333,13.029 4.0161,12.08775 3.72826667,10.804875 L3.6949,10.656375 L3.5695,10.573875 C3.40083333,10.462125 3.3,10.275 3.3,10.073625 L3.3,8.778375 C3.3,8.643375 3.38983333,8.482875 3.54603333,8.338125 L3.66666667,8.22675 L3.66593333,6.20925 C3.67253333,6.101625 3.86356667,3.5625 6.96666667,3.5625 C7.8441,3.5625 8.58293333,3.769875 9.16666667,4.179 L9.16666667,5.953125 C8.932,6.2265 8.8,6.576375 8.8,6.9375 L8.8,8.4375 C8.8,8.5515 8.81283333,8.663625 8.83703333,8.772375 C8.84693333,8.815875 8.86673333,8.855625 8.8803,8.897625 C8.90046667,8.960625 8.9166,9.0255 8.94483333,9.085125 C8.9452,9.085875 8.94556667,9.08625 8.94593333,9.087 C9.0398,9.285 9.17656667,9.462 9.3489,9.603375 C9.35073333,9.6105 9.35293333,9.616875 9.35476667,9.623625 C9.37676667,9.7095 9.39986667,9.795 9.4248,9.878625 L9.4545,9.9765 C9.45963333,9.99375 9.46586667,10.011375 9.47136667,10.028625 C9.4842,10.069125 9.49666667,10.10925 9.50986667,10.149 C9.53186667,10.214625 9.55496667,10.2825 9.58173333,10.356375 C9.5931,10.387125 9.60556667,10.414875 9.6173,10.44525 C9.64736667,10.523625 9.67743333,10.599375 9.70896667,10.674375 C9.71666667,10.692375 9.72326667,10.711875 9.73096667,10.7295 L9.7515,10.77675 C9.76103333,10.7985 9.77093333,10.818 9.78046667,10.839375 C9.8164,10.919625 9.8516,10.99725 9.88826667,11.07225 C9.89413333,11.08425 9.89963333,11.097375 9.9055,11.109375 C9.9286,11.15625 9.9517,11.2005 9.9748,11.2455 C10.0144,11.32275 10.0532667,11.3955 10.0921333,11.466 C10.1112,11.5005 10.1299,11.53425 10.1486,11.566875 C10.2014,11.659125 10.2516333,11.743875 10.3004,11.822625 C10.3110333,11.8395 10.3213,11.857125 10.3315667,11.87325 C10.4203,12.013875 10.4973,12.127875 10.5611,12.21675 C10.5779667,12.240375 10.5926333,12.260625 10.6069333,12.2805 C10.615,12.291375 10.626,12.307125 10.6329667,12.316875 L10.6329667,13.55775 C10.6329667,13.92075 10.4393667,14.25375 10.1280667,14.42775 L9.15786667,14.968875 L8.98883333,14.9535 L8.9199,15.101625 L6.85703333,16.2525 C5.7937,16.8465 5.13333333,17.98425 5.13333333,19.22325 Z M21.2666667,20.0625 L5.86666667,20.0625 L5.86666667,19.22325 C5.86666667,18.259125 6.38073333,17.373 7.2083,16.91175 L10.4793333,15.087 C11.0267667,14.781375 11.3666667,14.19525 11.3666667,13.558125 L11.3666667,12.051375 L11.3666667,12.051 L11.2955333,11.964 L11.2816,11.947125 C11.2808667,11.946 11.2581333,11.917875 11.2211,11.868375 C11.2189,11.865375 11.2167,11.862375 11.2141333,11.859375 C11.1947,11.8335 11.1719667,11.802375 11.1459333,11.76525 C11.1455667,11.7645 11.1452,11.764125 11.1448333,11.763375 C11.0902,11.68575 11.0216333,11.584875 10.9453667,11.463375 C10.9435333,11.46075 10.9420667,11.45775 10.9402333,11.455125 C10.9043,11.39775 10.8661667,11.335125 10.8273,11.26875 C10.8243667,11.263875 10.8214333,11.259 10.8185,11.25375 C10.7356333,11.111625 10.6476333,10.95075 10.56,10.772625 C10.56,10.772625 10.5596333,10.77225 10.5596333,10.771875 C10.5130667,10.67625 10.4665,10.57575 10.4210333,10.471125 L10.4210333,10.471125 C10.4148,10.4565 10.4082,10.44225 10.4019667,10.427625 L10.4019667,10.427625 C10.3818,10.38075 10.3616333,10.331625 10.3411,10.281 C10.3337667,10.262625 10.3264333,10.2435 10.3191,10.22475 C10.3000333,10.175625 10.2806,10.126125 10.2600667,10.0695 C10.2226667,9.9675 10.1874667,9.861 10.1537333,9.751125 L10.1335667,9.684375 C10.1313667,9.676875 10.1288,9.669375 10.1266,9.6615 C10.0921333,9.543 10.0591333,9.421875 10.0312667,9.297375 L9.9979,9.148875 L9.87286667,9.066375 C9.6602,8.926125 9.53333333,8.691 9.53333333,8.4375 L9.53333333,6.9375 C9.53333333,6.727125 9.6206,6.531 9.779,6.384375 L9.9,6.273 L9.9,3.9375 L9.9,3.80475 L9.8901,3.796875 C9.87763333,3.526125 9.8934,2.69625 10.4852,2.005875 C11.0927667,1.29675 12.1297,0.9375 13.5666667,0.9375 C14.9985,0.9375 16.0332333,1.294125 16.6415333,1.998 C17.3554333,2.823375 17.2373667,3.879375 17.2366333,3.888375 L17.2333333,6.273 L17.3543333,6.38475 C17.5127333,6.531 17.6,6.727125 17.6,6.9375 L17.6,8.4375 C17.6,8.764875 17.3902667,9.051375 17.0786,9.149625 L16.896,9.207 L16.8373333,9.392625 C16.5920333,10.173 16.2426,10.89375 15.7982,11.535 C15.6893,11.692875 15.5833333,11.83275 15.4913,11.939625 L15.4,12.046125 L15.4,13.593 C15.4,14.25675 15.7604333,14.853375 16.3408667,15.150375 L19.8436333,16.941375 C20.7214333,17.39025 21.2666667,18.2925 21.2666667,19.296375 L21.2666667,20.0625 Z" id="allcontacts"></path>
                    </g>
                </g>
            </g>
        </g>
    </g>
</svg>