<?xml version="1.0" encoding="UTF-8"?>
<svg width="22px" height="20px" viewBox="0 0 22 20" version="1.1" xmlns="http://www.w3.org/2000/svg" xmlns:xlink="http://www.w3.org/1999/xlink">
    <!-- Generator: Sketch 41.2 (35397) - http://www.bohemiancoding.com/sketch -->
    <title>announcements</title>
    <desc>Created with Sketch.</desc>
    <defs></defs>
    <g id="Desktop" stroke="none" stroke-width="1" fill="none" fill-rule="evenodd">
        <g id="7.1.-KoalaBot---FAQs" transform="translate(-30.000000, -170.000000)" fill="#76767B">
            <g id="Menu" transform="translate(0.000000, 60.000000)">
                <g id="Active-(Hover)" transform="translate(0.000000, 100.000000)">
                    <path d="M50.0701754,10 C49.0060702,10 48.1403509,10.8796078 48.1403509,11.9607843 L48.1403509,12.8501961 L33.0738246,17.7039216 C33.003193,16.9047059 32.3482105,16.2745098 31.5438596,16.2745098 C30.6924211,16.2745098 30,16.9780392 30,17.8431373 L30,22.1568627 C30,23.0219608 30.6924211,23.7254902 31.5438596,23.7254902 C32.3482105,23.7254902 33.003193,23.0952941 33.0738246,22.2960784 L34.3737544,22.714902 C34.1784561,22.8933333 34.0213684,23.1188235 33.9345263,23.3901961 C33.8079298,23.7878431 33.8415088,24.212549 34.0294737,24.5866667 C34.2170526,24.9607843 34.5362456,25.2376471 34.9272281,25.3658824 L40.4349474,27.1788235 C40.5904912,27.2301961 40.7506667,27.2552941 40.9096842,27.2552941 C41.1509123,27.2552941 41.3905965,27.1972549 41.6117544,27.0823529 C41.9799649,26.8917647 42.2524561,26.567451 42.3790526,26.1701961 C42.4697544,25.885098 42.4751579,25.5862745 42.4033684,25.3019608 L48.1403509,27.1498039 L48.1403509,28.0392157 C48.1403509,29.1203922 49.0060702,30 50.0701754,30 C51.1342807,30 52,29.1203922 52,28.0392157 L52,11.9607843 C52,10.8796078 51.1342807,10 50.0701754,10 Z M41.6453333,25.9278431 C41.5820351,26.1262745 41.4454035,26.2882353 41.2612982,26.3835294 C41.077193,26.4792157 40.868,26.4960784 40.6734737,26.432549 L35.1653684,24.6196078 C34.9704561,24.5552941 34.8110526,24.4168627 34.7172632,24.2294118 C34.6230877,24.0419608 34.6057193,23.8298039 34.6690175,23.6321569 C34.7747719,23.3003922 35.0785263,23.0894118 35.4042807,23.0894118 C35.4826316,23.0894118 35.5625263,23.1015686 35.6408772,23.127451 L41.1489825,24.9403922 C41.5538596,25.0737255 41.7765614,25.5164706 41.6453333,25.9278431 Z M32.3157895,22.1568627 C32.3157895,22.5894118 31.9695789,22.9411765 31.5438596,22.9411765 C31.1181404,22.9411765 30.7719298,22.5894118 30.7719298,22.1568627 L30.7719298,17.8431373 C30.7719298,17.4105882 31.1181404,17.0588235 31.5438596,17.0588235 C31.9695789,17.0588235 32.3157895,17.4105882 32.3157895,17.8431373 L32.3157895,17.9482353 L32.3157895,22.0521569 L32.3157895,22.1568627 Z M33.0877193,21.4776471 L33.0877193,18.5227451 L48.1403509,13.6733333 L48.1403509,26.327451 L33.0877193,21.4776471 Z M51.2280702,28.0392157 C51.2280702,28.6878431 50.7085614,29.2156863 50.0701754,29.2156863 C49.4317895,29.2156863 48.9122807,28.6878431 48.9122807,28.0392157 L48.9122807,27.3984314 L48.9122807,12.6015686 L48.9122807,11.9607843 C48.9122807,11.3121569 49.4317895,10.7843137 50.0701754,10.7843137 C50.7085614,10.7843137 51.2280702,11.3121569 51.2280702,11.9607843 L51.2280702,28.0392157 Z" id="announcements"></path>
                </g>
            </g>
        </g>
    </g>
</svg>