<?xml version="1.0" encoding="UTF-8"?>
<svg width="22px" height="20px" viewBox="0 0 22 20" version="1.1" xmlns="http://www.w3.org/2000/svg" xmlns:xlink="http://www.w3.org/1999/xlink">
    <!-- Generator: Sketch 41.2 (35397) - http://www.bohemiancoding.com/sketch -->
    <title>anonymous</title>
    <desc>Created with Sketch.</desc>
    <defs></defs>
    <g id="Desktop" stroke="none" stroke-width="1" fill="none" fill-rule="evenodd">
        <g id="6.1.-Contacts---All" transform="translate(-30.000000, -252.000000)" fill="#76767B">
            <g id="Conversations" transform="translate(0.000000, 60.000000)">
                <g id="Menu">
                    <g id="Active-(Hover)" transform="translate(0.000000, 180.000000)">
                        <g id="anonymous" transform="translate(30.000000, 12.000000)">
                            <path d="M21.6592102,0.597607656 C21.6306709,0.458277512 21.5243609,0.349425837 21.3883907,0.320191388 C21.3313588,0.307942584 19.9720297,0.0198564593 18.2055839,0.0189473684 C18.0120212,0.0189473684 17.855172,0.179473684 17.8550786,0.377607656 C17.8550786,0.378947368 17.8552654,0.380239234 17.8552654,0.381578947 C17.8572739,0.577894737 18.0130488,0.736507177 18.2052102,0.736602871 C19.4854607,0.737272727 20.56262,0.89937799 21.0153715,0.979186603 C21.2075796,2.13511962 21.8926157,7.27052632 19.4172654,9.80617225 C18.4799066,10.7663636 17.2336136,11.2951675 15.9080085,11.2951675 C14.5823567,11.2951675 13.3360637,10.7663636 12.3987516,9.80617225 C11.5481783,8.93492823 10.4052527,8.93492823 9.55467941,9.80617225 C8.61732059,10.7663636 7.3710276,11.2951675 6.04542251,11.2951675 C4.71981741,11.2951675 3.47352442,10.7663636 2.53616561,9.80617225 C0.060955414,7.27076555 0.745757962,2.13578947 0.93796603,0.979473684 C2.06669214,0.781866029 7.07638641,0.0781339713 9.55467941,2.61674641 C10.4052527,3.48803828 11.5481783,3.48803828 12.3987516,2.61674641 C13.3840807,1.60741627 14.8739618,0.996985646 16.8269639,0.802440191 C17.0180042,0.783397129 17.1579915,0.610526316 17.1419236,0.415167464 C17.1417834,0.413636364 17.1418769,0.412105263 17.14169,0.410526316 C17.1229597,0.213253589 16.9515839,0.0689473684 16.7590955,0.0880861244 C14.6402293,0.299186603 13.0064841,0.979186603 11.9033079,2.10923445 C11.3317749,2.694689 10.6216561,2.694689 10.0500764,2.10923445 C8.77659873,0.804784689 6.72574098,0.0833492823 4.11923142,0.023062201 C2.17926115,-0.0218181818 0.630012739,0.306220096 0.564993631,0.320191388 C0.428976645,0.349473684 0.322713376,0.458325359 0.294174098,0.597607656 C0.280535032,0.664210526 -0.0397027601,2.25119617 0.0041104034,4.23837321 C0.0522208068,6.42133971 0.532016985,8.22349282 1.40132059,9.52138756 L1.40132059,18.9046411 C1.40132059,19.4982775 1.87275584,19.9811962 2.45227601,19.9811962 C3.03179618,19.9811962 3.50323142,19.4982775 3.50323142,18.9046411 L3.50323142,11.3988995 C4.28229299,11.8004785 5.14790658,12.0129187 6.0453758,12.0129187 C7.55814437,12.0129187 8.98039066,11.4094737 10.0500764,10.3136842 C10.6216561,9.72827751 11.3317282,9.72822967 11.9033079,10.3136842 C12.9729936,11.4094258 14.3952399,12.0129187 15.9080085,12.0129187 C17.4207771,12.0129187 18.8429766,11.4094737 19.9126624,10.3136842 C21.1861868,9.00913876 21.8904204,6.90837321 21.9492739,4.23832536 C21.993087,2.25119617 21.672896,0.664210526 21.6592102,0.597607656 Z M2.45227601,19.2635407 C2.25908705,19.2635407 2.10195754,19.1025359 2.10195754,18.904689 L2.10195754,10.3749761 C2.32195754,10.5937799 2.5561104,10.7923923 2.80259448,10.9694737 L2.80259448,18.904689 C2.80259448,19.1025359 2.64546497,19.2635407 2.45227601,19.2635407 Z" id="Shape"></path>
                            <path d="M13.3439575,5.97119617 C13.2236815,6.1077512 13.2236815,6.31535885 13.3439575,6.45191388 C14.0953673,7.30516746 15.1691168,7.79454545 16.2898556,7.79454545 C17.4105945,7.79454545 18.4842972,7.30516746 19.2357537,6.45191388 C19.3560297,6.31535885 19.3560297,6.1077512 19.2357537,5.97119617 C18.4843439,5.11794258 17.4105945,4.62851675 16.2898556,4.62851675 C15.1691168,4.62851675 14.0953673,5.11789474 13.3439575,5.97119617 Z M16.2898556,7.07684211 C15.4781444,7.07684211 14.6962335,6.76492823 14.0985902,6.2115311 C14.6961868,5.65813397 15.4780977,5.3462201 16.2898556,5.3462201 C17.1016136,5.3462201 17.8834777,5.65813397 18.481121,6.2115311 C17.8834777,6.76492823 17.1016136,7.07684211 16.2898556,7.07684211 Z" id="Shape"></path>
                            <path d="M5.66352866,4.62851675 C4.54278981,4.62851675 3.46904034,5.11789474 2.71763057,5.97119617 C2.59735456,6.1077512 2.59735456,6.31535885 2.71763057,6.45191388 C3.46904034,7.30516746 4.54278981,7.79454545 5.66352866,7.79454545 C6.78426752,7.79454545 7.85797028,7.30516746 8.60942675,6.45191388 C8.72970276,6.31535885 8.72970276,6.1077512 8.60942675,5.97119617 C7.85801699,5.11789474 6.78426752,4.62851675 5.66352866,4.62851675 Z M5.66352866,7.07684211 C4.85181741,7.07684211 4.06990658,6.76492823 3.47226327,6.2115311 C4.06985987,5.65813397 4.8517707,5.3462201 5.66352866,5.3462201 C6.47528662,5.3462201 7.25715074,5.65813397 7.85479406,6.2115311 C7.25715074,6.76492823 6.47528662,7.07684211 5.66352866,7.07684211 Z" id="Shape"></path>
                        </g>
                    </g>
                </g>
            </g>
        </g>
    </g>
</svg>