<?xml version="1.0" encoding="UTF-8"?>
<svg width="22px" height="22px" viewBox="0 0 22 22" version="1.1" xmlns="http://www.w3.org/2000/svg" xmlns:xlink="http://www.w3.org/1999/xlink">
    <!-- Generator: Sketch 41.2 (35397) - http://www.bohemiancoding.com/sketch -->
    <title>apps</title>
    <desc>Created with Sketch.</desc>
    <defs></defs>
    <g id="Desktop" stroke="none" stroke-width="1" fill="none" fill-rule="evenodd">
        <g id="8.1.1.-Apps---Chatbot-Integrations" transform="translate(-30.000000, -170.000000)" fill="#76767B">
            <g id="Top-Bar">
                <g id="Menu" transform="translate(0.000000, 60.000000)">
                    <g id="Active-(Hover)" transform="translate(0.000000, 100.000000)">
                        <g id="apps" transform="translate(30.000000, 10.000000)">
                            <path d="M2.93334766,1.83334766 C2.93334766,1.61334766 2.78669531,1.46669531 2.56669531,1.46669531 C1.94334766,1.46669531 1.46669531,1.94334766 1.46669531,2.56669531 C1.46669531,2.78669531 1.61334766,2.93334766 1.83334766,2.93334766 C2.05334766,2.93334766 2.2,2.78669531 2.2,2.56669531 C2.2,2.34669531 2.34665234,2.20004297 2.56665234,2.20004297 C2.78665234,2.20004297 2.93334766,2.05334766 2.93334766,1.83334766 Z" id="Shape"></path>
                            <path d="M13.2,2.93334766 C13.42,2.93334766 13.5666523,2.78669531 13.5666523,2.56669531 C13.5666523,2.34669531 13.7133047,2.20004297 13.9333047,2.20004297 C14.1533047,2.20004297 14.299957,2.05339062 14.299957,1.83339062 C14.299957,1.61339062 14.1533047,1.46673828 13.9333047,1.46673828 C13.309957,1.46673828 12.8333047,1.94339062 12.8333047,2.56673828 C12.8333477,2.78665234 12.98,2.93334766 13.2,2.93334766 Z" id="Shape"></path>
                            <path d="M2.56665234,12.8333477 C1.94330469,12.8333477 1.46665234,13.31 1.46665234,13.9333477 C1.46665234,14.1533477 1.61330469,14.3 1.83330469,14.3 C2.05330469,14.3 2.19995703,14.1533477 2.19995703,13.9333477 C2.19995703,13.7133477 2.34660938,13.5666953 2.56660938,13.5666953 C2.78660938,13.5666953 2.93326172,13.420043 2.93326172,13.200043 C2.93326172,12.980043 2.78665234,12.8333477 2.56665234,12.8333477 Z" id="Shape"></path>
                            <path d="M13.9333477,12.8333477 C13.31,12.8333477 12.8333477,13.31 12.8333477,13.9333477 C12.8333477,14.1533477 12.98,14.3 13.2,14.3 C13.42,14.3 13.5666523,14.1533477 13.5666523,13.9333477 C13.5666523,13.7133477 13.7133047,13.5666953 13.9333047,13.5666953 C14.1533047,13.5666953 14.299957,13.420043 14.299957,13.200043 C14.299957,12.980043 14.1533477,12.8333477 13.9333477,12.8333477 Z" id="Shape"></path>
                            <path d="M7.33334766,8.43334766 C7.55334766,8.43334766 7.7,8.28669531 7.7,8.06669531 C7.7,7.84669531 7.84665234,7.70004297 8.06665234,7.70004297 C8.28665234,7.70004297 8.43330469,7.55339062 8.43330469,7.33339062 C8.43330469,7.11339062 8.28665234,6.96673828 8.06665234,6.96673828 C7.44330469,6.96673828 6.96665234,7.44339062 6.96665234,8.06673828 C6.96665234,8.28665234 7.11334766,8.43334766 7.33334766,8.43334766 Z" id="Shape"></path>
                            <path d="M18.3333477,8.06665234 C18.3333477,8.28665234 18.48,8.43330469 18.7,8.43330469 C18.92,8.43330469 19.0666523,8.28665234 19.0666523,8.06665234 C19.0666523,7.84665234 19.2133047,7.7 19.4333047,7.7 C19.6533047,7.7 19.799957,7.55334766 19.799957,7.33334766 C19.799957,7.11334766 19.6533047,6.96669531 19.4333047,6.96669531 C18.81,6.96665234 18.3333477,7.44334766 18.3333477,8.06665234 Z" id="Shape"></path>
                            <path d="M8.06665234,18.3333477 C7.44330469,18.3333477 6.96665234,18.81 6.96665234,19.4333477 C6.96665234,19.6533477 7.11330469,19.8 7.33330469,19.8 C7.55330469,19.8 7.69995703,19.6533477 7.69995703,19.4333477 C7.69995703,19.2133477 7.84660938,19.0666953 8.06660938,19.0666953 C8.28660938,19.0666953 8.43326172,18.920043 8.43326172,18.700043 C8.43326172,18.480043 8.28665234,18.3333477 8.06665234,18.3333477 Z" id="Shape"></path>
                            <path d="M19.4333477,18.3333477 C18.81,18.3333477 18.3333477,18.81 18.3333477,19.4333477 C18.3333477,19.6533477 18.48,19.8 18.7,19.8 C18.92,19.8 19.0666523,19.6533477 19.0666523,19.4333477 C19.0666523,19.2133477 19.2133047,19.0666953 19.4333047,19.0666953 C19.6533047,19.0666953 19.799957,18.920043 19.799957,18.700043 C19.799957,18.480043 19.6533477,18.3333477 19.4333477,18.3333477 Z" id="Shape"></path>
                            <path d="M19.8,16.8925625 L19.8,10.6074375 C21.0527539,10.4323398 22,9.37195703 22,8.06665234 C22,6.63665234 20.8633477,5.5 19.4333477,5.5 C18.9466836,5.5 18.4941367,5.63191406 18.1086641,5.86196875 L16.1380742,3.89137891 C16.3680859,3.50586328 16.5,3.05335938 16.5,2.56665234 C16.5,1.13665234 15.3633477,0 13.9333477,0 C12.628043,0 11.5676602,0.947246094 11.3925625,2.2 L5.1074375,2.2 C4.93233984,0.947246094 3.87195703,0 2.56665234,0 C1.13665234,0 0,1.13665234 0,2.56665234 C0,3.87195703 0.947246094,4.93233984 2.2,5.1074375 L2.2,11.3925625 C0.947246094,11.5676602 0,12.628043 0,13.9333477 C0,15.3633477 1.13665234,16.5 2.56665234,16.5 C3.05331641,16.5 3.50586328,16.3680859 3.89133594,16.1380313 L5.86192578,18.1086211 C5.63191406,18.4941367 5.5,18.9466406 5.5,19.4333477 C5.5,20.8633477 6.63665234,22 8.06665234,22 C9.37195703,22 10.4323398,21.0527539 10.6074375,19.8 L16.8925625,19.8 C17.0676602,21.0527539 18.128043,22 19.4333477,22 C20.8633477,22 22,20.8633477 22,19.4333477 C22,18.128043 21.0527539,17.0676602 19.8,16.8925625 Z M18.7388867,16.9604102 C18.4276211,17.0408047 18.1368086,17.1805391 17.8808008,17.3674961 L15.9910781,15.4777734 C16.3112813,15.0496328 16.5,14.515832 16.5,13.9333477 C16.5,12.628043 15.5527539,11.5676602 14.3,11.3925625 L14.3,8.43334766 L16.8666523,8.43334766 C17.001832,9.44710937 17.7600586,10.3046367 18.7678477,10.5477539 C18.8535273,10.5702266 18.9408828,10.5886602 19.029957,10.6024102 L19.029957,16.8976758 C18.9308281,16.9129297 18.8338047,16.9342852 18.7388867,16.9604102 Z M10.1792109,17.9659219 C9.78720703,17.3899258 9.16342969,16.9844297 8.43330469,16.8666953 L8.43330469,14.3 L11.3925195,14.3 C11.5676172,15.5527539 12.628,16.5 13.9333047,16.5 C14.515832,16.5 15.0495898,16.3113242 15.4777305,15.9910781 L17.3612227,17.8745703 C17.1013047,18.2130781 16.9242734,18.6199063 16.8666523,19.0666523 L10.6074375,19.0666523 C10.5506328,18.6602109 10.4006289,18.286125 10.1792109,17.9659219 Z M6.32220703,17.542207 L4.45783594,15.6778359 C4.80072656,15.3057266 5.03335937,14.8303203 5.10748047,14.300043 L7.7,14.300043 L7.7,16.8926055 C7.16972266,16.9666836 6.69427344,17.1992734 6.32220703,17.542207 Z M2.93334766,11.3666523 L2.93334766,5.1074375 C3.37270312,5.04603516 3.77458984,4.87609375 4.11112109,4.62442578 L6.00892187,6.52222656 C5.68867578,6.95041016 5.5,7.48416797 5.5,8.06665234 C5.5,9.37195703 6.44724609,10.4323398 7.7,10.6074375 L7.7,13.5666523 L5.1074375,13.5666523 C5.05063281,13.1602539 4.90067187,12.786168 4.67929687,12.4660078 C4.28729297,11.8899688 3.66347266,11.4844297 2.93334766,11.3666523 Z M13.2678906,5.04775391 C13.3535273,5.07022656 13.4409258,5.08866016 13.53,5.10236719 L13.53,7.7 L10.6074375,7.7 C10.4323398,6.44724609 9.37195703,5.5 8.06665234,5.5 C7.484125,5.5 6.95036719,5.68867578 6.52222656,6.00892187 L4.62442578,4.11112109 C4.87609375,3.77463281 5.04603516,3.37274609 5.1074375,2.93334766 L11.3666523,2.93334766 C11.501832,3.94710938 12.2601016,4.80463672 13.2678906,5.04775391 Z M15.677793,4.45779297 L17.5421641,6.32216406 C17.1992734,6.69427344 16.9666406,7.16967969 16.8925195,7.69995703 L14.3,7.69995703 L14.3,5.10739453 C14.8302773,5.03331641 15.3057266,4.80072656 15.677793,4.45779297 Z M13.9333477,15.7666523 C12.9066953,15.7666523 12.1,14.96 12.1,13.9333047 C12.1,12.9066523 12.9066523,12.099957 13.9333477,12.099957 C14.96,12.099957 15.7666953,12.9066094 15.7666953,13.9333047 C15.7666523,14.96 14.96,15.7666523 13.9333477,15.7666523 Z M13.53,11.3976328 C13.4308281,11.4129297 13.3338047,11.4342852 13.2389297,11.4604102 C12.271832,11.7101875 11.5001992,12.5319648 11.3666953,13.5666953 L8.43334766,13.5666953 L8.43334766,10.6074805 C9.56643359,10.4490977 10.4490977,9.56643359 10.6074375,8.43339063 L13.53,8.43339063 L13.53,11.3976328 Z M6.68331641,6.85304297 C6.71936719,6.83551172 6.75421484,6.8124375 6.78330469,6.78334766 C6.81488672,6.75176562 6.83929297,6.71661719 6.85725391,6.67966406 C7.17805859,6.40079687 7.59941016,6.23334766 8.06665234,6.23334766 C9.09330469,6.23334766 9.9,7.04 9.9,8.06669531 C9.9,9.09339062 9.09334766,9.9 8.06665234,9.9 C7.03995703,9.9 6.23330469,9.09334766 6.23330469,8.06665234 C6.23334766,7.59734766 6.40225781,7.17436328 6.68331641,6.85304297 Z M21.2666523,8.06665234 C21.2666523,9.09330469 20.46,9.9 19.4333047,9.9 C18.4066523,9.9 17.599957,9.09334766 17.599957,8.06665234 C17.599957,7.50049609 17.8455664,7.00162891 18.2377852,6.66763281 C18.2722031,6.65035938 18.305418,6.62784375 18.3332617,6.59995703 C18.341168,6.59205078 18.3484297,6.58384375 18.3555195,6.57550781 C18.6563437,6.35967578 19.0274648,6.23326172 19.4332617,6.23326172 C20.46,6.23334766 21.2666523,7.04 21.2666523,8.06665234 Z M13.9333477,0.733347656 C14.96,0.733347656 15.7666953,1.54 15.7666953,2.56669531 C15.7666953,2.97249219 15.6402812,3.34361328 15.4244492,3.64448047 C15.4161563,3.65152734 15.4079062,3.65878906 15.400043,3.66669531 C15.3690195,3.69771875 15.344957,3.73213672 15.327082,3.76835938 C14.9931289,4.15696875 14.496582,4.40004297 13.9333906,4.40004297 C12.9067383,4.40004297 12.100043,3.59339063 12.100043,2.56669531 C12.100043,1.54 12.9066523,0.733347656 13.9333477,0.733347656 Z M0.733347656,2.56665234 C0.733347656,1.54 1.54,0.733304687 2.56669531,0.733304687 C3.59339063,0.733304687 4.4,1.54 4.4,2.56665234 C4.4,3.59330469 3.59334766,4.4 2.56665234,4.4 C1.53995703,4.4 0.733347656,3.59334766 0.733347656,2.56665234 Z M0.733347656,13.9333477 C0.733347656,12.9066953 1.54,12.1 2.56669531,12.1 C3.59339063,12.1 4.40004297,12.9066523 4.40004297,13.9333477 C4.40004297,14.4964961 4.15696875,14.9930859 3.76835938,15.3270391 C3.73217969,15.344957 3.69771875,15.3689766 3.66669531,15.4 C3.65878906,15.4079063 3.65152734,15.4161133 3.64448047,15.4244063 C3.34365625,15.6402383 2.97253516,15.7666523 2.56669531,15.7666523 C1.54,15.7666523 0.733347656,14.96 0.733347656,13.9333477 Z M8.06665234,21.2666523 C7.04,21.2666523 6.23330469,20.46 6.23330469,19.4333047 C6.23330469,19.0268203 6.36014844,18.6550977 6.576625,18.3540156 C6.58466016,18.3473984 6.59260938,18.3406953 6.59995703,18.3333047 C6.63098047,18.3022812 6.65504297,18.2678633 6.67291797,18.2316406 C7.00687109,17.8430312 7.50341797,17.599957 8.06660938,17.599957 C9.09326172,17.599957 9.89995703,18.4066094 9.89995703,19.4333047 C9.9,20.46 9.09334766,21.2666523 8.06665234,21.2666523 Z M19.4333477,21.2666523 C18.4066953,21.2666523 17.6,20.46 17.6,19.4333047 C17.6,18.964 17.7689102,18.5410156 18.0500117,18.2196523 C18.0860625,18.2021211 18.1209102,18.1790469 18.15,18.149957 C18.181582,18.118375 18.2059883,18.0832266 18.2239492,18.0462734 C18.5447539,17.7674062 18.9660625,17.599957 19.4333477,17.599957 C20.46,17.599957 21.2666953,18.4066094 21.2666953,19.4333047 C21.2666523,20.46 20.46,21.2666523 19.4333477,21.2666523 Z" id="Shape"></path>
                        </g>
                    </g>
                </g>
            </g>
        </g>
    </g>
</svg>