<?xml version="1.0" encoding="UTF-8"?>
<svg width="22px" height="20px" viewBox="0 0 22 20" version="1.1" xmlns="http://www.w3.org/2000/svg" xmlns:xlink="http://www.w3.org/1999/xlink">
    <!-- Generator: Sketch 41.2 (35397) - http://www.bohemiancoding.com/sketch -->
    <title>billing</title>
    <desc>Created with Sketch.</desc>
    <defs></defs>
    <g id="Desktop" stroke="none" stroke-width="1" fill="none" fill-rule="evenodd">
        <g id="10.1.-Profile---Overview" transform="translate(-30.000000, -130.000000)" fill="#76767B">
            <g id="Menu" transform="translate(0.000000, 60.000000)">
                <g id="Active-(Hover)" transform="translate(0.000000, 60.000000)">
                    <path d="M49.9097143,29.954965 L31.97,29.954965 C30.8837143,29.954965 30,29.0896503 30,28.0262937 L30,14.6458741 C30,13.5823776 30.8838571,12.7172028 31.97,12.7172028 L38.1868571,12.7172028 C38.2002857,12.711049 38.2142857,12.7057343 38.2288571,12.7012587 L46.6717143,10.0833566 C46.7652857,10.0548252 46.8664286,10.0643357 46.9522857,10.1106294 C47.038,10.1569231 47.1004286,10.2358042 47.1251429,10.3285315 L47.761,12.7172028 L49.9098571,12.7172028 C50.9961429,12.7172028 51.8798571,13.5825175 51.8798571,14.6458741 L51.8798571,28.0262937 C51.8797143,29.0896503 50.996,29.954965 49.9097143,29.954965 Z M31.97,13.4165035 C31.2775714,13.4165035 30.7142857,13.967972 30.7142857,14.6458741 L30.7142857,28.0262937 C30.7142857,28.7041958 31.2775714,29.2556643 31.97,29.2556643 L49.9097143,29.2556643 C50.6021429,29.2556643 51.1654286,28.7041958 51.1654286,28.0262937 L51.1654286,23.8741259 L44.513,23.8741259 C43.6451429,23.8741259 42.939,23.1829371 42.939,22.3332867 L42.939,20.3387413 C42.939,19.4892308 43.645,18.7979021 44.513,18.7979021 L51.1654286,18.7979021 L51.1654286,14.6458741 C51.1654286,13.967972 50.6021429,13.4165035 49.9097143,13.4165035 L31.97,13.4165035 L31.97,13.4165035 Z M44.513,19.4972028 C44.039,19.4972028 43.6532857,19.8746853 43.6532857,20.3387413 L43.6532857,22.3334266 C43.6532857,22.7973427 44.0388571,23.174965 44.513,23.174965 L51.1654286,23.174965 L51.1654286,19.4972028 L44.513,19.4972028 Z M40.5432857,12.7172028 L47.0227143,12.7172028 L46.5287143,10.8612587 L40.5432857,12.7172028 Z M45.6531429,22.579021 C44.9531429,22.579021 44.3834286,22.0213986 44.3834286,21.3359441 C44.3834286,20.6504895 44.953,20.0928671 45.6531429,20.0928671 C46.3532857,20.0928671 46.9228571,20.6504895 46.9228571,21.3359441 C46.9228571,22.0213986 46.3532857,22.579021 45.6531429,22.579021 Z M45.6531429,20.7923077 C45.3468571,20.7923077 45.0977143,21.0362238 45.0977143,21.3360839 C45.0977143,21.6359441 45.3468571,21.8798601 45.6531429,21.8798601 C45.9594286,21.8798601 46.2085714,21.6359441 46.2085714,21.3360839 C46.2085714,21.0362238 45.9594286,20.7923077 45.6531429,20.7923077 Z" id="billing"></path>
                </g>
            </g>
        </g>
    </g>
</svg>