<?xml version="1.0" encoding="UTF-8"?>
<svg width="20px" height="23px" viewBox="0 0 20 23" version="1.1" xmlns="http://www.w3.org/2000/svg" xmlns:xlink="http://www.w3.org/1999/xlink">
    <!-- Generator: Sketch 41.2 (35397) - http://www.bohemiancoding.com/sketch -->
    <title>blacklisted</title>
    <desc>Created with Sketch.</desc>
    <defs></defs>
    <g id="Desktop" stroke="none" stroke-width="1" fill="none" fill-rule="evenodd">
        <g id="6.1.-Contacts---All" transform="translate(-31.000000, -289.000000)" fill="#76767B">
            <g id="Conversations" transform="translate(0.000000, 60.000000)">
                <g id="Menu">
                    <g id="Active-(Hover)" transform="translate(0.000000, 220.000000)">
                        <g id="blacklisted" transform="translate(31.000000, 9.000000)">
                            <path d="M4.35079727,4.32093933 C3.82519362,4.32093933 3.35056948,4.68682387 3.01430524,5.35125832 C2.71571754,5.94129159 2.55125285,6.7182955 2.55125285,7.53913894 C2.55125285,8.35998239 2.71571754,9.1369863 3.01430524,9.72701957 C3.35056948,10.391454 3.82523918,10.7573386 4.35079727,10.7573386 C4.87635535,10.7573386 5.35102506,10.391454 5.68728929,9.72701957 C5.98587699,9.1369863 6.15034169,8.35998239 6.15034169,7.53913894 C6.15034169,6.7182955 5.98587699,5.94129159 5.68728929,5.35125832 C5.35102506,4.68682387 4.87640091,4.32093933 4.35079727,4.32093933 Z M5.076082,9.42509393 C4.86469248,9.84269472 4.60036446,10.0821918 4.35079727,10.0821918 C4.10123007,10.0821918 3.83690205,9.84269472 3.62555809,9.42509393 C3.37348519,8.92697065 3.23462415,8.25718004 3.23462415,7.53913894 C3.23462415,6.82109785 3.37343964,6.15130724 3.62555809,5.65318395 C3.83690205,5.23558317 4.10123007,4.99608611 4.35079727,4.99608611 C4.60036446,4.99608611 4.86469248,5.23558317 5.07603645,5.65318395 C5.3281549,6.15130724 5.46697039,6.82109785 5.46697039,7.53913894 C5.46697039,8.25718004 5.3281549,8.92697065 5.076082,9.42509393 Z" id="Shape"></path>
                            <path d="M19.9932574,7.1120411 C19.9357175,5.29243053 19.5112528,3.59155577 18.7834624,2.28420157 C17.9634624,0.81121135 16.8503417,0 15.6492027,0 L4.35079727,0 C3.14965831,0 2.03653759,0.81121135 1.21653759,2.28420157 C0.432072893,3.69336791 0,5.55960861 0,7.53913894 C0,9.51866928 0.432027335,11.38491 1.21653759,12.7940763 C2.03653759,14.2670665 3.14965831,15.0782779 4.35079727,15.0782779 C4.44045558,15.0782779 4.52952164,15.0731918 4.61808656,15.0642348 C4.64892938,15.0732368 4.68145786,15.0782779 4.71526196,15.0782779 L6.90205011,15.0782779 C7.09075171,15.0782779 7.24373576,14.927135 7.24373576,14.7407045 C7.24373576,14.554274 7.09075171,14.4031311 6.90205011,14.4031311 L6.17312073,14.4031311 C6.65995444,14.0194677 7.10414579,13.4783151 7.48505695,12.7940763 C7.68656036,12.4321526 7.86460137,12.0398924 8.01822323,11.6235068 L8.01822323,22.6624266 C8.01822323,22.7860685 8.08660592,22.8997632 8.19649203,22.9588611 C8.30642369,23.0180039 8.44022779,23.0130078 8.54528474,22.9459883 L9.48851936,22.3440724 L10.4323007,22.9460333 C10.5451025,23.0179589 10.6900683,23.0180039 10.8028702,22.9460333 L11.7472437,22.3439824 L12.6916173,22.9460333 C12.7480182,22.9819961 12.8124374,22.999955 12.8768565,22.999955 C12.9413667,22.999955 13.005877,22.9819511 13.0622779,22.9459432 L14.0052847,22.3440724 L14.9495216,22.9460333 C15.0623235,23.0179139 15.2072437,23.0179589 15.3200456,22.9460333 L16.2645558,22.3439374 L17.2093394,22.9460333 C17.3220501,23.0178689 17.4667882,23.0178689 17.5795444,22.9461683 L18.5263781,22.3437123 L19.4732118,22.9461683 C19.5783599,23.0130528 19.7120273,23.0178239 19.8218223,22.958726 C19.9316173,22.8995832 19.9999089,22.7858885 19.9999089,22.6623816 L19.9999089,7.17901566 C20,7.15610568 19.9976765,7.1336908 19.9932574,7.1120411 Z M6.88628702,12.4687456 C6.1918451,13.7161468 5.29138952,14.4031311 4.35079727,14.4031311 C3.41020501,14.4031311 2.50974943,13.7161468 1.81530752,12.4687456 C1.08537585,11.1575205 0.683371298,9.40681996 0.683371298,7.53913894 C0.683371298,5.67145793 1.08537585,3.92075734 1.81530752,2.60953229 C2.50979499,1.36213112 3.41020501,0.675146771 4.35079727,0.675146771 C5.29138952,0.675146771 6.1918451,1.36213112 6.88628702,2.60953229 C7.61621868,3.92075734 8.01822323,5.67145793 8.01822323,7.53913894 C8.01822323,9.40681996 7.61621868,11.1575205 6.88628702,12.4687456 Z M18.7114806,21.6584384 C18.5987699,21.5867378 18.4541686,21.5867378 18.3414579,21.6584384 L17.3947608,22.2608043 L16.449795,21.6585734 C16.3369932,21.5866928 16.1920729,21.5867378 16.0793622,21.6585734 L15.1348519,22.2606243 L14.1904784,21.6585734 C14.077631,21.5866027 13.932574,21.5866477 13.8198178,21.6586634 L12.8768109,22.2605793 L11.9325285,21.6585734 C11.8197267,21.5866477 11.6748064,21.5866477 11.5620046,21.6585734 L10.6176765,22.2605793 L9.6738041,21.6585734 C9.56095672,21.5866027 9.41594533,21.5866027 9.30309795,21.6586184 L8.70159453,22.0425519 L8.70159453,12.1976517 L9.08883827,12.1976517 C9.27753986,12.1976517 9.43052392,12.0465088 9.43052392,11.8600783 C9.43052392,11.6736477 9.27753986,11.5225049 9.08883827,11.5225049 L8.70159453,11.5225049 L8.70159453,7.17906067 C8.70159453,7.15561057 8.6991344,7.13270059 8.69453303,7.11060078 C8.63681093,5.29148532 8.21266515,3.59119569 7.48505695,2.28415656 C7.10414579,1.59996282 6.65995444,1.05881018 6.17312073,0.675146771 L15.6492027,0.675146771 C16.589795,0.675146771 17.4902506,1.36213112 18.1846925,2.60953229 C18.9146241,3.92075734 19.3166287,5.67145793 19.3166287,7.53913894 L19.3166287,11.5225049 L19.2938497,11.5225049 C19.1051481,11.5225049 18.952164,11.6736477 18.952164,11.8600783 C18.952164,12.0465088 19.1051481,12.1976517 19.2938497,12.1976517 L19.3166287,12.1976517 L19.3166287,22.0434971 L18.7114806,21.6584384 Z" id="Shape"></path>
                            <path d="M11.2756264,11.5225049 L10.546697,11.5225049 C10.3579954,11.5225049 10.2050114,11.6736477 10.2050114,11.8600783 C10.2050114,12.0465088 10.3579954,12.1976517 10.546697,12.1976517 L11.2756264,12.1976517 C11.464328,12.1976517 11.6173121,12.0465088 11.6173121,11.8600783 C11.6173121,11.6736477 11.464328,11.5225049 11.2756264,11.5225049 Z" id="Shape"></path>
                            <path d="M13.4624146,11.5225049 L12.7334852,11.5225049 C12.5447836,11.5225049 12.3917995,11.6736477 12.3917995,11.8600783 C12.3917995,12.0465088 12.5447836,12.1976517 12.7334852,12.1976517 L13.4624146,12.1976517 C13.6511162,12.1976517 13.8041002,12.0465088 13.8041002,11.8600783 C13.8041002,11.6736477 13.6511162,11.5225049 13.4624146,11.5225049 Z" id="Shape"></path>
                            <path d="M15.6492027,11.5225049 L14.9202733,11.5225049 C14.7315718,11.5225049 14.5785877,11.6736477 14.5785877,11.8600783 C14.5785877,12.0465088 14.7315718,12.1976517 14.9202733,12.1976517 L15.6492027,12.1976517 C15.8379043,12.1976517 15.9908884,12.0465088 15.9908884,11.8600783 C15.9908884,11.6736477 15.8379043,11.5225049 15.6492027,11.5225049 Z" id="Shape"></path>
                            <path d="M17.8359909,11.5225049 L17.1070615,11.5225049 C16.9183599,11.5225049 16.7653759,11.6736477 16.7653759,11.8600783 C16.7653759,12.0465088 16.9183599,12.1976517 17.1070615,12.1976517 L17.8359909,12.1976517 C18.0246925,12.1976517 18.1776765,12.0465088 18.1776765,11.8600783 C18.1776765,11.6736477 18.0246925,11.5225049 17.8359909,11.5225049 Z" id="Shape"></path>
                        </g>
                    </g>
                </g>
            </g>
        </g>
    </g>
</svg>