<?xml version="1.0" encoding="UTF-8"?>
<svg width="22px" height="22px" viewBox="0 0 22 22" version="1.1" xmlns="http://www.w3.org/2000/svg" xmlns:xlink="http://www.w3.org/1999/xlink">
    <!-- Generator: Sketch 41.2 (35397) - http://www.bohemiancoding.com/sketch -->
    <title>botintegrations</title>
    <desc>Created with Sketch.</desc>
    <defs></defs>
    <g id="Desktop" stroke="none" stroke-width="1" fill="none" fill-rule="evenodd">
        <g id="8.1.1.-Apps---Chatbot-Integrations" transform="translate(-30.000000, -89.000000)" fill="#0B61FF">
            <g id="Top-Bar">
                <g id="Menu" transform="translate(0.000000, 60.000000)">
                    <g id="Active-(Hover)" transform="translate(0.000000, 20.000000)">
                        <g id="botintegrations" transform="translate(30.000000, 9.000000)">
                            <path d="M5.67741935,2.48387097 C5.67741935,1.89696774 5.19980645,1.41935484 4.61290323,1.41935484 C4.026,1.41935484 3.5483871,1.89696774 3.5483871,2.48387097 C3.5483871,3.07077419 4.026,3.5483871 4.61290323,3.5483871 C5.19980645,3.5483871 5.67741935,3.07077419 5.67741935,2.48387097 Z M4.25806452,2.48387097 C4.25806452,2.288 4.41703226,2.12903226 4.61290323,2.12903226 C4.80877419,2.12903226 4.96774194,2.288 4.96774194,2.48387097 C4.96774194,2.67974194 4.80877419,2.83870968 4.61290323,2.83870968 C4.41703226,2.83870968 4.25806452,2.67974194 4.25806452,2.48387097 Z" id="Shape"></path>
                            <path d="M7.4516129,3.5483871 C8.03851613,3.5483871 8.51612903,3.07077419 8.51612903,2.48387097 C8.51612903,1.89696774 8.03851613,1.41935484 7.4516129,1.41935484 C6.86470968,1.41935484 6.38709677,1.89696774 6.38709677,2.48387097 C6.38709677,3.07077419 6.86470968,3.5483871 7.4516129,3.5483871 Z M7.4516129,2.12903226 C7.64748387,2.12903226 7.80645161,2.288 7.80645161,2.48387097 C7.80645161,2.67974194 7.64748387,2.83870968 7.4516129,2.83870968 C7.25574194,2.83870968 7.09677419,2.67974194 7.09677419,2.48387097 C7.09677419,2.288 7.25574194,2.12903226 7.4516129,2.12903226 Z" id="Shape"></path>
                            <path d="M20.2258065,6.38709677 L19.8709677,6.38709677 L19.516129,6.38709677 L18.4516129,6.38709677 L18.4516129,5.67741935 L18.8064516,5.67741935 C19.3933548,5.67741935 19.8709677,5.19980645 19.8709677,4.61290323 L19.8709677,1.06451613 C19.8709677,0.477612903 19.3933548,0 18.8064516,0 L13.1290323,0 C12.542129,0 12.0645161,0.477612903 12.0645161,1.06451613 L12.0645161,4.61290323 C12.0645161,5.19980645 12.542129,5.67741935 13.1290323,5.67741935 L13.483871,5.67741935 L13.483871,6.38709677 L12.4193548,6.38709677 L12.0645161,6.38709677 L9.93548387,6.38709677 L9.58064516,6.38709677 L8.51612903,6.38709677 L8.51612903,5.67741935 L8.87096774,5.67741935 C9.45787097,5.67741935 9.93548387,5.19980645 9.93548387,4.61290323 L9.93548387,1.06451613 C9.93548387,0.477612903 9.45787097,0 8.87096774,0 L3.19354839,0 C2.60664516,0 2.12903226,0.477612903 2.12903226,1.06451613 L2.12903226,4.61290323 C2.12903226,5.19980645 2.60664516,5.67741935 3.19354839,5.67741935 L3.5483871,5.67741935 L3.5483871,6.38709677 L2.48387097,6.38709677 L2.12903226,6.38709677 L1.77419355,6.38709677 C0.795903226,6.38709677 0,7.183 0,8.16129032 L0,8.87096774 L0,9.22580645 L0,14.1935484 L0.709677419,14.1935484 L0.709677419,9.22580645 L2.12903226,9.22580645 L2.12903226,10.2903226 L2.12903226,14.1935484 L2.83870968,14.1935484 L2.83870968,12.5275806 C3.54554839,13.5331935 4.71225806,14.1935484 6.03225806,14.1935484 C6.83703226,14.1935484 7.60490323,13.9469355 8.26454839,13.483871 L8.51612903,13.483871 L8.51612903,14.1935484 L7.4516129,14.1935484 L7.09677419,14.1935484 L6.74193548,14.1935484 C5.76364516,14.1935484 4.96774194,14.9894516 4.96774194,15.9677419 L4.96774194,16.6774194 L4.96774194,17.0322581 L4.96774194,22 L5.67741935,22 L5.67741935,17.0322581 L7.09677419,17.0322581 L7.09677419,18.0967742 L7.09677419,22 L7.80645161,22 L7.80645161,20.3340323 C8.51329032,21.3396452 9.68,22 11,22 C12.32,22 13.4867097,21.3396452 14.1935484,20.3340323 L14.1935484,22 L14.9032258,22 L14.9032258,18.0967742 L14.9032258,17.0322581 L16.3225806,17.0322581 L16.3225806,22 L17.0322581,22 L17.0322581,17.0322581 L17.0322581,16.6774194 L17.0322581,15.9677419 C17.0322581,14.9894516 16.2363548,14.1935484 15.2580645,14.1935484 L14.9032258,14.1935484 L14.5483871,14.1935484 L13.483871,14.1935484 L13.483871,13.483871 L13.7350968,13.483871 C14.3950968,13.9469355 15.1633226,14.1935484 15.9677419,14.1935484 C17.2877419,14.1935484 18.4544516,13.5331935 19.1612903,12.5275806 L19.1612903,14.1935484 L19.8709677,14.1935484 L19.8709677,10.2903226 L19.8709677,9.22580645 L21.2903226,9.22580645 L21.2903226,14.1935484 L22,14.1935484 L22,9.22580645 L22,8.87096774 L22,8.16129032 C22,7.183 21.2040968,6.38709677 20.2258065,6.38709677 Z M2.12903226,8.51612903 L0.709677419,8.51612903 L0.709677419,8.16129032 C0.709677419,7.5743871 1.18729032,7.09677419 1.77419355,7.09677419 L2.12903226,7.09677419 L2.12903226,8.51612903 Z M7.09677419,16.3225806 L5.67741935,16.3225806 L5.67741935,15.9677419 C5.67741935,15.3808387 6.15503226,14.9032258 6.74193548,14.9032258 L7.09677419,14.9032258 L7.09677419,16.3225806 Z M14.9032258,14.9032258 L15.2580645,14.9032258 C15.8449677,14.9032258 16.3225806,15.3808387 16.3225806,15.9677419 L16.3225806,16.3225806 L14.9032258,16.3225806 L14.9032258,14.9032258 Z M13.1290323,4.96774194 C12.9331613,4.96774194 12.7741935,4.80877419 12.7741935,4.61290323 L12.7741935,1.06451613 C12.7741935,0.868645161 12.9331613,0.709677419 13.1290323,0.709677419 L18.8064516,0.709677419 C19.0023226,0.709677419 19.1612903,0.868645161 19.1612903,1.06451613 L19.1612903,4.61290323 C19.1612903,4.80877419 19.0023226,4.96774194 18.8064516,4.96774194 L17.3870968,4.96774194 L17.3870968,4.25806452 C17.3870968,3.86703226 17.0684516,3.5483871 16.6774194,3.5483871 L15.2580645,3.5483871 C14.8666774,3.5483871 14.5483871,3.86703226 14.5483871,4.25806452 L14.5483871,4.96774194 L13.1290323,4.96774194 Z M17.7419355,5.67741935 L17.7419355,6.38709677 L14.1935484,6.38709677 L14.1935484,5.67741935 L17.7419355,5.67741935 Z M15.2580645,4.96774194 L15.2580645,4.25806452 L16.6774194,4.25806452 L16.6774194,4.96774194 L15.2580645,4.96774194 Z M9.93548387,7.09677419 L12.0645161,7.09677419 L12.0645161,7.80645161 L9.93548387,7.80645161 L9.93548387,7.09677419 Z M3.19354839,4.96774194 C2.99767742,4.96774194 2.83870968,4.80877419 2.83870968,4.61290323 L2.83870968,1.06451613 C2.83870968,0.868645161 2.99767742,0.709677419 3.19354839,0.709677419 L8.87096774,0.709677419 C9.06683871,0.709677419 9.22580645,0.868645161 9.22580645,1.06451613 L9.22580645,4.61290323 C9.22580645,4.80877419 9.06683871,4.96774194 8.87096774,4.96774194 L7.4516129,4.96774194 L7.4516129,4.25806452 C7.4516129,3.86703226 7.13296774,3.5483871 6.74193548,3.5483871 L5.32258065,3.5483871 C4.93119355,3.5483871 4.61290323,3.86703226 4.61290323,4.25806452 L4.61290323,4.96774194 L3.19354839,4.96774194 Z M7.80645161,5.67741935 L7.80645161,6.38709677 L4.25806452,6.38709677 L4.25806452,5.67741935 L7.80645161,5.67741935 Z M5.32258065,4.96774194 L5.32258065,4.25806452 L6.74193548,4.25806452 L6.74193548,4.96774194 L5.32258065,4.96774194 Z M7.40619355,13.1684194 C6.97896774,13.3745806 6.51377419,13.483871 6.03225806,13.483871 C4.27119355,13.483871 2.83870968,12.0513871 2.83870968,10.2903226 L2.83870968,7.09677419 L9.22580645,7.09677419 L9.22580645,7.80645161 L8.16129032,7.80645161 C7.5743871,7.80645161 7.09677419,8.28406452 7.09677419,8.87096774 L7.09677419,12.4193548 C7.09677419,12.7113871 7.21529032,12.9760968 7.40619355,13.1684194 Z M14.1935484,14.9032258 L14.1935484,18.0967742 C14.1935484,19.8578387 12.7610645,21.2903226 11,21.2903226 C9.23893548,21.2903226 7.80645161,19.8578387 7.80645161,18.0967742 L7.80645161,14.9032258 L14.1935484,14.9032258 Z M12.7741935,13.483871 L12.7741935,14.1935484 L9.22580645,14.1935484 L9.22580645,13.483871 L12.7741935,13.483871 Z M10.2903226,12.7741935 L10.2903226,12.0645161 L11.7096774,12.0645161 L11.7096774,12.7741935 L10.2903226,12.7741935 Z M14.1935484,12.4193548 C14.1935484,12.6152258 14.0345806,12.7741935 13.8387097,12.7741935 L12.4193548,12.7741935 L12.4193548,12.0645161 C12.4193548,11.673129 12.1007097,11.3548387 11.7096774,11.3548387 L10.2903226,11.3548387 C9.89893548,11.3548387 9.58064516,11.673129 9.58064516,12.0645161 L9.58064516,12.7741935 L8.16129032,12.7741935 C7.96541935,12.7741935 7.80645161,12.6152258 7.80645161,12.4193548 L7.80645161,8.87096774 C7.80645161,8.67509677 7.96541935,8.51612903 8.16129032,8.51612903 L13.8387097,8.51612903 C14.0345806,8.51612903 14.1935484,8.67509677 14.1935484,8.87096774 L14.1935484,12.4193548 Z M19.1612903,10.2903226 C19.1612903,12.0513871 17.7288065,13.483871 15.9677419,13.483871 C15.4865806,13.483871 15.0210323,13.3742258 14.5938065,13.1684194 C14.7847097,12.9757419 14.9032258,12.7113871 14.9032258,12.4193548 L14.9032258,8.87096774 C14.9032258,8.28406452 14.4256129,7.80645161 13.8387097,7.80645161 L12.7741935,7.80645161 L12.7741935,7.09677419 L19.1612903,7.09677419 L19.1612903,10.2903226 Z M21.2903226,8.51612903 L19.8709677,8.51612903 L19.8709677,7.09677419 L20.2258065,7.09677419 C20.8127097,7.09677419 21.2903226,7.5743871 21.2903226,8.16129032 L21.2903226,8.51612903 Z" id="Shape"></path>
                            <path d="M15.6129032,2.48387097 C15.6129032,1.89696774 15.1352903,1.41935484 14.5483871,1.41935484 C13.9614839,1.41935484 13.483871,1.89696774 13.483871,2.48387097 C13.483871,3.07077419 13.9614839,3.5483871 14.5483871,3.5483871 C15.1352903,3.5483871 15.6129032,3.07077419 15.6129032,2.48387097 Z M14.1935484,2.48387097 C14.1935484,2.288 14.3525161,2.12903226 14.5483871,2.12903226 C14.7442581,2.12903226 14.9032258,2.288 14.9032258,2.48387097 C14.9032258,2.67974194 14.7442581,2.83870968 14.5483871,2.83870968 C14.3525161,2.83870968 14.1935484,2.67974194 14.1935484,2.48387097 Z" id="Shape"></path>
                            <path d="M17.3870968,3.5483871 C17.974,3.5483871 18.4516129,3.07077419 18.4516129,2.48387097 C18.4516129,1.89696774 17.974,1.41935484 17.3870968,1.41935484 C16.8001935,1.41935484 16.3225806,1.89696774 16.3225806,2.48387097 C16.3225806,3.07077419 16.8001935,3.5483871 17.3870968,3.5483871 Z M17.3870968,2.12903226 C17.5829677,2.12903226 17.7419355,2.288 17.7419355,2.48387097 C17.7419355,2.67974194 17.5829677,2.83870968 17.3870968,2.83870968 C17.1912258,2.83870968 17.0322581,2.67974194 17.0322581,2.48387097 C17.0322581,2.288 17.1912258,2.12903226 17.3870968,2.12903226 Z" id="Shape"></path>
                            <path d="M9.58064516,9.22580645 C8.99374194,9.22580645 8.51612903,9.70341935 8.51612903,10.2903226 C8.51612903,10.8772258 8.99374194,11.3548387 9.58064516,11.3548387 C10.1675484,11.3548387 10.6451613,10.8772258 10.6451613,10.2903226 C10.6451613,9.70341935 10.1675484,9.22580645 9.58064516,9.22580645 Z M9.58064516,10.6451613 C9.38477419,10.6451613 9.22580645,10.4861935 9.22580645,10.2903226 C9.22580645,10.0944516 9.38477419,9.93548387 9.58064516,9.93548387 C9.77651613,9.93548387 9.93548387,10.0944516 9.93548387,10.2903226 C9.93548387,10.4861935 9.77651613,10.6451613 9.58064516,10.6451613 Z" id="Shape"></path>
                            <path d="M12.4193548,9.22580645 C11.8324516,9.22580645 11.3548387,9.70341935 11.3548387,10.2903226 C11.3548387,10.8772258 11.8324516,11.3548387 12.4193548,11.3548387 C13.0062581,11.3548387 13.483871,10.8772258 13.483871,10.2903226 C13.483871,9.70341935 13.0062581,9.22580645 12.4193548,9.22580645 Z M12.4193548,10.6451613 C12.2234839,10.6451613 12.0645161,10.4861935 12.0645161,10.2903226 C12.0645161,10.0944516 12.2234839,9.93548387 12.4193548,9.93548387 C12.6152258,9.93548387 12.7741935,10.0944516 12.7741935,10.2903226 C12.7741935,10.4861935 12.6152258,10.6451613 12.4193548,10.6451613 Z" id="Shape"></path>
                            <path d="M9.93548387,18.4516129 C10.7182581,18.4516129 11.3548387,17.8150323 11.3548387,17.0322581 C11.3548387,16.2494839 10.7182581,15.6129032 9.93548387,15.6129032 C9.15270968,15.6129032 8.51612903,16.2494839 8.51612903,17.0322581 C8.51612903,17.8150323 9.15270968,18.4516129 9.93548387,18.4516129 Z M9.93548387,16.3225806 C10.3265161,16.3225806 10.6451613,16.640871 10.6451613,17.0322581 C10.6451613,17.4236452 10.3265161,17.7419355 9.93548387,17.7419355 C9.54409677,17.7419355 9.22580645,17.4236452 9.22580645,17.0322581 C9.22580645,16.640871 9.54409677,16.3225806 9.93548387,16.3225806 Z" id="Shape"></path>
                            <rect id="Rectangle-path" x="12.0645161" y="15.6129032" width="1.41935484" height="0.709677419"></rect>
                            <rect id="Rectangle-path" x="12.0645161" y="17.0322581" width="1.41935484" height="0.709677419"></rect>
                            <rect id="Rectangle-path" x="8.51612903" y="19.1612903" width="4.96774194" height="0.709677419"></rect>
                        </g>
                    </g>
                </g>
            </g>
        </g>
    </g>
</svg>