<?xml version="1.0" encoding="UTF-8"?>
<svg width="60px" height="60px" viewBox="0 0 60 60" version="1.1" xmlns="http://www.w3.org/2000/svg" xmlns:xlink="http://www.w3.org/1999/xlink">
    <!-- Generator: Sketch 41.2 (35397) - http://www.bohemiancoding.com/sketch -->
    <title>chathead-open</title>
    <desc>Created with Sketch.</desc>
    <defs>
        <linearGradient x1="50%" y1="0%" x2="50%" y2="100%" id="linearGradient-1">
            <stop stop-color="#389BFF" offset="0%"></stop>
            <stop stop-color="#0054FF" offset="100%"></stop>
        </linearGradient>
    </defs>
    <g id="Iconography" stroke="none" stroke-width="1" fill="none" fill-rule="evenodd">
        <g id="Icons" transform="translate(-200.000000, -120.000000)">
            <g id="chathead-open" transform="translate(200.000000, 120.000000)">
                <g id="Icon" fill="url(#linearGradient-1)">
                    <g id="Desktop">
                        <g id="4.1.-Measure-(Analytics-Dashboard)">
                            <g id="KoalaAdminChat">
                                <path d="M39.0815,0 C45.105,0 48.116,0 51.3585,1.025 C54.8985,2.3135 57.6865,5.1015 58.975,8.6415 C60,11.8835 60,14.8955 60,20.9185 L60,39.0815 C60,45.105 60,48.116 58.975,51.3585 C57.6865,54.8985 54.8985,57.6865 51.3585,58.9745 C48.116,60 45.105,60 39.0815,60 L20.9185,60 C14.895,60 11.8835,60 8.6415,58.9745 C5.1015,57.6865 2.3135,54.8985 1.025,51.3585 C0,48.116 0,45.105 0,39.0815 L0,20.9185 C0,14.8955 0,11.8835 1.025,8.6415 C2.3135,5.1015 5.1015,2.3135 8.6415,1.025 C11.8835,0 14.895,0 20.9185,0 L39.0815,0 Z" id="Icon"></path>
                            </g>
                        </g>
                    </g>
                </g>
                <path d="M28,28 L18.0136909,28 C16.8998975,28 16,28.8954306 16,30 C16,31.1122704 16.9015601,32 18.0136909,32 L28,32 L28,41.986309 C28,43.1001024 28.8954306,44 30,44 C31.1122704,44 32,43.0984398 32,41.986309 L32,32 L41.986309,32 C43.1001024,32 44,31.1045694 44,30 C44,28.8877296 43.0984398,28 41.986309,28 L32,28 L32,18.0136909 C32,16.8998975 31.1045694,16 30,16 C28.8877296,16 28,16.9015601 28,18.0136909 L28,28 Z" id="Combined-Shape" fill="#FFFFFF" transform="translate(30.000000, 30.000000) rotate(45.000000) translate(-30.000000, -30.000000) "></path>
            </g>
        </g>
    </g>
</svg>