<?xml version="1.0" encoding="UTF-8"?>
<svg width="11px" height="22px" viewBox="0 0 11 22" version="1.1" xmlns="http://www.w3.org/2000/svg" xmlns:xlink="http://www.w3.org/1999/xlink">
    <!-- Generator: Sketch 41.2 (35397) - http://www.bohemiancoding.com/sketch -->
    <title>clip</title>
    <desc>Created with Sketch.</desc>
    <defs></defs>
    <g id="Desktop" stroke="none" stroke-width="1" fill="none" fill-rule="evenodd">
        <g id="5.1---Messaging---Inbox" transform="translate(-610.000000, -790.000000)" fill="#767B7B">
            <g id="Chat-Thread" transform="translate(580.000000, 60.000000)">
                <g id="Type-your-message…-+-SEND-+-Path-312" transform="translate(0.000000, 710.000000)">
                    <path d="M39.625,36.5013423 C39.625,38.776668 37.7748114,40.6248835 35.5,40.6248835 C33.2200749,40.6248835 31.375,38.7821084 31.375,36.5028527 L31.375,24.1280883 C31.375,22.6089951 32.6087489,21.3751165 34.125,21.3751165 C35.6431817,21.3751165 36.875,22.6072171 36.875,24.1246877 L36.875,35.8201983 C36.875,36.5747492 36.2584675,37.1889565 35.5,37.1889565 C34.7408105,37.1889565 34.125,36.5728651 34.125,35.813364 L34.125,25.7143193 C34.125,25.3345913 33.8171958,25.026761 33.4375,25.026761 C33.0578042,25.026761 32.75,25.3345913 32.75,25.7143193 L32.75,35.1262817 C32.75,37.3322067 33.9813047,38.564073 35.5,38.564073 C37.0166725,38.564073 38.25,37.3353968 38.25,35.8201983 L38.25,24.1246877 C38.25,21.8478057 36.4026177,20 34.125,20 C31.8493511,20 30,21.8495455 30,24.1280883 L30,36.5028527 C30,39.5419746 32.461093,42 35.5,42 C38.5338486,42 41,39.5364786 41,36.5013423 L41,23.5772208 C41,23.1974928 40.6921958,22.8896625 40.3125,22.8896625 C39.9328042,22.8896625 39.625,23.1974928 39.625,23.5772208 L39.625,36.5013423 Z" id="clip" transform="translate(35.500000, 31.000000) scale(-1, 1) translate(-35.500000, -31.000000) "></path>
                </g>
            </g>
        </g>
    </g>
</svg>