<?xml version="1.0" encoding="UTF-8"?>
<svg width="22px" height="16px" viewBox="0 0 22 16" version="1.1" xmlns="http://www.w3.org/2000/svg" xmlns:xlink="http://www.w3.org/1999/xlink">
    <!-- Generator: Sketch 41.2 (35397) - http://www.bohemiancoding.com/sketch -->
    <title>Combined Shape</title>
    <desc>Created with Sketch.</desc>
    <defs></defs>
    <g id="Desktop" stroke="none" stroke-width="1" fill="none" fill-rule="evenodd">
        <g id="5.1---Messaging---Inbox" transform="translate(-30.000000, -212.000000)" fill="#767B7B">
            <g id="Menu" transform="translate(0.000000, 60.000000)">
                <g id="Grid-View" transform="translate(0.000000, 140.000000)">
                    <path d="M51.7043051,18.9066182 L51.6599322,18.7901636 L51.6453898,18.4942545 L51.4865424,18.4942545 L47.7629492,12.7669818 L43.4617627,12.7669818 L43.4617627,13.5306182 L47.3639661,13.5306182 L50.6002034,18.4942545 L44.5804068,18.4942545 L44.5804068,21.1669818 L37.1227797,21.1669818 L37.1227797,18.4942545 L31.1029831,18.4942545 L34.3392203,13.5306182 L38.2414237,13.5306182 L38.2414237,12.7669818 L33.9398644,12.7669818 L30.1987458,18.5060909 L30.0380339,18.5144909 L30.0380339,18.823 L30,18.9188364 L30.0380339,18.9738182 L30.0380339,26.3654364 C30.0380339,27.0779091 30.6044407,27.6575091 31.3002373,27.6575091 L50.4029492,27.6575091 C51.0987458,27.6575091 51.6651525,27.0779091 51.6651525,26.3654364 L51.6651525,18.9673273 L51.7043051,18.9066182 L51.7043051,18.9066182 Z M50.9193898,26.3654364 C50.9193898,26.6567636 50.6878305,26.8938727 50.4029492,26.8938727 L31.2998644,26.8938727 C31.0149831,26.8938727 30.7834237,26.6567636 30.7834237,26.3654364 L30.7834237,19.2578909 L36.3766441,19.2578909 L36.3766441,21.9306182 L45.3257966,21.9306182 L45.3257966,19.2578909 L50.9190169,19.2578909 L50.9190169,26.3654364 L50.9193898,26.3654364 Z M35.2907757,15.8547639 C35.2912888,15.4923678 35.7523757,15.4818825 35.7523757,15.4818825 L46.2848303,15.4818825 C46.4955939,15.4818825 46.6666484,15.6485605 46.6666484,15.8547639 C46.6666484,16.0609673 46.4955939,16.2276452 46.2848303,16.2276452 L35.7519939,16.2276452 C35.7519939,16.2276452 35.2902626,16.2171599 35.2907757,15.8547639 Z" id="Combined-Shape"></path>
                </g>
            </g>
        </g>
    </g>
</svg>