<?xml version="1.0" encoding="UTF-8"?>
<svg width="392px" height="101px" viewBox="0 0 392 101" version="1.1" xmlns="http://www.w3.org/2000/svg" xmlns:xlink="http://www.w3.org/1999/xlink">
    <!-- Generator: Sketch 41.2 (35397) - http://www.bohemiancoding.com/sketch -->
    <title>dummay_chart</title>
    <desc>Created with Sketch.</desc>
    <defs></defs>
    <g id="Desktop" stroke="none" stroke-width="1" fill="none" fill-rule="evenodd">
        <g id="4.1.-Measure-(Analytics-Dashboard)" transform="translate(-769.000000, -329.000000)">
            <g id="Group-Copy-4" transform="translate(730.000000, 260.000000)">
                <g id="dummay_chart" transform="translate(40.000000, 70.000000)">
                    <path d="M0,99.0000024 L105.799972,59.0598942 C107.350579,58.4745308 109.957284,58 111.610748,58.0000001 L135.224695,58.0000007 C136.883291,58.0000007 139.071717,56.9621652 140.120864,55.6718684 L150.157617,43.3281324 C151.203101,42.0423404 153.384388,41 155.047733,41 L233.964925,41.0000007 C235.620178,41.0000007 238.232275,40.5604347 239.802933,40.0169131 L352.60213,0.983087681 C354.17112,0.440143347 356.612611,0.651855312 358.06879,1.46344864 L390,19.2601336 L390,99.0000024" id="Path-2" fill-opacity="0.2" fill="#2196F3"></path>
                    <path d="M0,99.0000024 L105.799972,59.0598942 C107.350579,58.4745308 109.957284,58 111.610748,58.0000001 L135.224695,58.0000007 C136.883291,58.0000007 139.071717,56.9621652 140.120864,55.6718684 L150.157617,43.3281324 C151.203101,42.0423404 153.384388,41 155.047733,41 L233.964925,41.0000007 C235.620178,41.0000007 238.232275,40.5604347 239.802933,40.0169131 L352.60213,0.983087681 C354.17112,0.440143347 356.612611,0.651855312 358.06879,1.46344864 L390,19.2601336" id="Path-2" stroke="#2196F3" stroke-width="2"></path>
                </g>
            </g>
        </g>
    </g>
</svg>