<?xml version="1.0" encoding="UTF-8"?>
<svg width="16px" height="16px" viewBox="0 0 16 16" version="1.1" xmlns="http://www.w3.org/2000/svg" xmlns:xlink="http://www.w3.org/1999/xlink">
    <!-- Generator: Sketch 41.2 (35397) - http://www.bohemiancoding.com/sketch -->
    <title>edit_text</title>
    <desc>Created with Sketch.</desc>
    <defs></defs>
    <g id="Desktop" stroke="none" stroke-width="1" fill="none" fill-rule="evenodd" opacity="0.899999976">
        <g id="5.1---Messaging---Inbox" transform="translate(-1305.000000, -288.000000)" fill="#B6B6B6">
            <g id="Visitor-Profile" transform="translate(1220.000000, 60.000000)">
                <g id="edit_text" transform="translate(85.000000, 228.000000)">
                    <path d="M1.45107692,15.1446154 C1.28984615,15.1446154 1.13230769,15.0806154 1.01538462,14.9649231 C0.871384615,14.8221538 0.808615385,14.6166154 0.845538462,14.4172308 C1.69476923,9.88061538 2.01476923,9.55938462 2.15261538,9.42153846 L10.3372308,1.23815385 C10.6067692,0.966153846 10.9673846,0.816 11.3513846,0.816 L11.3526154,0.816 C11.7366154,0.816 12.0972308,0.966153846 12.3692308,1.23815385 L14.7446154,3.61230769 C15.3021538,4.17476923 15.3021538,5.08553846 14.7458462,5.64430769 L6.56,13.8289231 C6.42338462,13.9643077 6.10461538,14.2843077 1.56430769,15.1347692 C1.52615385,15.1409231 1.488,15.1446154 1.45107692,15.1446154 Z M3.06707692,10.2461538 C2.90338462,10.5993846 2.54153846,12.1772308 2.22769231,13.7526154 C3.85107692,13.4289231 5.47938462,13.0547692 5.76369231,12.8996923 L13.8744615,4.77415385 C13.9556923,4.69292308 13.9544615,4.56246154 13.8732308,4.47876923 L11.4990769,2.10707692 C11.4486154,2.05661538 11.392,2.04553846 11.3526154,2.04553846 L11.3526154,2.04553846 C11.3144615,2.04553846 11.2578462,2.05661538 11.2086154,2.10584615 L3.06707692,10.2461538 Z" id="Shape"></path>
                    <path d="M6.12430769,14.0086154 C5.96676923,14.0086154 5.80923077,13.9483077 5.68861538,13.8289231 L2.15138462,10.2916923 C1.91138462,10.0516923 1.91138462,9.66153846 2.15138462,9.42153846 C2.39138462,9.18153846 2.78153846,9.18153846 3.02153846,9.42153846 L6.55876923,12.9587692 C6.79876923,13.1987692 6.79876923,13.5889231 6.55876923,13.8289231 C6.43938462,13.9483077 6.28184615,14.0086154 6.12430769,14.0086154 Z" id="Shape"></path>
                </g>
            </g>
        </g>
    </g>
</svg>