<?xml version="1.0" encoding="UTF-8"?>
<svg width="22px" height="19px" viewBox="0 0 22 19" version="1.1" xmlns="http://www.w3.org/2000/svg" xmlns:xlink="http://www.w3.org/1999/xlink">
    <!-- Generator: Sketch 41.2 (35397) - http://www.bohemiancoding.com/sketch -->
    <title>embedcode</title>
    <desc>Created with Sketch.</desc>
    <defs></defs>
    <g id="Desktop" stroke="none" stroke-width="1" fill="none" fill-rule="evenodd">
        <g id="10.1.-Profile---Overview" transform="translate(-30.000000, -210.000000)" fill="#76767B">
            <g id="Menu" transform="translate(0.000000, 60.000000)">
                <g id="Active-(Hover)" transform="translate(0.000000, 140.000000)">
                    <g id="embedcode" transform="translate(30.000000, 10.000000)">
                        <path d="M13.4314467,12.7993144 C13.4858277,12.9356922 13.6143904,13.0185185 13.75,13.0185185 C13.7933123,13.0185185 13.8369341,13.0102854 13.8795934,12.9927629 L18.0045934,11.2760771 C18.1331561,11.2224908 18.2174085,11.0950146 18.21875,10.9531136 C18.2200901,10.8108597 18.1375293,10.6820117 18.0099566,10.6263477 L13.8849566,8.82447931 C13.711748,8.74886667 13.50831,8.83098903 13.4337847,9.01001143 C13.3592595,9.18868148 13.4404868,9.39553526 13.6150434,9.47181698 L16.9810433,10.9420995 L13.6204407,12.3405704 C13.4445099,12.4137557 13.3599125,12.619237 13.4314467,12.7993144 Z" id="Shape"></path>
                        <path d="M4.68294073,11.2760771 L8.80794073,12.9927629 C8.8505659,13.0102854 8.89418767,13.0185185 8.9375,13.0185185 C9.07310962,13.0185185 9.20170642,12.9356922 9.25608743,12.7993144 C9.3275875,12.619237 9.24299802,12.4137557 9.06709403,12.3405704 L5.70645666,10.9420995 L9.07245659,9.47181698 C9.24701253,9.39553526 9.32824771,9.18868148 9.25371593,9.01001143 C9.17888122,8.83098903 8.97544976,8.74854993 8.80254406,8.82447931 L4.67754406,10.6263477 C4.5499783,10.6820117 4.46740951,10.8108597 4.46875034,10.9531136 C4.4700908,11.0950146 4.55434392,11.2224908 4.68294073,11.2760771 Z" id="Shape"></path>
                        <path d="M9.82911861,14.3957021 C9.87442476,14.4163197 9.92175948,14.4259259 9.96840642,14.4259259 C10.1003372,14.4259259 10.2259094,14.3479208 10.2829721,14.2169964 L13.0329721,7.8836631 C13.1098419,7.70604801 13.0319401,7.49813861 12.8584155,7.41911272 C12.6852003,7.34043917 12.4820783,7.42083679 12.4045279,7.59778347 L9.65452788,13.9311168 C9.57766593,14.1087661 9.65555924,14.3166755 9.82911861,14.3957021 Z" id="Shape"></path>
                        <path d="M20.625,0 L1.375,0 C0.615587775,0 2.75e-07,0.630096331 2.75e-07,1.40740741 L2.75e-07,3.16666667 L2.75e-07,3.87037037 L2.75e-07,17.5925926 C2.75e-07,18.3698681 0.615587775,19 1.37500021,19 L20.6250002,19 C21.384412,19 22.0000002,18.3698681 22.0000002,17.5925926 L22.0000002,3.87037037 L22.0000002,3.16666667 L22.0000002,1.40740741 C22,0.630096331 21.3844118,0 20.625,0 Z M21.3125,17.5925926 C21.3125,17.9806143 21.004087,18.2962963 20.625,18.2962963 L1.375,18.2962963 C0.995912603,18.2962963 0.687500069,17.9806143 0.687500069,17.5925926 L0.687500069,3.87037037 L21.3125001,3.87037037 L21.3125001,17.5925926 L21.3125,17.5925926 Z M21.3125,3.16666667 L0.6875,3.16666667 L0.6875,1.40740741 C0.6875,1.01938522 0.995912534,0.703703704 1.37499993,0.703703704 L20.6249999,0.703703704 C21.0040869,0.703703704 21.3124999,1.01938522 21.3124999,1.40740741 L21.3124999,3.16666667 L21.3125,3.16666667 Z" id="Shape"></path>
                        <path d="M2.06250017,1.40740741 C1.73078153,1.40740741 1.46093767,1.68361104 1.46093767,2.02314815 C1.46093767,2.36265 1.73078153,2.63888889 2.06250017,2.63888889 C2.39421882,2.63888889 2.66406267,2.36265 2.66406267,2.02314815 C2.66406267,1.68361104 2.39421896,1.40740741 2.06250017,1.40740741 Z" id="Shape"></path>
                        <path d="M5.5,1.40740741 C5.16828153,1.40740741 4.8984375,1.68361104 4.8984375,2.02314815 C4.8984375,2.36265 5.16828153,2.63888889 5.5,2.63888889 C5.83171848,2.63888889 6.1015625,2.36265 6.1015625,2.02314815 C6.1015625,1.68361104 5.83171882,1.40740741 5.5,1.40740741 Z" id="Shape"></path>
                        <path d="M3.78125034,1.40740741 C3.44953152,1.40740741 3.17968784,1.68361104 3.17968784,2.02314815 C3.17968784,2.36265 3.44953152,2.63888889 3.78125034,2.63888889 C4.11296916,2.63888889 4.38281284,2.36265 4.38281284,2.02314815 C4.38281284,1.68361104 4.11296882,1.40740741 3.78125034,1.40740741 Z" id="Shape"></path>
                    </g>
                </g>
            </g>
        </g>
    </g>
</svg>