<?xml version="1.0" encoding="UTF-8"?>
<svg width="11px" height="22px" viewBox="0 0 11 22" version="1.1" xmlns="http://www.w3.org/2000/svg" xmlns:xlink="http://www.w3.org/1999/xlink">
    <!-- Generator: Sketch 41.2 (35397) - http://www.bohemiancoding.com/sketch -->
    <title>facebook</title>
    <desc>Created with Sketch.</desc>
    <defs></defs>
    <g id="Desktop" stroke="none" stroke-width="1" fill="none" fill-rule="evenodd">
        <g id="5.1---Messaging---Inbox" transform="translate(-35.000000, -429.000000)" fill="#767B7B">
            <g id="Menu" transform="translate(0.000000, 60.000000)">
                <g id="Active-(Hover)" transform="translate(0.000000, 360.000000)">
                    <path d="M42.1980627,31 L37.5568007,31 L37.5568007,21.1360585 L35,21.1360585 L35,16.6059904 L37.5567261,16.6059904 L37.5567261,14.0622064 C37.5567261,11.7268756 38.9891259,9 43.0277555,9 C44.451494,9 45.496674,9.13610006 45.5403538,9.14196447 L45.9688641,9.19878073 L45.8656752,13.4381415 L45.393485,13.4337242 C45.3925144,13.4337242 44.3315051,13.4234424 43.1741016,13.4234424 C42.3127503,13.4234424 42.1985107,13.6402733 42.1985107,14.5027228 L42.1985107,16.6069805 L46,16.6069805 L45.7893662,21.1370486 L42.1989587,21.1370486 L42.1989587,31 L42.1980627,31 L42.1980627,31 Z M38.515965,30.021024 L41.2377785,30.021024 L41.2377785,20.1576156 L44.8723137,20.1576156 L44.9923026,17.5849665 L41.2377785,17.5849665 L41.2377785,14.5017327 C41.2377785,13.4836098 41.4676016,12.4434763 43.1730563,12.4434763 C43.8583443,12.4434763 44.5095098,12.4469035 44.9283882,12.4503308 L44.9864786,10.0670946 C44.5627469,10.0284047 43.8578216,9.97897605 43.0267102,9.97897605 C39.7007711,9.97897605 38.5154424,12.0881081 38.5154424,14.0622064 L38.5154424,17.5849665 L35.9587909,17.5849665 L35.9587909,20.1576156 L38.515517,20.1576156 L38.515517,30.021024 L38.515965,30.021024 L38.515965,30.021024 Z" id="facebook"></path>
                </g>
            </g>
        </g>
    </g>
</svg>