<?xml version="1.0" encoding="UTF-8"?>
<svg width="22px" height="22px" viewBox="0 0 22 22" version="1.1" xmlns="http://www.w3.org/2000/svg" xmlns:xlink="http://www.w3.org/1999/xlink">
    <!-- Generator: Sketch 41.2 (35397) - http://www.bohemiancoding.com/sketch -->
    <title>faqs</title>
    <desc>Created with Sketch.</desc>
    <defs></defs>
    <g id="Desktop" stroke="none" stroke-width="1" fill="none" fill-rule="evenodd">
        <g id="7.1.-KoalaBot---FAQs" transform="translate(-30.000000, -90.000000)" fill="#0B61FF">
            <g id="Menu" transform="translate(0.000000, 60.000000)">
                <g id="Active-(Hover)" transform="translate(0.000000, 20.000000)">
                    <g id="faqs" transform="translate(30.000000, 10.000000)">
                        <path d="M20.2040816,0 L1.79591837,0 C0.805693878,0 0,0.804008147 0,1.79226069 L0,14.3380855 C0,15.3263381 0.80564898,16.1303462 1.79591837,16.1303462 L12.3469388,16.1303462 L12.3469388,21.5071283 C12.3469388,21.6916415 12.4602163,21.8572464 12.6324,21.9244562 C12.6855592,21.9452016 12.7409184,21.9552383 12.7958286,21.9552383 C12.9187592,21.9552383 13.0391306,21.9047862 13.1258286,21.8110509 L18.3802367,16.1303462 L20.2040816,16.1303462 C21.194351,16.1303462 22,15.3263381 22,14.3380855 L22,1.79226069 C22,0.804008147 21.1943959,0 20.2040816,0 Z M21.1020408,14.3380855 C21.1020408,14.8322118 20.6992163,15.2342159 20.2040816,15.2342159 L18.1836735,15.2342159 C18.0583633,15.2342159 17.9387551,15.2865051 17.8537633,15.3783585 L13.244898,20.361112 L13.244898,15.6822811 C13.244898,15.4348147 13.0438449,15.2342159 12.7959184,15.2342159 L1.79591837,15.2342159 C1.30078367,15.2342159 0.897959184,14.8322118 0.897959184,14.3380855 L0.897959184,1.79226069 C0.897959184,1.29813442 1.30078367,0.896130346 1.79591837,0.896130346 L20.2040816,0.896130346 C20.6992163,0.896130346 21.1020408,1.29813442 21.1020408,1.79226069 L21.1020408,14.3380855 Z" id="Shape"></path>
                        <path d="M9.65310612,9.18533605 L9.65310612,6.94501018 C9.65310612,4.96850509 8.04180816,3.3604888 6.06126939,3.3604888 C4.08073061,3.3604888 2.46943265,4.96850509 2.46943265,6.94501018 L2.46943265,9.18533605 C2.46943265,11.1618411 4.08073061,12.7698574 6.06126939,12.7698574 C6.89004082,12.7698574 7.65353061,12.4875316 8.26198776,12.0152261 L9.33563265,13.0866843 L9.97062449,12.4529857 L8.89697959,11.3815275 C9.37020408,10.7743544 9.65310612,10.0124196 9.65310612,9.18533605 Z M8.75514694,9.18533605 C8.75514694,9.76508758 8.56967347,10.3020937 8.25574694,10.7416456 L7.05221224,9.54056212 L6.41722041,10.1742607 L7.6207551,11.3753442 C7.18030612,11.6886762 6.64220408,11.8737271 6.06126939,11.8737271 C4.57586531,11.8737271 3.36739184,10.6677149 3.36739184,9.18533605 L3.36739184,6.94501018 C3.36739184,5.46263136 4.57586531,4.25661914 6.06126939,4.25661914 C7.54667347,4.25661914 8.75514694,5.46263136 8.75514694,6.94501018 L8.75514694,9.18533605 Z" id="Shape"></path>
                        <rect id="Rectangle-path" x="11.4490245" y="4.25661914" width="3.59183673" height="0.896130346"></rect>
                        <rect id="Rectangle-path" x="15.7142857" y="4.25661914" width="2.69387755" height="0.896130346"></rect>
                        <rect id="Rectangle-path" x="11.4490245" y="6.49694501" width="8.08163265" height="0.896130346"></rect>
                        <rect id="Rectangle-path" x="11.4490245" y="8.73727088" width="8.08163265" height="0.896130346"></rect>
                        <rect id="Rectangle-path" x="11.4490245" y="10.9775967" width="8.08163265" height="0.896130346"></rect>
                    </g>
                </g>
            </g>
        </g>
    </g>
</svg>