<?xml version="1.0" encoding="UTF-8"?>
<svg width="40px" height="40px" viewBox="0 0 40 40" version="1.1" xmlns="http://www.w3.org/2000/svg" xmlns:xlink="http://www.w3.org/1999/xlink">
    <!-- Generator: Sketch 41.2 (35397) - http://www.bohemiancoding.com/sketch -->
    <title>Group 7</title>
    <desc>Created with Sketch.</desc>
    <defs>
        <path d="M19.7674419,8.59090909 L18.6046512,8.59090909 L14.7906977,8.59090909 L10.2325581,8.59090909 L10.2325581,12.6477273 L15.7209302,12.6477273 C15.2093023,15.225 13.0697674,16.7045455 10.2325581,16.7045455 C6.88372093,16.7045455 4.18604651,13.9363636 4.18604651,10.5 C4.18604651,7.06363636 6.88372093,4.29545455 10.2325581,4.29545455 C11.6744186,4.29545455 12.9767442,4.82045455 14,5.67954545 L16.9767442,2.625 C15.1627907,1.00227273 12.8372093,0 10.2325581,0 C4.55813953,0 0,4.67727273 0,10.5 C0,16.3227273 4.55813953,21 10.2325581,21 C15.3488372,21 20,17.1818182 20,10.5 C20,9.87954545 19.9069767,9.21136364 19.7674419,8.59090909 L19.7674419,8.59090909 Z" id="path-1"></path>
        <path d="M19.7674419,8.59090909 L18.6046512,8.59090909 L14.7906977,8.59090909 L10.2325581,8.59090909 L10.2325581,12.6477273 L15.7209302,12.6477273 C15.2093023,15.225 13.0697674,16.7045455 10.2325581,16.7045455 C6.88372093,16.7045455 4.18604651,13.9363636 4.18604651,10.5 C4.18604651,7.06363636 6.88372093,4.29545455 10.2325581,4.29545455 C11.6744186,4.29545455 12.9767442,4.82045455 14,5.67954545 L16.9767442,2.625 C15.1627907,1.00227273 12.8372093,0 10.2325581,0 C4.55813953,0 0,4.67727273 0,10.5 C0,16.3227273 4.55813953,21 10.2325581,21 C15.3488372,21 20,17.1818182 20,10.5 C20,9.87954545 19.9069767,9.21136364 19.7674419,8.59090909 L19.7674419,8.59090909 Z" id="path-3"></path>
        <path d="M19.7674419,8.59090909 L18.6046512,8.59090909 L14.7906977,8.59090909 L10.2325581,8.59090909 L10.2325581,12.6477273 L15.7209302,12.6477273 C15.2093023,15.225 13.0697674,16.7045455 10.2325581,16.7045455 C6.88372093,16.7045455 4.18604651,13.9363636 4.18604651,10.5 C4.18604651,7.06363636 6.88372093,4.29545455 10.2325581,4.29545455 C11.6744186,4.29545455 12.9767442,4.82045455 14,5.67954545 L16.9767442,2.625 C15.1627907,1.00227273 12.8372093,0 10.2325581,0 C4.55813953,0 0,4.67727273 0,10.5 C0,16.3227273 4.55813953,21 10.2325581,21 C15.3488372,21 20,17.1818182 20,10.5 C20,9.87954545 19.9069767,9.21136364 19.7674419,8.59090909 L19.7674419,8.59090909 Z" id="path-5"></path>
        <path d="M19.7674419,8.59090909 L18.6046512,8.59090909 L14.7906977,8.59090909 L10.2325581,8.59090909 L10.2325581,12.6477273 L15.7209302,12.6477273 C15.2093023,15.225 13.0697674,16.7045455 10.2325581,16.7045455 C6.88372093,16.7045455 4.18604651,13.9363636 4.18604651,10.5 C4.18604651,7.06363636 6.88372093,4.29545455 10.2325581,4.29545455 C11.6744186,4.29545455 12.9767442,4.82045455 14,5.67954545 L16.9767442,2.625 C15.1627907,1.00227273 12.8372093,0 10.2325581,0 C4.55813953,0 0,4.67727273 0,10.5 C0,16.3227273 4.55813953,21 10.2325581,21 C15.3488372,21 20,17.1818182 20,10.5 C20,9.87954545 19.9069767,9.21136364 19.7674419,8.59090909 L19.7674419,8.59090909 Z" id="path-7"></path>
    </defs>
    <g id="Desktop" stroke="none" stroke-width="1" fill="none" fill-rule="evenodd">
        <g id="3.2.-Onboarding---Fill-up-User-Profile" transform="translate(-447.000000, -450.000000)">
            <g id="Group-3" transform="translate(447.000000, 450.000000)">
                <g id="Group">
                    <g id="Group-7">
                        <rect id="Base" fill="#F8F8F8" x="0" y="0" width="40" height="40"></rect>
                        <g id="google_plus_colored" transform="translate(11.000000, 10.000000)">
                            <g id="Clipped">
                                <mask id="mask-2" fill="white">
                                    <use xlink:href="#path-1"></use>
                                </mask>
                                <g id="SVGID_1_"></g>
                                <polygon id="Shape" fill="#FBBC05" mask="url(#mask-2)" points="-0.930232558 16.7045455 -0.930232558 4.29545455 6.97674419 10.5"></polygon>
                            </g>
                            <g id="Clipped">
                                <mask id="mask-4" fill="white">
                                    <use xlink:href="#path-3"></use>
                                </mask>
                                <g id="SVGID_1_"></g>
                                <polygon id="Shape" fill="#EA4335" mask="url(#mask-4)" points="-0.930232558 4.29545455 6.97674419 10.5 10.2325581 7.58863636 21.3953488 5.72727273 21.3953488 -0.954545455 -0.930232558 -0.954545455"></polygon>
                            </g>
                            <g id="Clipped">
                                <mask id="mask-6" fill="white">
                                    <use xlink:href="#path-5"></use>
                                </mask>
                                <g id="SVGID_1_"></g>
                                <polygon id="Shape" fill="#34A853" mask="url(#mask-6)" points="-0.930232558 16.7045455 13.0232558 5.72727273 16.6976744 6.20454545 21.3953488 -0.954545455 21.3953488 21.9545455 -0.930232558 21.9545455"></polygon>
                            </g>
                            <g id="Clipped">
                                <mask id="mask-8" fill="white">
                                    <use xlink:href="#path-7"></use>
                                </mask>
                                <g id="SVGID_1_"></g>
                                <polygon id="Shape" fill="#4285F4" mask="url(#mask-8)" points="21.3953488 21.9545455 6.97674419 10.5 5.11627907 9.06818182 21.3953488 4.29545455"></polygon>
                            </g>
                        </g>
                    </g>
                </g>
            </g>
        </g>
    </g>
</svg>