<?xml version="1.0" encoding="UTF-8"?>
<svg width="25px" height="20px" viewBox="0 0 25 20" version="1.1" xmlns="http://www.w3.org/2000/svg" xmlns:xlink="http://www.w3.org/1999/xlink">
    <!-- Generator: Sketch 41.2 (35397) - http://www.bohemiancoding.com/sketch -->
    <title>growthhacks</title>
    <desc>Created with Sketch.</desc>
    <defs></defs>
    <g id="Desktop" stroke="none" stroke-width="1" fill="none" fill-rule="evenodd">
        <g id="4.1.-Measure-(Analytics-Dashboard)" transform="translate(-1110.000000, -580.000000)" fill="#0B61FF">
            <g id="Group-Copy-7" transform="translate(240.000000, 520.000000)">
                <path d="M894.970612,66.8387757 C894.927076,66.7279766 894.839041,66.6405364 894.727938,66.5978909 L889.073536,64.4262513 L888.970348,64.3230311 L889.690287,63.6028653 C890.094161,63.1988643 890.094161,62.541479 889.690287,62.137478 L887.856826,60.3034956 C887.661193,60.1078015 887.401047,60 887.124334,60 C886.847622,60 886.587476,60.1078015 886.391843,60.3034956 L885.671961,61.0236615 L885.479212,60.8308518 C885.313603,60.6651905 885.045089,60.6651905 884.879536,60.8308518 L881.041576,64.6700206 C880.962023,64.7495991 880.917355,64.8574572 880.917355,64.969953 C880.917355,65.0824489 880.962023,65.1903635 881.041576,65.2698854 L881.234325,65.4626951 L879.220215,67.47744 C878.785074,67.9127181 878.54517,68.4919955 878.544661,69.1087715 C878.544661,69.301468 878.507287,69.4889611 878.433275,69.6669523 C878.359714,69.845 878.253587,70.004044 878.117888,70.1397856 L873.362604,74.8965677 C873.126318,75.1329278 872.800188,75.252437 872.467048,75.2244968 C872.177048,75.2005158 871.892476,75.2390325 871.622435,75.3383501 C871.353865,75.4364234 871.104801,75.5953542 870.902214,75.7980052 L870.364903,76.335542 C869.878366,76.8222322 869.878366,77.6141149 870.364903,78.1008051 L871.898583,79.6349682 C872.141879,79.878285 872.461394,80 872.780964,80 C873.100535,80 873.42005,79.8783416 873.663346,79.6349682 L884.532769,68.7621213 L884.635957,68.8653415 L886.806856,74.5214684 C886.849488,74.6326068 886.9369,74.7207258 887.047665,74.7642196 C887.09759,74.7838456 887.150174,74.7935738 887.202757,74.7935738 C887.266762,74.7935738 887.330597,74.7790947 887.389286,74.7503061 C890.664661,73.1452181 893.352177,70.4568554 894.956816,67.1804487 C895.009117,67.0736087 895.014149,66.9495748 894.970612,66.8387757 Z M886.991632,60.9033605 C887.039466,60.8555115 887.095329,60.8483285 887.124391,60.8483285 C887.153453,60.8483285 887.209316,60.855455 887.25715,60.9033605 L889.090611,62.7373994 C889.163775,62.8106433 889.163775,62.9298131 889.090611,63.0030005 L888.370672,63.7231663 L886.271693,61.6235263 L886.991632,60.9033605 Z M873.063614,79.0351033 C872.90773,79.1910365 872.654143,79.19098 872.498259,79.0351033 L870.964579,77.5009969 C870.808751,77.3450637 870.808751,77.0913965 870.964579,76.9354633 L871.50189,76.3979265 C871.619382,76.2804535 871.757738,76.1921083 871.914131,76.1349837 C872.068545,76.0781985 872.231214,76.0562536 872.396767,76.0699409 C872.978406,76.1188644 873.549133,75.9098223 873.962336,75.4964891 L878.71762,70.739707 C878.93259,70.5246696 879.10063,70.2728124 879.216709,69.9919403 C879.333523,69.7109552 879.392779,69.4138507 879.392779,69.1091108 C879.393061,68.7190233 879.544761,68.3525775 879.819891,68.0773614 L881.834001,66.0626165 L883.933036,68.1622565 L873.063614,79.0351033 Z M887.429883,73.7779437 L887.170189,73.1013848 C888.80864,72.1642587 890.262484,70.9637372 891.495873,69.528609 C891.648535,69.3509571 891.628349,69.0831502 891.450753,68.9304409 C891.273214,68.7777316 891.005435,68.7979232 890.852717,68.975575 C889.711264,70.3038067 888.370163,71.4195462 886.862153,72.298756 L885.395361,68.4771205 C885.374045,68.4216361 885.341308,68.371242 885.299298,68.3292187 L881.94109,64.969953 L885.179317,61.7307056 L888.537525,65.0899712 C888.579535,65.1319946 888.629913,65.1647422 888.68538,65.1860084 L892.505812,66.6532622 C892.379612,66.8696569 892.248776,67.0836762 892.113247,67.2924355 C891.985746,67.4889215 892.041552,67.7516381 892.237977,67.8792352 C892.309332,67.925557 892.389394,67.9477282 892.468552,67.9477282 C892.60736,67.9477282 892.743342,67.8796311 892.824591,67.754466 C892.992349,67.4960479 893.153887,67.2302772 893.307792,66.9612825 L893.984534,67.2211712 C892.515763,70.0049489 890.212784,72.3086538 887.429883,73.7779437 Z" id="growthhacks"></path>
            </g>
        </g>
    </g>
</svg>