<?xml version="1.0" encoding="UTF-8"?>
<svg width="19px" height="22px" viewBox="0 0 19 22" version="1.1" xmlns="http://www.w3.org/2000/svg" xmlns:xlink="http://www.w3.org/1999/xlink">
    <!-- Generator: Sketch 41.2 (35397) - http://www.bohemiancoding.com/sketch -->
    <title>helpintegrations</title>
    <desc>Created with Sketch.</desc>
    <defs></defs>
    <g id="Desktop" stroke="none" stroke-width="1" fill="none" fill-rule="evenodd">
        <g id="8.1.1.-Apps---Chatbot-Integrations" transform="translate(-31.000000, -129.000000)" fill="#76767B">
            <g id="Top-Bar">
                <g id="Menu" transform="translate(0.000000, 60.000000)">
                    <g id="Active-(Hover)" transform="translate(0.000000, 60.000000)">
                        <path d="M48.2567076,25.6013633 L48.1791808,25.5785469 C47.0566116,25.273082 46.6775871,24.9796484 46.177904,24.7869766 C44.4046272,24.1028281 43.9433683,23.609375 43.8254241,23.3770859 C43.8214375,23.3683633 43.8181295,23.3596406 43.8141429,23.350918 L43.8108348,22.8084375 C44.1673393,22.4505937 44.506625,22.0490937 44.8154598,21.6140352 C46.2852455,21.2071641 47.055933,20.3051641 47.2905067,19.4313516 C47.4687589,18.7663242 47.3521295,18.1030156 47.0009263,17.5900547 L47.1162411,17.1486367 C47.7881964,14.5768711 47.5880603,12.5617227 46.5211763,11.1581914 C46.1891853,10.7211133 45.8015089,10.3834219 45.3986071,10.1215703 C45.2156897,9.97822656 43.8751295,9 41.323192,9 C40.3762455,9 39.3669978,9.13595313 38.3236094,9.40416406 C36.9406384,9.75934375 35.8495379,10.5354453 35.0798683,11.7100391 C34.4510022,12.6697891 34.0368192,13.9017891 33.8483036,15.3711055 C33.5269152,17.8790625 33.9367723,20.5609141 34.2097701,21.9362578 L34.6965179,24.3868086 L35.0997589,21.9201445 C35.1014129,21.9100898 35.2031562,21.3078398 35.4894286,20.459207 C35.9387277,21.3494766 36.536125,22.1524336 37.1898437,22.8083945 L37.1861964,23.350875 C37.1822098,23.3595977 37.1789018,23.3683203 37.1749152,23.377043 C37.056971,23.609332 36.5957545,24.1028281 34.8227746,24.7869336 C34.3231339,24.9796055 33.9434308,25.2729961 32.8208616,25.5785039 L32.7436741,25.6013203 C31.7218304,25.9430508 31.0343103,26.9031445 31.0343103,27.9867734 L31.0343103,31 L40.5001696,31 L49.9657321,31 L49.9657321,27.9868164 C49.9656897,26.9031875 49.2785089,25.9430937 48.2567076,25.6013633 Z M46.417779,19.1909844 C46.3071295,19.601207 46.0214933,19.9771836 45.6053594,20.2658906 C45.925433,19.5904648 46.158692,18.8687188 46.2667121,18.1245 C46.4628616,18.4182344 46.5224911,18.798207 46.417779,19.1909844 Z M45.8041808,11.7174297 C46.5277924,12.6694453 46.7583795,14.0092109 46.4946696,15.7101719 C46.3906362,15.5671719 46.2706987,15.4194453 46.1328638,15.2724062 C45.7511674,14.8645469 45.1852388,14.4130312 44.3834219,14.0961367 L45.3575536,11.235707 C45.5165937,11.377375 45.6676607,11.5364883 45.8041808,11.7174297 Z M34.7809576,19.7415 C34.6345134,18.4725898 34.5589799,16.9448359 34.7455022,15.4892695 C34.9161205,14.1599023 35.2819129,13.0588711 35.8335915,12.2169414 C36.4750536,11.2377266 37.3878594,10.5901875 38.5458839,10.2924141 C39.5167076,10.0429805 40.4513973,9.9164375 41.3231071,9.9164375 C42.5510246,9.9164375 43.4436429,10.1698672 43.9764062,10.3827344 C44.2414732,10.4884805 44.4455536,10.5945703 44.5900469,10.678832 L43.5006004,13.8773398 C43.1308214,13.8353594 42.7677009,13.8142188 42.4158192,13.8142188 C40.8323728,13.8142188 39.4109353,14.2388789 38.1909911,15.0764258 C37.2211853,15.7420977 36.3815804,16.6662695 35.6950357,17.8230742 C35.2995558,18.4897344 35.0019598,19.1533867 34.7809576,19.7415 Z M35.9598906,19.2718945 C36.1099821,18.9455898 36.2839509,18.6082422 36.4843839,18.2721836 C37.1029866,17.23625 37.8521295,16.4134414 38.7109464,15.8266602 C39.7758371,15.099543 41.0223304,14.730957 42.415904,14.730957 C42.8353884,14.730957 43.274721,14.7645156 43.7226629,14.8303008 C44.3170915,15.0112422 44.8313214,15.2992617 45.2633594,15.6933711 C45.3733728,16.1730742 45.4290156,16.6799766 45.4290156,17.2083633 C45.4290156,18.3890156 45.0148326,19.6542305 44.2693371,20.8023125 C43.949942,20.8674531 43.6039978,20.9056953 43.2355759,20.915793 C43.0208929,20.4938398 42.5086138,20.2010938 41.9128705,20.2010938 C41.8942946,20.2010938 41.8750826,20.2014375 41.8558705,20.202082 C41.0543929,20.2265742 40.4205223,20.7721055 40.4400737,21.4193008 C40.4592857,22.0517578 41.0941317,22.5485625 41.8704598,22.5485625 C41.8890357,22.5485625 41.9075692,22.5485625 41.9267812,22.5472305 C42.5066205,22.5297852 42.9996451,22.2390586 43.2196295,21.834207 C43.311067,21.831543 43.4005536,21.8288359 43.488683,21.8234648 C42.9896786,22.3820586 42.4377031,22.8506758 41.8863638,23.1823516 C41.3675112,23.4945625 40.8751228,23.6664375 40.5000424,23.6664375 C40.1249621,23.6664375 39.6326161,23.4945625 39.113721,23.1823516 C38.5318884,22.8332305 37.9500558,22.3310547 37.4305246,21.7314688 C36.7756607,20.974875 36.2756808,20.1309258 35.9598906,19.2718945 Z M42.4384665,21.3575547 C42.4391451,21.3756875 42.4179397,21.4213203 42.3569531,21.4736992 C42.2469397,21.5683594 42.0799687,21.6261094 41.8997232,21.6314805 L41.8705446,21.6314805 C41.5299442,21.6314805 41.3463906,21.4535469 41.3443973,21.3918008 C41.3443973,21.373668 41.3656027,21.3280352 41.4259107,21.2756563 C41.5359241,21.1816406 41.7028951,21.1239336 41.8838192,21.1185625 C41.8931071,21.117875 41.9037098,21.117875 41.9129978,21.117875 C42.2529196,21.117875 42.4364732,21.2957656 42.4384665,21.3575547 Z M40.5001696,30.082875 L31.9391853,30.082875 L31.9391853,27.9868164 C31.9391853,27.304 32.3702478,26.6990859 33.0133638,26.476207 L33.0640446,26.4614258 C33.9099263,26.2304688 34.3771228,26.0041953 34.7525,25.8222656 C34.8976295,25.7517539 35.0228683,25.6906953 35.1451384,25.6436875 C36.1580335,25.2529297 37.554279,24.6352539 37.9790223,23.7960312 C37.9956049,23.7638047 38.0075223,23.7362617 38.0141384,23.7208359 L38.0757612,23.5811875 C38.9166808,24.2123125 39.7814777,24.582875 40.5001272,24.582875 C41.2184799,24.582875 42.0839129,24.2122695 42.924154,23.5811875 L42.9864554,23.7208359 C42.9924353,23.7349297 43.0043527,23.7631172 43.0208929,23.7953437 C43.4463147,24.6352539 44.8419241,25.2529297 45.8557946,25.6436875 C45.9777254,25.6906953 46.1022857,25.7517969 46.2480937,25.8222656 C46.6231741,26.0041953 47.0903281,26.2304688 47.9365491,26.4614258 L47.986933,26.476207 C48.6297098,26.6991289 49.0611116,27.304043 49.0611116,27.9868164 L49.0611116,30.082875 L40.5001696,30.082875 Z" id="helpintegrations"></path>
                    </g>
                </g>
            </g>
        </g>
    </g>
</svg>