<?xml version="1.0" encoding="UTF-8"?>
<svg width="18px" height="20px" viewBox="0 0 18 20" version="1.1" xmlns="http://www.w3.org/2000/svg" xmlns:xlink="http://www.w3.org/1999/xlink">
    <!-- Generator: Sketch 41.2 (35397) - http://www.bohemiancoding.com/sketch -->
    <title>helpintegrations</title>
    <desc>Created with Sketch.</desc>
    <defs></defs>
    <g id="Iconography" stroke="none" stroke-width="1" fill="none" fill-rule="evenodd">
        <g id="Icons" transform="translate(-81.000000, -240.000000)">
            <g id="helpintegrations" transform="translate(80.000000, 240.000000)">
                <rect id="Rectangle" fill-opacity="0" fill="#D8D8D8" x="0" y="0" width="20" height="20"></rect>
                <g transform="translate(1.500000, 0.000000)" id="Desktop" fill="#76767B">
                    <g>
                        <g id="8.1.1.-Apps---Chatbot-Integrations">
                            <g id="Top-Bar">
                                <g id="Menu">
                                    <g id="Active-(Hover)">
                                        <path d="M15.4402121,15.0921485 L15.370846,15.0714063 C14.366442,14.7937109 14.0273148,14.5269531 13.5802299,14.3517969 C11.9936138,13.7298437 11.5809085,13.28125 11.4753795,13.0700781 C11.4718125,13.0621485 11.4688527,13.0542187 11.4652858,13.0462891 L11.4623259,12.553125 C11.7813036,12.2278125 12.084875,11.8628125 12.3612009,11.4673047 C13.6762723,11.0974219 14.3658348,10.2774219 14.5757165,9.48304691 C14.7352053,8.87847655 14.6308527,8.27546873 14.3166183,7.80914064 L14.4197947,7.40785155 C15.0210178,5.06988282 14.8419487,3.23792973 13.8873683,1.96199218 C13.5903237,1.56464845 13.2434553,1.25765627 12.8829642,1.01960936 C12.7193013,0.889296873 11.5198527,0 9.23654021,0 C8.38927229,0 7.48626119,0.123593755 6.55270315,0.367421873 C5.31530804,0.6903125 4.33906023,1.39585936 3.65040848,2.46367191 C3.08773881,3.33617191 2.71715402,4.45617191 2.54848217,5.79191409 C2.26092413,8.071875 2.62763837,10.5099219 2.87189956,11.7602344 L3.30741075,13.9880078 L3.66820533,11.7455859 C3.66968523,11.7364453 3.76071871,11.1889453 4.01685717,10.4174609 C4.41886163,11.2267969 4.953375,11.9567578 5.53828121,12.5530859 L5.53501783,13.04625 C5.53145087,13.0541797 5.52849108,13.0621094 5.52492413,13.0700391 C5.41939511,13.2812109 5.00672771,13.7298437 3.42037727,14.3517578 C2.97333033,14.5269141 2.63359598,14.7936328 1.62919196,15.0713672 L1.56012946,15.0921094 C0.645848253,15.4027735 0.0306986895,16.2755859 0.0306986895,17.2607031 L0.0306986895,20 L8.50015175,20 L16.9693392,20 L16.9693392,17.2607422 C16.9693013,16.275625 16.3544553,15.4028125 15.4402121,15.0921485 Z M13.7948549,9.26453127 C13.6958527,9.63746091 13.4402835,9.97925782 13.0679531,10.2417187 C13.3543348,9.62769527 13.5630402,8.97156255 13.6596898,8.295 C13.835192,8.56203127 13.8885447,8.90746091 13.7948549,9.26453127 Z M13.245846,2.47039064 C13.8932879,3.33585936 14.0996027,4.55382809 13.8636517,6.10015627 C13.7705692,5.97015627 13.6632567,5.83585936 13.5399308,5.70218745 C13.1984129,5.33140627 12.6920558,4.92093745 11.9746406,4.63285155 L12.8462322,2.03246091 C12.9885312,2.16125 13.1236964,2.30589845 13.245846,2.47039064 Z M3.38296206,9.765 C3.25193304,8.61144527 3.18435044,7.22257809 3.35123881,5.89933591 C3.50389729,4.69082027 3.83118523,3.68988282 4.32479239,2.92449218 C4.89873217,2.03429691 5.71545315,1.445625 6.75158033,1.17492191 C7.62021206,0.948164091 8.45651337,0.833125 9.23646425,0.833125 C10.3351273,0.833125 11.1337858,1.06351564 11.6104687,1.25703127 C11.8476339,1.35316409 12.0302322,1.44960936 12.1595156,1.52621091 L11.1847477,4.43394527 C10.8538928,4.39578127 10.5289955,4.37656255 10.214154,4.37656255 C8.79738619,4.37656255 7.52557369,4.76261718 6.43404467,5.52402345 C5.56632369,6.12917973 4.81509825,6.96933591 4.20082142,8.02097655 C3.84697098,8.62703127 3.58070087,9.23035155 3.38296206,9.765 Z M4.43779685,9.33808591 C4.57208925,9.04144527 4.72774554,8.73476564 4.90708033,8.42925782 C5.46056696,7.4875 6.13085271,6.73949218 6.89926783,6.20605473 C7.85206477,5.54503909 8.96734825,5.20996091 10.2142299,5.20996091 C10.589558,5.20996091 10.9826451,5.24046873 11.3834352,5.30027345 C11.9152924,5.46476564 12.3753928,5.72660155 12.7619531,6.08488282 C12.8603862,6.52097655 12.9101719,6.98179691 12.9101719,7.46214845 C12.9101719,8.53546873 12.5395871,9.68566409 11.8725648,10.729375 C11.5867902,10.7885937 11.2772612,10.8233594 10.9476205,10.8325391 C10.7555358,10.4489453 10.2971808,10.1828125 9.76414729,10.1828125 C9.74752675,10.1828125 9.73033706,10.183125 9.71314729,10.1837109 C8.99603575,10.2059765 8.42888837,10.7019141 8.44638173,11.2902735 C8.46357142,11.8652344 9.03159152,12.316875 9.72620087,12.316875 C9.74282142,12.316875 9.75940402,12.316875 9.77659371,12.3156641 C10.2953973,12.2998047 10.7365246,12.0355078 10.9333527,11.6674609 C11.0151652,11.6650391 11.0952322,11.6625781 11.1740848,11.6576953 C10.7276072,12.1655078 10.2337344,12.5915235 9.74043077,12.8930469 C9.27619423,13.176875 8.83563619,13.333125 8.50003794,13.333125 C8.16443977,13.333125 7.72391967,13.176875 7.25964511,12.8930469 C6.73905804,12.5756641 6.21847098,12.1191406 5.75362727,11.5740625 C5.16769642,10.88625 4.72034598,10.1190235 4.43779685,9.33808591 Z M10.2344174,11.2341406 C10.2350246,11.250625 10.2160513,11.2921094 10.1614844,11.3397265 C10.0630513,11.4257813 9.91365621,11.4782813 9.75238392,11.4831641 L9.72627675,11.4831641 C9.42152902,11.4831641 9.25729685,11.3214063 9.25551337,11.2652735 C9.25551337,11.2487891 9.27448663,11.2073047 9.32844642,11.1596875 C9.42687946,11.0742187 9.57627456,11.0217578 9.73815402,11.016875 C9.74646425,11.01625 9.75595087,11.01625 9.76426119,11.01625 C10.0684017,11.01625 10.2326339,11.1779687 10.2344174,11.2341406 Z M8.50015175,19.16625 L0.840323689,19.16625 L0.840323689,17.2607422 C0.840323689,16.64 1.22601119,16.0900781 1.80143077,15.8874609 L1.84677675,15.8740235 C2.60361827,15.6640625 3.02163619,15.4583594 3.3575,15.2929687 C3.48735271,15.2288672 3.59940848,15.1733594 3.70880804,15.130625 C4.61508261,14.7753906 5.86435489,14.2138672 6.24438837,13.4509375 C6.25922544,13.4216406 6.26988837,13.3966015 6.27580804,13.3825781 L6.33094423,13.255625 C7.08334598,13.829375 7.85711163,14.16625 8.50011381,14.16625 C9.14285044,14.16625 9.91718523,13.8293359 10.6689799,13.255625 L10.7247233,13.3825781 C10.7300737,13.3953906 10.7407366,13.4210156 10.7555358,13.4503125 C11.1361763,14.2138672 12.3848795,14.7753906 13.2920267,15.130625 C13.4011227,15.1733594 13.5125714,15.2289063 13.6430312,15.2929687 C13.9786295,15.4583594 14.3966094,15.6640625 15.1537545,15.8740235 L15.1988348,15.8874609 C15.7739509,16.0901172 16.159942,16.6400391 16.159942,17.2607422 L16.159942,19.16625 L8.50015175,19.16625 Z" id="helpintegrations"></path>
                                    </g>
                                </g>
                            </g>
                        </g>
                    </g>
                </g>
            </g>
        </g>
    </g>
</svg>