<?xml version="1.0" encoding="UTF-8"?>
<svg width="22px" height="22px" viewBox="0 0 22 22" version="1.1" xmlns="http://www.w3.org/2000/svg" xmlns:xlink="http://www.w3.org/1999/xlink">
    <!-- Generator: Sketch 41.2 (35397) - http://www.bohemiancoding.com/sketch -->
    <title>help</title>
    <desc>Created with Sketch.</desc>
    <defs></defs>
    <g id="Desktop" stroke="none" stroke-width="1" fill="none" fill-rule="evenodd">
        <g id="5.1---Messaging---Inbox" transform="translate(-30.000000, -849.000000)" fill="#767B7B">
            <g id="Menu" transform="translate(0.000000, 60.000000)">
                <g id="Active-(Hover)" transform="translate(0.000000, 780.000000)">
                    <path d="M48.7781917,12.2218083 C46.7005208,10.1441833 43.9381917,9 41,9 C38.0618083,9 35.2994792,10.1441833 33.2218083,12.2218083 C31.1441375,14.2994333 30,17.0618083 30,20 C30,22.9381917 31.1441833,25.7005667 33.2218083,27.7781917 C35.2994333,29.8558167 38.0618083,31 41,31 C43.9381917,31 46.7005208,29.8558167 48.7781917,27.7781917 C50.8558625,25.7005667 52,22.9381917 52,20 C52,17.0618083 50.8558167,14.2994333 48.7781917,12.2218083 L48.7781917,12.2218083 Z M50.6054292,16.9184417 L45.9354708,16.9184417 C45.466,16.1692042 44.8308417,15.5340458 44.0816042,15.064575 L44.0816042,10.3945708 C45.5921792,10.8773333 46.9763917,11.7163583 48.1300167,12.8699833 C49.2836417,14.0236542 50.1226667,15.4078667 50.6054292,16.9184417 L50.6054292,16.9184417 Z M51.0833333,20 C51.0833333,20.7369542 51.0042708,21.4616708 50.8511875,22.1648917 L46.4025583,22.1648917 C46.6718292,21.4953125 46.820375,20.7647292 46.820375,20 C46.820375,19.2352708 46.6718292,18.5046417 46.4025583,17.8351083 L50.8511875,17.8351083 C51.0042708,18.5383292 51.0833333,19.2630458 51.0833333,20 L51.0833333,20 Z M41,24.9037083 C38.2960625,24.9037083 36.0962458,22.7039375 36.0962458,20 C36.0962458,17.2960625 38.2960625,15.0962917 41,15.0962917 C43.7039375,15.0962917 45.9037083,17.2960625 45.9037083,20 C45.9037083,22.7039375 43.7039375,24.9037083 41,24.9037083 L41,24.9037083 Z M30.9166667,20 C30.9166667,19.2630458 30.9957292,18.5383292 31.1488125,17.8351083 L35.5973958,17.8351083 C35.328125,18.5046875 35.1795792,19.2352708 35.1795792,20 C35.1795792,20.7647292 35.328125,21.4953583 35.5973958,22.1648917 L31.1488125,22.1648917 C30.9957292,21.4616708 30.9166667,20.7369542 30.9166667,20 L30.9166667,20 Z M43.1648917,10.1488125 L43.1648917,14.5974417 C42.4953125,14.3281708 41.7647292,14.179625 41,14.179625 C40.2352708,14.179625 39.5046417,14.3281708 38.8351083,14.5974417 L38.8351083,10.1488125 C39.5383292,9.99572917 40.2630458,9.91666667 41,9.91666667 C41.7369542,9.91666667 42.4616708,9.99572917 43.1648917,10.1488125 L43.1648917,10.1488125 Z M33.8700292,12.8700292 C35.0237,11.7164042 36.4078667,10.8773792 37.9184417,10.3946167 L37.9184417,15.064575 C37.1692042,15.5340917 36.5340458,16.1692042 36.0645292,16.9184417 L31.3945708,16.9184417 C31.8773333,15.4078667 32.7163583,14.0236542 33.8700292,12.8700292 L33.8700292,12.8700292 Z M31.3945708,23.0815583 L36.0645292,23.0815583 C36.5340458,23.8307958 37.1692042,24.4659542 37.9184417,24.935425 L37.9184417,29.6053833 C36.4078667,29.1226208 35.0236542,28.2835958 33.8700292,27.1299708 C32.7163583,25.9763458 31.8773333,24.5921333 31.3945708,23.0815583 L31.3945708,23.0815583 Z M38.8351083,29.8511875 L38.8351083,25.4025583 C39.5046875,25.6718292 40.2352708,25.820375 41,25.820375 C41.7647292,25.820375 42.4953583,25.6718292 43.1648917,25.4025583 L43.1648917,29.8511875 C42.4616708,30.0042708 41.7369542,30.0833333 41,30.0833333 C40.2630458,30.0833333 39.5383292,30.0042708 38.8351083,29.8511875 L38.8351083,29.8511875 Z M48.1299708,27.1299708 C46.9763,28.2835958 45.5921333,29.1226208 44.0815583,29.6053833 L44.0815583,24.935425 C44.8307958,24.4659083 45.4659542,23.8307958 45.935425,23.0815583 L50.6053833,23.0815583 C50.1226667,24.5921333 49.2836417,25.9763458 48.1299708,27.1299708 L48.1299708,27.1299708 Z" id="help"></path>
                </g>
            </g>
        </g>
    </g>
</svg>