<?xml version="1.0" encoding="UTF-8"?>
<svg width="22px" height="21px" viewBox="0 0 22 21" version="1.1" xmlns="http://www.w3.org/2000/svg" xmlns:xlink="http://www.w3.org/1999/xlink">
    <!-- Generator: Sketch 41.2 (35397) - http://www.bohemiancoding.com/sketch -->
    <title>Combined Shape</title>
    <desc>Created with Sketch.</desc>
    <defs></defs>
    <g id="Desktop" stroke="none" stroke-width="1" fill="none" fill-rule="evenodd">
        <g id="5.1---Messaging---Inbox" transform="translate(-30.000000, -126.000000)" fill="#0B61FF">
            <g id="Menu" transform="translate(0.000000, 60.000000)">
                <g id="List-View-(Active)" transform="translate(0.000000, 57.000000)">
                    <path d="M51.7043051,20.9066182 L51.6599322,20.7901636 L51.6453898,20.4942545 L51.4865424,20.4942545 L47.7629492,14.7669818 L43.4617627,14.7669818 L43.4617627,15.5306182 L47.3639661,15.5306182 L50.6002034,20.4942545 L44.5804068,20.4942545 L44.5804068,23.1669818 L37.1227797,23.1669818 L37.1227797,20.4942545 L31.1029831,20.4942545 L34.3392203,15.5306182 L38.2414237,15.5306182 L38.2414237,14.7669818 L33.9398644,14.7669818 L30.1987458,20.5060909 L30.0380339,20.5144909 L30.0380339,20.823 L30,20.9188364 L30.0380339,20.9738182 L30.0380339,28.3654364 C30.0380339,29.0779091 30.6044407,29.6575091 31.3002373,29.6575091 L50.4029492,29.6575091 C51.0987458,29.6575091 51.6651525,29.0779091 51.6651525,28.3654364 L51.6651525,20.9673273 L51.7043051,20.9066182 L51.7043051,20.9066182 Z M50.9193898,28.3654364 C50.9193898,28.6567636 50.6878305,28.8938727 50.4029492,28.8938727 L31.2998644,28.8938727 C31.0149831,28.8938727 30.7834237,28.6567636 30.7834237,28.3654364 L30.7834237,21.2578909 L36.3766441,21.2578909 L36.3766441,23.9306182 L45.3257966,23.9306182 L45.3257966,21.2578909 L50.9190169,21.2578909 L50.9190169,28.3654364 L50.9193898,28.3654364 Z M38.1321695,17.5512 C37.9863729,17.4019091 37.7507119,17.4019091 37.6049153,17.5512 C37.4591186,17.7004909 37.4591186,17.9418 37.6049153,18.0910909 L40.5875932,21.1452545 C40.5879661,21.1456364 40.5879661,21.1456364 40.588339,21.1460182 L40.8515932,21.4155818 L41.1148475,21.1460182 C41.1152203,21.1456364 41.1152203,21.1456364 41.1155932,21.1452545 L44.0982712,18.0910909 C44.2440678,17.9418 44.2440678,17.7004909 44.0982712,17.5512 C43.9524746,17.4019091 43.7168136,17.4019091 43.5710169,17.5512 L41.2244746,19.9539818 L41.2244746,9.42152727 C41.2244746,9.21076364 41.0577966,9.03970909 40.8515932,9.03970909 C40.6453898,9.03970909 40.4787119,9.21076364 40.4787119,9.42152727 L40.4787119,19.9543636 L38.1321695,17.5512 Z" id="Combined-Shape"></path>
                </g>
            </g>
        </g>
    </g>
</svg>