<?xml version="1.0" encoding="UTF-8"?>
<svg width="20px" height="20px" viewBox="0 0 20 20" version="1.1" xmlns="http://www.w3.org/2000/svg" xmlns:xlink="http://www.w3.org/1999/xlink">
    <!-- Generator: Sketch 41.2 (35397) - http://www.bohemiancoding.com/sketch -->
    <title>instagram</title>
    <desc>Created with Sketch.</desc>
    <defs></defs>
    <g id="Desktop" stroke="none" stroke-width="1" fill="none" fill-rule="evenodd">
        <g id="5.1---Messaging---Inbox" transform="translate(-31.000000, -550.000000)" fill="#767B7B">
            <g id="Menu" transform="translate(0.000000, 60.000000)">
                <g id="Active-(Hover)" transform="translate(0.000000, 480.000000)">
                    <path d="M47.7771569,12.6041806 L45.9419281,12.6041806 C45.3423856,12.6041806 44.8543137,13.1037124 44.8543137,13.7172575 L44.8543137,15.5949833 C44.8543137,16.2085284 45.3424183,16.7080602 45.9419281,16.7080602 L47.7771569,16.7080602 C48.3766667,16.7080602 48.8647712,16.2085284 48.8647712,15.5949833 L48.8647712,13.7172575 C48.8647712,13.1036789 48.3766667,12.6041806 47.7771569,12.6041806 L47.7771569,12.6041806 Z M47.9123856,15.5949833 C47.9123856,15.671505 47.8518954,15.7333779 47.7771569,15.7333779 L45.9419281,15.7333779 C45.8671569,15.7333779 45.8066667,15.6714716 45.8066667,15.5949833 L45.8066667,13.7172575 C45.8066667,13.6407358 45.8676144,13.5788629 45.9419281,13.5788629 L47.7771569,13.5788629 C47.8514052,13.5788629 47.9123856,13.6407692 47.9123856,13.7172575 L47.9123856,15.5949833 L47.9123856,15.5949833 Z M46.714281,10.0095652 L35.285719,10.0095652 C32.9228431,10.0095652 31,11.9774247 31,14.3956187 L31,25.6043813 C31,28.0226087 32.9228431,29.9904348 35.285719,29.9904348 L46.714281,29.9904348 C49.0771242,29.9904348 51,28.0226087 51,25.6043813 L51,14.3956187 C51,11.9774247 49.0771242,10.0095652 46.714281,10.0095652 L46.714281,10.0095652 Z M50.0476144,25.6043813 C50.0476144,27.4855184 48.5523529,29.0157525 46.714281,29.0157525 L35.285719,29.0157525 C33.4476144,29.0157525 31.9523856,27.4855184 31.9523856,25.6043813 L31.9523856,18.2943144 L36.7528758,18.2943144 C35.8443137,19.3304013 35.285719,20.6944482 35.285719,22.19301 C35.285719,25.4177592 37.8490523,28.0410702 41,28.0410702 C44.1509477,28.0410702 46.714281,25.4177258 46.714281,22.19301 C46.714281,20.6944482 46.1556863,19.3304013 45.2471242,18.2943144 L50.0476144,18.2943144 L50.0476144,25.6043813 L50.0476144,25.6043813 Z M41,17.3196321 C43.625719,17.3196321 45.7618954,19.5058528 45.7618954,22.19301 C45.7618954,24.8802341 43.625719,27.0664214 41,27.0664214 C38.374281,27.0664214 36.2381046,24.8802341 36.2381046,22.19301 C36.2381046,19.5058528 38.374281,17.3196321 41,17.3196321 L41,17.3196321 Z M50.0476144,17.3196321 L44.1518954,17.3196321 C43.2476144,16.7050836 42.1647386,16.3449498 41,16.3449498 C39.835719,16.3449498 38.7523856,16.7050836 37.8481046,17.3196321 L31.9523856,17.3196321 L31.9523856,14.3956187 C31.9523856,12.5144816 33.4476144,10.9842475 35.285719,10.9842475 L46.714281,10.9842475 C48.5523529,10.9842475 50.0476144,12.5144816 50.0476144,14.3956187 L50.0476144,17.3196321 L50.0476144,17.3196321 Z M41,25.6043813 C42.8381046,25.6043813 44.3333333,24.0741472 44.3333333,22.19301 C44.3333333,20.3119398 42.8381046,18.7816388 41,18.7816388 C39.1618954,18.7816388 37.6666667,20.3119064 37.6666667,22.19301 C37.6666667,24.0741472 39.1618954,25.6043813 41,25.6043813 L41,25.6043813 Z M41,19.7563545 C42.3128758,19.7563545 43.3809477,20.8494983 43.3809477,22.19301 C43.3809477,23.5366221 42.3128431,24.629699 41,24.629699 C39.6871569,24.629699 38.6190523,23.5365886 38.6190523,22.19301 C38.6190523,20.8494649 39.6871569,19.7563545 41,19.7563545 L41,19.7563545 Z" id="instagram"></path>
                </g>
            </g>
        </g>
    </g>
</svg>