<?xml version="1.0" encoding="UTF-8"?>
<svg width="40px" height="40px" viewBox="0 0 40 40" version="1.1" xmlns="http://www.w3.org/2000/svg" xmlns:xlink="http://www.w3.org/1999/xlink">
    <!-- Generator: Sketch 41.2 (35397) - http://www.bohemiancoding.com/sketch -->
    <title>instagram_white</title>
    <desc>Created with Sketch.</desc>
    <defs></defs>
    <g id="Desktop" stroke="none" stroke-width="1" fill="none" fill-rule="evenodd">
        <g id="10.1.-Profile---Overview" transform="translate(-1060.000000, -540.000000)">
            <g id="Profile" transform="translate(240.000000, 60.000000)">
                <g id="Group-3" transform="translate(820.000000, 300.000000)">
                    <g id="Group" transform="translate(0.000000, 180.000000)">
                        <g id="instagram_white">
                            <rect id="Base" fill="#8900E8" x="0" y="0" width="40" height="40"></rect>
                            <path d="M26,27.5 L14,27.5 C13.724,27.5 13.5,27.276 13.5,27 L13.5,19.5 L15.5,19.5 C15.2395,19.875 15.1515,20.5745 15.1515,21.0185 C15.1515,23.696 17.335,25.8745 20.0185,25.8745 C22.7025,25.8745 24.886,23.696 24.886,21.0185 C24.886,20.5745 24.823,19.8855 24.5,19.5 L26.5,19.5 L26.5,27 C26.5,27.276 26.276,27.5 26,27.5 M20.0185,17.949 C21.718,17.949 23.0955,19.3235 23.0955,21.0185 C23.0955,22.714 21.718,24.0885 20.0185,24.0885 C18.3195,24.0885 16.942,22.714 16.942,21.0185 C16.942,19.3235 18.3195,17.949 20.0185,17.949 M24,15 L25.5,15 C25.776,15 26,15.224 26,15.5 L26,17 C26,17.276 25.776,17.5 25.5,17.5 L24,17.5 C23.724,17.5 23.5,17.276 23.5,17 L23.5,15.5 C23.5,15.224 23.724,15 24,15 M26.098,13 L13.902,13 C12.8515,13 12,13.8495 12,14.8975 L12,27.1025 C12,28.1505 12.8515,29 13.902,29 L26.098,29 C27.1485,29 28,28.1505 28,27.1025 L28,14.8975 C28,13.8495 27.1485,13 26.098,13" id="Fill-23" fill="#FFFFFF"></path>
                        </g>
                    </g>
                </g>
            </g>
        </g>
    </g>
</svg>