<?xml version="1.0" encoding="UTF-8"?>
<svg width="686px" height="443px" viewBox="0 0 686 443" version="1.1" xmlns="http://www.w3.org/2000/svg" xmlns:xlink="http://www.w3.org/1999/xlink">
    <!-- Generator: Sketch 42 (36781) - http://www.bohemiancoding.com/sketch -->
    <title>Group</title>
    <desc>Created with Sketch.</desc>
    <defs>
        <linearGradient x1="50%" y1="0%" x2="50%" y2="100%" id="linearGradient-1">
            <stop stop-color="#199BFF" offset="0%"></stop>
            <stop stop-color="#0B61FF" offset="100%"></stop>
        </linearGradient>
        <linearGradient x1="50%" y1="0%" x2="50%" y2="100%" id="linearGradient-2">
            <stop stop-color="#62B8FF" offset="0%"></stop>
            <stop stop-color="#3381FF" offset="100%"></stop>
        </linearGradient>
    </defs>
    <g id="Desktop" stroke="none" stroke-width="1" fill="none" fill-rule="evenodd">
        <g id="2.2.-Register---Registration-Options" transform="translate(-40.000000, -42.000000)">
            <g id="Bg">
                <g id="Group" transform="translate(40.000000, 40.000000)">
                    <g id="Earth">
                        <path d="M587,249.264596 L587,249 L655.998123,249 C672.570157,249 686,235.568542 686,219 C686,202.427815 672.567702,189 655.998123,189 L611.003016,189 L584.493968,189 C567.928757,189 554.5,175.572185 554.5,159 C554.5,142.431458 567.938997,129 584.493968,129 L598.996776,129 L610.993551,129 C627.571821,129 641,115.568542 641,99 C641,82.4278145 627.565655,69 610.993551,69 L436.749531,69 L286.499062,69 L74.0018766,69 C57.4298433,69 44,82.4314575 44,99 C44,115.572185 57.4322977,129 74.0018766,129 L129,129 L129,129 L123.001877,129 C106.429843,129 93,142.431458 93,159 C93,175.572185 106.432298,189 123.001877,189 L126.000938,189 L129,189 L138.99563,189 C155.566586,189 169,202.427815 169,219 C169,235.568542 155.568478,249 138.99563,249 L90.2521852,249 L46.0018766,249 C29.4298433,249 16,262.431458 16,279 C16,295.572185 29.4322977,309 46.0018766,309 L129,309 L129,309 L109.001877,309 C92.4298433,309 79,322.431458 79,339 C79,355.572185 92.4322977,369 109.001877,369 L359,369 L608.998123,369 C625.570157,369 639,355.568542 639,339 C639,322.427815 625.567702,309 608.998123,309 L587,309 L587,308.735194 C585.69051,308.909844 584.35436,309 582.99722,309 L508.00278,309 C491.432702,309 478,295.572185 478,279 C478,262.431458 491.437867,249 508.00278,249 L582.99722,249 C584.354413,249 585.690559,249.090082 587,249.264596 Z M95.25,39 C95.25,22.4314575 108.6902,9 125.254798,9 L650.995202,9 C667.566395,9 681,22.4278145 681,39 C681,55.5685425 667.5598,69 650.995202,69 L125.254798,69 C108.683605,69 95.25,55.5721855 95.25,39 Z M61,399 C61,382.431458 74.4237852,369 90.9940497,369 L549.00595,369 C565.571207,369 579,382.427815 579,399 C579,415.568542 565.576215,429 549.00595,429 L90.9940497,429 C74.4287935,429 61,415.572185 61,399 Z" id="Combined-Shape" fill="url(#linearGradient-1)" opacity="0.835389459"></path>
                        <g id="Additional-Elements" opacity="0.300000012" fill="#FFFFFF">
                            <circle id="Oval-11" opacity="0.162430037" cx="416.5" cy="20.5" r="7.5"></circle>
                            <circle id="Oval-11" opacity="0.170184235" cx="392.5" cy="56.5" r="4.5"></circle>
                            <ellipse id="Oval-11" opacity="0.301364272" cx="432" cy="83" rx="7" ry="7"></ellipse>
                            <circle id="Oval-11" opacity="0.184001866" cx="23" cy="64" r="7"></circle>
                            <circle id="Oval-11" opacity="0.149778451" cx="4.5" cy="111.5" r="4.5"></circle>
                            <g id="Group-23" opacity="0.599999964" transform="translate(106.000000, 14.500000) rotate(-120.000000) translate(-106.000000, -14.500000) translate(96.000000, 4.000000)" stroke="#FFFFFF" stroke-width="7" stroke-linecap="round">
                                <path d="M2.38209452e-12,10.3253866 L19.7389208,10.3253866" id="Line"></path>
                                <path d="M-0.00022307219,10.3259541 L19.7386978,10.3259541" id="Line" transform="translate(9.869237, 10.325954) rotate(-270.000000) translate(-9.869237, -10.325954) "></path>
                            </g>
                            <g id="Group-23" opacity="0.46379431" transform="translate(347.000000, 402.000000) rotate(-330.000000) translate(-347.000000, -402.000000) translate(336.000000, 391.000000)" stroke="#FFFFFF" stroke-width="6" stroke-linecap="round">
                                <path d="M1.8189894e-12,10.9700958 L21.9401915,10.9700958" id="Line"></path>
                                <path d="M-9.51061452e-12,10.9700958 L21.9401915,10.9700958" id="Line" transform="translate(10.970096, 10.970096) rotate(-270.000000) translate(-10.970096, -10.970096) "></path>
                            </g>
                            <circle id="Oval-11" opacity="0.223822295" cx="286.5" cy="437.5" r="7.5"></circle>
                            <circle id="Oval-11" opacity="0.135377799" cx="250.5" cy="383.5" r="4.5"></circle>
                            <path d="M450.849383,249.477133 L465.253224,249.477133" id="Line" stroke="#FFFFFF" stroke-width="6" stroke-linecap="round" transform="translate(458.051304, 249.477133) rotate(-15.000000) translate(-458.051304, -249.477133) "></path>
                            <path d="M450.860367,249.48177 L465.264208,249.48177" id="Line" stroke="#FFFFFF" stroke-width="6" stroke-linecap="round" transform="translate(458.062288, 249.481770) rotate(-285.000000) translate(-458.062288, -249.481770) "></path>
                        </g>
                        <g transform="translate(31.000000, 69.000000)">
                            <g id="Path-12-+-Path-13-Mask">
                                <ellipse id="Oval-15" fill="url(#linearGradient-2)" cx="119.868421" cy="127.518126" rx="115" ry="108.077337"></ellipse>
                                <path d="M142.651688,235.595463 C142.651688,235.595463 164.773865,220.132305 161.289897,210.719021 C157.80593,201.305736 108.577114,184.148234 116.398534,162.826045 C124.219954,141.503856 155.648551,152.273367 167.226948,143.80834 C178.805345,135.343313 183.816852,118.870077 195.230992,113.472024 C206.645132,108.073971 207.882865,126.609483 221.646495,118.071876 C231.323995,112.068904 236.677373,103.176797 238.070867,108.701309 C239.46436,114.22582 239.391382,116.103689 238.070867,124.776262 C236.105185,137.686005 231.261691,170.424774 205.842945,199.822343 C180.424199,229.219912 142.651688,235.595463 142.651688,235.595463 Z" id="Path-12" fill="#519AFE"></path>
                                <path d="M136.182826,197.48553 C121.463136,188.221792 103.432797,176.363279 108.398534,162.826045 C112.274429,152.259861 121.947504,149.57439 132.129379,148.52368 M145.297119,147.564129 C150.896581,147.091298 155.887432,146.249878 159.226948,143.80834 C170.805345,135.343313 175.816852,118.870077 187.230992,113.472024 C198.645132,108.073971 199.882865,126.609483 213.646495,118.071876 C227.410125,109.53427 221.965229,75.1717565 233.241124,87.4936199 C238.030499,96.0587267 245.438856,143.80834 216.092088,186.481583 C186.74532,229.154826 140.695842,235.45576 140.695842,235.45576 C140.695842,235.45576 156.773865,220.132305 153.289897,210.719021 C152.410923,208.344131 148.620247,205.476315 143.568613,202.173054" id="Path-12" stroke="#1E84F5" stroke-width="4" stroke-linecap="round"></path>
                                <path d="M35.0472414,64.4512139 C52.9229388,72.6392862 50.2499436,30.8765018 68.4238919,41.2436016 C72.5716051,43.6096124 75.8850799,46.2854651 78.6640603,49.0960776 C80.4576734,50.9101068 82.028633,52.7802727 83.4575287,54.6595024 C89.5153197,62.6264799 93.0197583,70.7563629 100.111596,75.4623042 C103.028011,77.3975538 107.823199,78.5539148 113.147325,78.8400786 C117.047026,79.0496817 121.2305,78.7924279 125.167313,78.0324365 C136.785013,75.7896703 146.254632,69.1687401 139.944268,57.2475273 C128.576135,35.7714421 144.466397,34.8911877 150.340121,23.3864436 C156.213845,11.8816995 145.994929,30.1357554 139.944268,12.958967 C133.893606,-4.21782147 106.308871,1.73859283 106.308871,1.73859283 C106.308871,1.73859283 70.9383302,1.21500379 42.7789636,28.8976523 C14.619597,56.5803008 28.6272323,61.5104895 35.0472414,64.4512139 Z" id="Path-13" fill="#6FB9FD"></path>
                                <path d="M81.4575287,59.6595024 C87.5153197,67.6264799 91.0197583,75.7563629 98.1115962,80.4623042 C101.028011,82.3975538 105.823199,83.5539148 111.147325,83.8400786 M123.167313,83.0324365 C134.785013,80.7896703 144.254632,74.1687401 137.944268,62.2475273 C126.576135,40.7714421 144.466397,37.8911877 150.340121,26.3864436 C156.213845,14.8816995 146.77827,28.2262672 140.727609,11.0494788 C137.673162,2.37842903 119.480403,-1.15542922 98.7432295,2.44220825 C78.4014046,5.97125779 55.6112577,16.4380072 42.2600346,27.9493016 C15.2981043,51.1956152 29.5827183,64.5853219 37.5865738,68.2515368 C55.4622712,76.4396091 48.2499436,35.8765018 66.4238919,46.2436016 C70.5716051,48.6096124 73.8850799,51.2854651 76.6640603,54.0960776" id="Path-13" stroke="#1E84F5" stroke-width="4" stroke-linecap="round"></path>
                            </g>
                            <path d="M201.768253,33.4988913 C180.351038,12.7620323 151.165885,0 119,0 C53.2781148,0 0,53.2781148 0,119 C0,164.561226 25.6046966,204.142155 63.2096155,224.138313 M88.7818261,234.129458 C98.4313005,236.655237 108.558607,238 119,238 C184.721885,238 238,184.721885 238,119 C238,95.7728796 231.345437,74.1000157 219.838836,55.7839349 M211.295831,43.8776309 C210.262448,42.6095467 209.203454,41.3631624 208.119635,40.1392666" id="Mask" stroke="#1E84F5" stroke-width="4" stroke-linecap="round"></path>
                            <path d="M160.280869,58.3158832 C171.757809,66.0861624 193.204482,68.8949446 181.715728,46.7506586 C170.226974,24.6063725 148.803928,50.545604 160.280869,58.3158832 Z" id="Path-13" stroke="#1E84F5" stroke-width="4" fill-opacity="0.2" fill="#97E5C9"></path>
                            <path d="M101.843857,217.944571 C112.563072,219.042157 109.670492,203.616599 90.1162093,191.428078 C70.5619271,179.239557 91.1246431,216.846985 101.843857,217.944571" id="Path-13" stroke="#1E84F5" stroke-width="4" fill-opacity="0.2" fill="#97E5C9"></path>
                        </g>
                    </g>
                    <g id="KoalaEyes" transform="translate(131.000000, 181.000000)">
                        <ellipse id="Combined-Shape" fill="#FFFFFF" cx="151" cy="106" rx="15" ry="15"></ellipse>
                        <path d="M105.870617,43.6204365 C101.798957,23.9093532 86.3688307,7.27647957 65.1129565,2.36917435 C36.220781,-4.30110995 7.50596666,13.2183974 0.976623625,41.5000893" id="Path" stroke="#FFFFFF" stroke-width="22.5" stroke-linecap="round" transform="translate(53.423620, 22.286371) scale(-1, 1) translate(-53.423620, -22.286371) "></path>
                        <path d="M195.976624,43.6204365 C200.048284,23.9093532 215.47841,7.27647957 236.734284,2.36917435 C265.62646,-4.30110995 294.341274,13.2183974 300.870617,41.5000893" id="Path" stroke="#FFFFFF" stroke-width="22.5" stroke-linecap="round"></path>
                    </g>
                </g>
            </g>
        </g>
    </g>
</svg>