<?xml version="1.0" encoding="UTF-8"?>
<svg width="24px" height="17px" viewBox="0 0 24 17" version="1.1" xmlns="http://www.w3.org/2000/svg" xmlns:xlink="http://www.w3.org/1999/xlink">
    <!-- Generator: Sketch 41.2 (35397) - http://www.bohemiancoding.com/sketch -->
    <title>livevisitors</title>
    <desc>Created with Sketch.</desc>
    <defs></defs>
    <g id="Desktop" stroke="none" stroke-width="1" fill="none" fill-rule="evenodd">
        <g id="6.1.-Contacts---All" transform="translate(-29.000000, -173.000000)" fill="#767B7B">
            <g id="Conversations" transform="translate(0.000000, 60.000000)">
                <g id="Menu">
                    <g id="Grid-View" transform="translate(29.000000, 109.000000)">
                        <g id="livevisitors" transform="translate(0.000000, 4.000000)">
                            <rect id="Rectangle-path" transform="translate(18.516545, 14.819559) rotate(-45.000000) translate(-18.516545, -14.819559) " x="18.1492131" y="13.6897512" width="0.734664829" height="2.25961469"></rect>
                            <rect id="Rectangle-path" transform="translate(20.224686, 16.476157) rotate(-45.000000) translate(-20.224686, -16.476157) " x="19.8573535" y="16.1192287" width="0.734664829" height="0.71385679"></rect>
                            <rect id="Rectangle-path" x="20.0507812" y="8.14390909" width="3.94921875" height="0.712409091"></rect>
                            <rect id="Rectangle-path" transform="translate(19.088612, 1.625572) rotate(-45.000000) translate(-19.088612, -1.625572) " x="17.1140446" y="1.26937088" width="3.949134" height="0.712402259"></rect>
                            <rect id="Rectangle-path" transform="translate(4.910983, 1.625992) rotate(-45.000000) translate(-4.910983, -1.625992) " x="4.54365076" y="-0.288740083" width="0.734664829" height="3.82946327"></rect>
                            <rect id="Rectangle-path" x="0" y="8.14390909" width="3.94921875" height="0.712409091"></rect>
                            <rect id="Rectangle-path" transform="translate(4.910569, 15.374385) rotate(-45.000000) translate(-4.910569, -15.374385) " x="2.93600208" y="15.0181843" width="3.949134" height="0.712402259"></rect>
                            <rect id="Rectangle-path" transform="translate(7.813770, 6.029733) rotate(-67.137718) translate(-7.813770, -6.029733) " x="7.44173998" y="5.67354473" width="0.744060343" height="0.712377107"></rect>
                            <polygon id="Shape" points="18.4312031 5.95186364 12.966375 5.95186364 15.2875313 1.06709091 9.573375 1.06709091 7.99167188 4.70454545 8.66859375 4.98136364 10.0609219 1.77954545 14.1400313 1.77954545 11.8189219 6.66427273 16.8733125 6.66427273 10.4723438 14.1927727 11.6773594 9.04554545 6.9013125 9.04554545 7.6359375 7.35613636 6.95896875 7.07936364 5.794125 9.758 10.7571563 9.758 9.070875 16.9610909"></polygon>
                        </g>
                    </g>
                </g>
            </g>
        </g>
    </g>
</svg>