<?xml version="1.0" encoding="UTF-8"?>
<svg width="149px" height="24px" viewBox="0 0 149 24" version="1.1" xmlns="http://www.w3.org/2000/svg" xmlns:xlink="http://www.w3.org/1999/xlink">
    <!-- Generator: Sketch 41.2 (35397) - http://www.bohemiancoding.com/sketch -->
    <title>Logo</title>
    <desc>Created with Sketch.</desc>
    <defs></defs>
    <g id="Desktop" stroke="none" stroke-width="1" fill="none" fill-rule="evenodd">
        <g id="4.1.-Measure-(Analytics-Dashboard)" transform="translate(-40.000000, -18.000000)">
            <g id="Top-Bar">
                <g id="Logo" transform="translate(40.000000, 18.000000)">
                    <g id="Icon_Blue_iOS">
                        <path d="M12.5510358,2.60245645 C11.8259982,1.74966545 10.8871452,1.09691829 9.83399781,0.713603978 C8.07309486,0.0726877208 6.1034775,-0.383794106 3.63625831,0.607499946 L2.73877345,0.96808214 L3.22493681,2.10299813 C2.28877187,2.51713588 1.00748618,3.37350464 0.387353039,5.07730643 L-0.00979522669,6.16846232 L1.14802396,6.32526657 C0.838578882,7.8092707 1.02915954,9.20224744 1.71520537,10.4035402 C2.3823222,11.5717031 3.51560142,12.5243084 4.92996397,13.113552 C4.98360738,19.1323337 7.40708752,23.9770874 16.9593468,23.9770874 C25.8904608,23.9770874 28.9103749,19.1499931 28.9881005,13.1464787 C30.4398456,12.5601376 31.6034336,11.5937184 32.283123,10.4035402 C32.9691688,9.20224744 33.1597495,7.8092707 32.8503044,6.32526657 L34.0081236,6.16846232 L33.6109753,5.07730643 C32.9908422,3.37350464 31.7095565,2.51713588 30.7733915,2.10299813 L31.2595549,0.96808214 L30.36207,0.607499946 C27.8948508,-0.383794106 25.9252335,0.0726877208 24.1643305,0.713603978 C23.1020661,1.1002366 22.1560836,1.76098719 21.428511,2.62464898 C20.0468429,2.1156369 18.5386479,1.83562914 16.9593468,1.83562914 C15.4032255,1.83562914 13.9161098,2.1075041 12.5510358,2.60245645 Z M11.1610969,3.20393874 C10.7154672,2.80002143 10.1928417,2.48387918 9.6234902,2.2766522 C8.46138405,1.85368015 7.20495503,1.48614188 5.65525147,1.85002362 L6.23649406,3.20480085 L5.05083567,3.39006862 C4.99801388,3.39978701 3.96717638,3.60041167 3.18860184,4.44788783 L4.02319556,4.56116056 L3.62599922,5.65244854 C3.31690569,6.50167602 2.62701902,9.13456334 5.16416096,10.7173995 C5.87007102,7.4783128 8.11204126,4.7502536 11.1610969,3.20393874 Z M22.8087593,3.2299619 C23.2605387,2.81358724 23.7933159,2.48830898 24.3748381,2.2766522 C25.5369443,1.85368015 26.7933733,1.48614188 28.3430769,1.85002362 L27.7618343,3.20480085 L28.9474927,3.39006862 C29.0003145,3.39978701 30.031152,3.60041167 30.8097265,4.44788783 L29.9751328,4.56116056 L30.3723291,5.65244854 C30.6842456,6.50943205 31.3839426,9.18280472 28.7638415,10.760503 C28.0723974,7.52063961 25.8452748,4.78765958 22.8087593,3.2299619 Z M16.9561945,19.6387442 C17.6813994,19.6387442 18.2692941,19.0417091 18.2692941,18.305229 C18.2692941,17.5687489 17.6813994,16.9717138 16.9561945,16.9717138 C16.2309895,16.9717138 15.6430948,17.5687489 15.6430948,18.305229 C15.6430948,19.0417091 16.2309895,19.6387442 16.9561945,19.6387442 Z M17.0113098,18.0476255 C17.0113098,17.7694007 17.2327383,17.5432203 17.5073482,17.5432203 C17.7822805,17.5432203 18.0030643,17.769728 18.0030643,18.0476255 C18.0030643,18.326505 17.7819582,18.5523581 17.5073482,18.5523581 C17.2327383,18.5523581 17.0113098,18.3261777 17.0113098,18.0476255 Z" id="Combined-Shape" fill="#0B61FF"></path>
                        <path d="M19.4947495,16.4751956 C19.6559849,15.6352697 20.2870338,14.9306485 21.1625488,14.7285199 C22.3525978,14.4537755 23.5436696,15.211465 23.822882,16.420867" id="Path" stroke="#2D3035" stroke-width="1.16129032" stroke-linecap="round" fill-opacity="0" fill="#FFFFFF"></path>
                        <path d="M10.4542863,16.5151368 C10.6155244,15.6752103 11.2465793,14.9705876 12.1221014,14.7684574 C13.3121601,14.4937108 14.5032396,15.2513985 14.7824521,16.4608005" id="Combined-Shape" stroke="#2D3035" stroke-width="1.16129032" stroke-linecap="round" fill-opacity="0" fill="#FFFFFF"></path>
                    </g>
                    <text id="KoalaChat" font-family="CenturyGothic, Century Gothic" font-size="20" font-weight="normal" line-spacing="20" fill="#0B61FF">
                        <tspan x="44" y="22">KoalaChat</tspan>
                    </text>
                </g>
            </g>
        </g>
    </g>
</svg>