<?xml version="1.0" encoding="UTF-8"?>
<svg width="147px" height="24px" viewBox="0 0 147 24" version="1.1" xmlns="http://www.w3.org/2000/svg" xmlns:xlink="http://www.w3.org/1999/xlink">
    <!-- Generator: Sketch 42 (36781) - http://www.bohemiancoding.com/sketch -->
    <title>Logo</title>
    <desc>Created with Sketch.</desc>
    <defs></defs>
    <g id="Desktop" stroke="none" stroke-width="1" fill="none" fill-rule="evenodd">
        <g id="3.1.-Onboarding---Welcome-Message" transform="translate(-40.000000, -18.000000)">
            <g id="Top-Bar">
                <g id="Logo" transform="translate(40.000000, 18.000000)">
                    <g id="Icon_Blue_iOS">
                        <path d="M4.92996397,13.113552 C3.51560142,12.5243084 2.3823222,11.5717031 1.71520537,10.4035402 C1.02915954,9.20224744 0.838578882,7.8092707 1.14802396,6.32526657 L-0.00979522669,6.16846232 L0.387353039,5.07730643 C1.00748618,3.37350464 2.28877187,2.51713588 3.22493681,2.10299813 L2.73877345,0.96808214 L3.63625831,0.607499946 C6.1034775,-0.383794106 8.07309486,0.0726877208 9.83399781,0.713603978 C10.8871452,1.09691829 11.8259982,1.74966545 12.5510358,2.60245645 C13.9161098,2.1075041 15.4032255,1.83562914 16.9593468,1.83562914 C18.5386479,1.83562914 20.0468429,2.1156369 21.428511,2.62464898 C22.1560836,1.76098719 23.1020661,1.1002366 24.1643305,0.713603978 C25.9252335,0.0726877208 27.8948508,-0.383794106 30.36207,0.607499946 L31.2595549,0.96808214 L30.7733915,2.10299813 C31.7095565,2.51713588 32.9908422,3.37350464 33.6109753,5.07730643 L34.0081236,6.16846232 L32.8503044,6.32526657 C33.1597495,7.8092707 32.9691688,9.20224744 32.283123,10.4035402 C31.6034336,11.5937184 30.4398456,12.5601376 28.9881005,13.1464787 C28.9103749,19.1499931 25.8904608,23.9770874 16.9593468,23.9770874 C7.40708752,23.9770874 4.98360738,19.1323337 4.92996397,13.113552 Z M5.16416096,10.7173995 C5.87007102,7.4783128 8.11204126,4.7502536 11.1610969,3.20393874 C10.7154672,2.80002143 10.1928417,2.48387918 9.6234902,2.2766522 C8.46138405,1.85368015 7.20495503,1.48614188 5.65525147,1.85002362 L6.23649406,3.20480085 L5.05083567,3.39006862 C4.99801388,3.39978701 3.96717638,3.60041167 3.18860184,4.44788783 L4.02319556,4.56116056 L3.62599922,5.65244854 C3.31690569,6.50167602 2.62701902,9.13456334 5.16416096,10.7173995 Z M22.8087593,3.2299619 C25.8452748,4.78765958 28.0723974,7.52063961 28.7638415,10.760503 C31.3839426,9.18280472 30.6842456,6.50943205 30.3723291,5.65244854 L29.9751328,4.56116056 L30.8097265,4.44788783 C30.031152,3.60041167 29.0003145,3.39978701 28.9474927,3.39006862 L27.7618343,3.20480085 L28.3430769,1.85002362 C26.7933733,1.48614188 25.5369443,1.85368015 24.3748381,2.2766522 C23.7933159,2.48830898 23.2605387,2.81358724 22.8087593,3.2299619 Z M16.9561945,19.6387442 C17.6813994,19.6387442 18.2692941,19.0417091 18.2692941,18.305229 C18.2692941,17.5687489 17.6813994,16.9717138 16.9561945,16.9717138 C16.2309895,16.9717138 15.6430948,17.5687489 15.6430948,18.305229 C15.6430948,19.0417091 16.2309895,19.6387442 16.9561945,19.6387442 Z M17.0113098,18.0476255 C17.0113098,17.7694007 17.2327383,17.5432203 17.5073482,17.5432203 C17.7822805,17.5432203 18.0030643,17.769728 18.0030643,18.0476255 C18.0030643,18.326505 17.7819582,18.5523581 17.5073482,18.5523581 C17.2327383,18.5523581 17.0113098,18.3261777 17.0113098,18.0476255 Z" id="Combined-Shape" fill="#0B61FF"></path>
                        <path d="M19.4947495,16.4751956 C19.6559849,15.6352697 20.2870338,14.9306485 21.1625488,14.7285199 C22.3525978,14.4537755 23.5436696,15.211465 23.822882,16.420867" id="Path" stroke="#2D3035" stroke-width="1.16129032" stroke-linecap="round" fill-opacity="0" fill="#FFFFFF"></path>
                        <path d="M10.4542863,16.5151368 C10.6155244,15.6752103 11.2465793,14.9705876 12.1221014,14.7684574 C13.3121601,14.4937108 14.5032396,15.2513985 14.7824521,16.4608005" id="Combined-Shape" stroke="#2D3035" stroke-width="1.16129032" stroke-linecap="round" fill-opacity="0" fill="#FFFFFF"></path>
                    </g>
                    <path d="M44,4.86132812 L45.4648438,4.86132812 L45.4648438,10.2519531 L51.1972656,4.86132812 L53.140625,4.86132812 L46.2363281,11.3066406 L53.6777344,19.2265625 L51.7734375,19.2265625 L45.4648438,12.5273438 L45.4648438,19.2265625 L44,19.2265625 L44,4.86132812 Z M60.6210938,8.328125 C62.2552165,8.328125 63.6093696,8.92056699 64.6835938,10.1054688 C65.6601611,11.1862033 66.1484375,12.4654874 66.1484375,13.9433594 C66.1484375,15.4277418 65.6324921,16.7249293 64.6005859,17.8349609 C63.5686797,18.9449925 62.2421956,19.5 60.6210938,19.5 C58.9934814,19.5 57.6637421,18.9449925 56.6318359,17.8349609 C55.5999297,16.7249293 55.0839844,15.4277418 55.0839844,13.9433594 C55.0839844,12.4719979 55.5722607,11.1959689 56.5488281,10.1152344 C57.6230522,8.92382217 58.9804605,8.328125 60.6210938,8.328125 Z M60.6210938,9.66601562 C59.4882756,9.66601562 58.514978,10.0859333 57.7011719,10.9257812 C56.8873657,11.7656292 56.4804688,12.781244 56.4804688,13.9726562 C56.4804688,14.7408893 56.6660138,15.4570279 57.0371094,16.1210938 C57.408205,16.7851596 57.9095021,17.2978498 58.5410156,17.6591797 C59.1725292,18.0205096 59.8658816,18.2011719 60.6210938,18.2011719 C61.3763059,18.2011719 62.0696583,18.0205096 62.7011719,17.6591797 C63.3326854,17.2978498 63.8339825,16.7851596 64.2050781,16.1210938 C64.5761737,15.4570279 64.7617188,14.7408893 64.7617188,13.9726562 C64.7617188,12.781244 64.3531942,11.7656292 63.5361328,10.9257812 C62.7190714,10.0859333 61.7474015,9.66601562 60.6210938,9.66601562 Z M79.2734375,8.6015625 L79.2734375,19.2265625 L77.9257812,19.2265625 L77.9257812,17.4003906 C77.3528617,18.0970087 76.7099645,18.621092 75.9970703,18.9726562 C75.2841761,19.3242205 74.5045615,19.5 73.6582031,19.5 C72.1542894,19.5 70.8701225,18.9547581 69.8056641,17.8642578 C68.7412056,16.7737576 68.2089844,15.4472734 68.2089844,13.8847656 C68.2089844,12.3548101 68.7460884,11.0462294 69.8203125,9.95898438 C70.8945366,8.87173936 72.1868414,8.328125 73.6972656,8.328125 C74.5696658,8.328125 75.3590459,8.51367002 76.0654297,8.88476562 C76.7718134,9.25586123 77.3919244,9.81249629 77.9257812,10.5546875 L77.9257812,8.6015625 L79.2734375,8.6015625 Z M73.8046875,9.64648438 C73.0429649,9.64648438 72.339847,9.83365698 71.6953125,10.2080078 C71.050778,10.5823586 70.5380878,11.1080695 70.1572266,11.7851562 C69.7763653,12.462243 69.5859375,13.1783816 69.5859375,13.9335938 C69.5859375,14.6822954 69.7779929,15.3984341 70.1621094,16.0820312 C70.5462259,16.7656284 71.0621712,17.2978497 71.7099609,17.6787109 C72.3577506,18.0595722 73.0527307,18.25 73.7949219,18.25 C74.5436235,18.25 75.2532519,18.0611998 75.9238281,17.6835938 C76.5944044,17.3059877 77.1103498,16.7949251 77.4716797,16.1503906 C77.8330096,15.5058562 78.0136719,14.779952 78.0136719,13.9726562 C78.0136719,12.7421813 77.6084025,11.7135458 76.7978516,10.8867188 C75.9873006,10.0598917 74.9895893,9.64648438 73.8046875,9.64648438 Z M82.1445312,4.5 L83.5117188,4.5 L83.5117188,19.2265625 L82.1445312,19.2265625 L82.1445312,4.5 Z M96.9394531,8.6015625 L96.9394531,19.2265625 L95.5917969,19.2265625 L95.5917969,17.4003906 C95.0188773,18.0970087 94.3759801,18.621092 93.6630859,18.9726562 C92.9501917,19.3242205 92.1705771,19.5 91.3242188,19.5 C89.820305,19.5 88.5361381,18.9547581 87.4716797,17.8642578 C86.4072212,16.7737576 85.875,15.4472734 85.875,13.8847656 C85.875,12.3548101 86.412104,11.0462294 87.4863281,9.95898438 C88.5605522,8.87173936 89.852857,8.328125 91.3632812,8.328125 C92.2356814,8.328125 93.0250616,8.51367002 93.7314453,8.88476562 C94.4378291,9.25586123 95.05794,9.81249629 95.5917969,10.5546875 L95.5917969,8.6015625 L96.9394531,8.6015625 Z M91.4707031,9.64648438 C90.7089806,9.64648438 90.0058626,9.83365698 89.3613281,10.2080078 C88.7167937,10.5823586 88.2041035,11.1080695 87.8232422,11.7851562 C87.4423809,12.462243 87.2519531,13.1783816 87.2519531,13.9335938 C87.2519531,14.6822954 87.4440085,15.3984341 87.828125,16.0820312 C88.2122415,16.7656284 88.7281869,17.2978497 89.3759766,17.6787109 C90.0237663,18.0595722 90.7187463,18.25 91.4609375,18.25 C92.2096392,18.25 92.9192675,18.0611998 93.5898438,17.6835938 C94.26042,17.3059877 94.7763654,16.7949251 95.1376953,16.1503906 C95.4990252,15.5058562 95.6796875,14.779952 95.6796875,13.9726562 C95.6796875,12.7421813 95.2744181,11.7135458 94.4638672,10.8867188 C93.6533163,10.0598917 92.6556049,9.64648438 91.4707031,9.64648438 Z M113.619141,7.52734375 L112.486328,8.39648438 C111.861325,7.58267822 111.111007,6.96582241 110.235352,6.54589844 C109.359696,6.12597446 108.397792,5.91601562 107.349609,5.91601562 C106.20377,5.91601562 105.142583,6.19107798 104.166016,6.74121094 C103.189448,7.2913439 102.43262,8.0302688 101.895508,8.95800781 C101.358396,9.88574683 101.089844,10.9290307 101.089844,12.0878906 C101.089844,13.8392015 101.690424,15.3007754 102.891602,16.4726562 C104.092779,17.6445371 105.608064,18.2304688 107.4375,18.2304688 C109.449229,18.2304688 111.132155,17.4427162 112.486328,15.8671875 L113.619141,16.7265625 C112.902991,17.6380254 112.009445,18.3427709 110.938477,18.8408203 C109.867508,19.3388697 108.671231,19.5878906 107.349609,19.5878906 C104.836576,19.5878906 102.854174,18.7513104 101.402344,17.078125 C100.18489,15.6653575 99.5761719,13.9596454 99.5761719,11.9609375 C99.5761719,9.8580624 100.313469,8.08887437 101.788086,6.65332031 C103.262703,5.21776626 105.110015,4.5 107.330078,4.5 C108.671231,4.5 109.882156,4.76529683 110.962891,5.29589844 C112.043625,5.82650005 112.929033,6.57030771 113.619141,7.52734375 Z M116.275391,4.5 L117.642578,4.5 L117.642578,10.5058594 C118.195966,9.77668906 118.804684,9.23144712 119.46875,8.87011719 C120.132816,8.50878726 120.85221,8.328125 121.626953,8.328125 C122.421228,8.328125 123.125973,8.5299459 123.741211,8.93359375 C124.356448,9.3372416 124.810545,9.87922837 125.103516,10.5595703 C125.396486,11.2399123 125.542969,12.3059823 125.542969,13.7578125 L125.542969,19.2265625 L124.175781,19.2265625 L124.175781,14.1582031 C124.175781,12.9342387 124.126954,12.1171896 124.029297,11.7070312 C123.860025,11.0039027 123.552411,10.4749367 123.106445,10.1201172 C122.66048,9.76529771 122.076175,9.58789062 121.353516,9.58789062 C120.526689,9.58789062 119.786136,9.86132539 119.131836,10.4082031 C118.477536,10.9550809 118.046225,11.6321574 117.837891,12.4394531 C117.707682,12.9602891 117.642578,13.9238211 117.642578,15.3300781 L117.642578,19.2265625 L116.275391,19.2265625 L116.275391,4.5 Z M139.058594,8.6015625 L139.058594,19.2265625 L137.710938,19.2265625 L137.710938,17.4003906 C137.138018,18.0970087 136.495121,18.621092 135.782227,18.9726562 C135.069332,19.3242205 134.289718,19.5 133.443359,19.5 C131.939446,19.5 130.655279,18.9547581 129.59082,17.8642578 C128.526362,16.7737576 127.994141,15.4472734 127.994141,13.8847656 C127.994141,12.3548101 128.531245,11.0462294 129.605469,9.95898438 C130.679693,8.87173936 131.971998,8.328125 133.482422,8.328125 C134.354822,8.328125 135.144202,8.51367002 135.850586,8.88476562 C136.55697,9.25586123 137.177081,9.81249629 137.710938,10.5546875 L137.710938,8.6015625 L139.058594,8.6015625 Z M133.589844,9.64648438 C132.828121,9.64648438 132.125003,9.83365698 131.480469,10.2080078 C130.835934,10.5823586 130.323244,11.1080695 129.942383,11.7851562 C129.561522,12.462243 129.371094,13.1783816 129.371094,13.9335938 C129.371094,14.6822954 129.563149,15.3984341 129.947266,16.0820312 C130.331382,16.7656284 130.847327,17.2978497 131.495117,17.6787109 C132.142907,18.0595722 132.837887,18.25 133.580078,18.25 C134.32878,18.25 135.038408,18.0611998 135.708984,17.6835938 C136.379561,17.3059877 136.895506,16.7949251 137.256836,16.1503906 C137.618166,15.5058562 137.798828,14.779952 137.798828,13.9726562 C137.798828,12.7421813 137.393559,11.7135458 136.583008,10.8867188 C135.772457,10.0598917 134.774746,9.64648438 133.589844,9.64648438 Z M143.326172,4.65625 L144.703125,4.65625 L144.703125,8.6015625 L146.871094,8.6015625 L146.871094,9.7734375 L144.703125,9.7734375 L144.703125,19.2265625 L143.326172,19.2265625 L143.326172,9.7734375 L141.460938,9.7734375 L141.460938,8.6015625 L143.326172,8.6015625 L143.326172,4.65625 Z" id="KoalaChat" fill="#0B61FF"></path>
                </g>
            </g>
        </g>
    </g>
</svg>