<?xml version="1.0" encoding="UTF-8"?>
<svg width="19px" height="22px" viewBox="0 0 19 22" version="1.1" xmlns="http://www.w3.org/2000/svg" xmlns:xlink="http://www.w3.org/1999/xlink">
    <!-- Generator: Sketch 41.2 (35397) - http://www.bohemiancoding.com/sketch -->
    <title>mostrecent</title>
    <desc>Created with Sketch.</desc>
    <defs></defs>
    <g id="Desktop" stroke="none" stroke-width="1" fill="none" fill-rule="evenodd">
        <g id="6.1.-Contacts---All" transform="translate(-32.000000, -210.000000)" fill="#76767B">
            <g id="Conversations" transform="translate(0.000000, 60.000000)">
                <g id="Menu">
                    <g id="Grid-View" transform="translate(32.000000, 150.000000)">
                        <g id="mostrecent">
                            <path d="M18.62,21.2666667 L17.48,21.2666667 L17.48,19.8 L15.58,19.8 L15.58,16.0519333 C15.58,15.0619333 15.07004,14.1423333 14.21618,13.5930667 L10.18514,11 L14.21618,8.40693333 C15.07004,7.85766667 15.58,6.93806667 15.58,5.94806667 L15.58,2.2 L17.48,2.2 L17.48,0.733333333 L18.62,0.733333333 C18.82976,0.733333333 19,0.569433333 19,0.366666667 C19,0.1639 18.82976,0 18.62,0 L17.48,0 L17.1,0 L1.9,0 L1.52,0 L0.38,0 C0.17024,0 0,0.1639 0,0.366666667 C0,0.569433333 0.17024,0.733333333 0.38,0.733333333 L1.52,0.733333333 L1.52,2.2 L3.42,2.2 L3.42,5.94806667 C3.42,6.93806667 3.92996,7.85766667 4.78382,8.40693333 L8.81486,11 L4.78382,13.5930667 C3.92996,14.1423333 3.42,15.0619333 3.42,16.0519333 L3.42,19.8 L1.52,19.8 L1.52,21.2666667 L0.38,21.2666667 C0.17024,21.2666667 0,21.4305667 0,21.6333333 C0,21.8361 0.17024,22 0.38,22 L1.52,22 L1.9,22 L17.1,22 L17.48,22 L18.62,22 C18.82976,22 19,21.8361 19,21.6333333 C19,21.4305667 18.82976,21.2666667 18.62,21.2666667 Z M2.28,1.46666667 L2.28,0.733333333 L16.72,0.733333333 L16.72,1.46666667 L15.58,1.46666667 L3.42,1.46666667 L2.28,1.46666667 Z M5.20524,7.7968 C4.56342,7.38356667 4.18,6.6924 4.18,5.94806667 L4.18,2.2 L14.82,2.2 L14.82,5.94806667 C14.82,6.6924 14.43658,7.38356667 13.79476,7.7968 L9.5,10.5592667 L5.20524,7.7968 Z M4.18,16.0519333 C4.18,15.3076 4.56342,14.6164333 5.20524,14.2032 L9.5,11.4407333 L13.79476,14.2032 C14.43658,14.6164333 14.82,15.3076 14.82,16.0519333 L14.82,19.8 L4.18,19.8 L4.18,16.0519333 Z M2.28,20.5333333 L3.42,20.5333333 L15.58,20.5333333 L16.72,20.5333333 L16.72,21.2666667 L2.28,21.2666667 L2.28,20.5333333 Z" id="Shape"></path>
                            <path d="M6.04846,6.57653333 C5.83034,6.4361 5.7,6.20106667 5.7,5.94806667 L5.7,5.13333333 C5.7,4.93056667 5.52976,4.76666667 5.32,4.76666667 C5.11024,4.76666667 4.94,4.93056667 4.94,5.13333333 L4.94,5.94806667 C4.94,6.4471 5.19688,6.9102 5.62704,7.18666667 L7.38948,8.3204 C7.45408,8.36183333 7.52742,8.382 7.6,8.382 C7.72274,8.382 7.8432,8.3248 7.91654,8.21883333 C8.03282,8.05016667 7.9857,7.82283333 7.81128,7.71026667 L6.04846,6.57653333 Z" id="Shape"></path>
                            <path d="M13.37296,15.1286667 L11.61052,13.9949333 C11.43572,13.8823667 11.20012,13.9278333 11.08346,14.0965 C10.96718,14.2651667 11.0143,14.4925 11.18872,14.6050667 L12.95116,15.7388 C13.16966,15.8792333 13.3,16.1139 13.3,16.3672667 L13.3,17.182 C13.3,17.3847667 13.47024,17.5486667 13.68,17.5486667 C13.88976,17.5486667 14.06,17.3847667 14.06,17.182 L14.06,16.3672667 C14.06,15.8678667 13.80312,15.4051333 13.37296,15.1286667 Z" id="Shape"></path>
                        </g>
                    </g>
                </g>
            </g>
        </g>
    </g>
</svg>