<?xml version="1.0" encoding="UTF-8"?>
<svg width="60px" height="60px" viewBox="0 0 60 60" version="1.1" xmlns="http://www.w3.org/2000/svg" xmlns:xlink="http://www.w3.org/1999/xlink">
    <!-- Generator: Sketch 41.2 (35397) - http://www.bohemiancoding.com/sketch -->
    <title>nicebot</title>
    <desc>Created with Sketch.</desc>
    <defs></defs>
    <g id="Desktop" stroke="none" stroke-width="1" fill="none" fill-rule="evenodd">
        <g id="9.1.1.-Growth-Hacks" transform="translate(-360.000000, -170.000000)" fill="#0B61FF">
            <g id="Top-Bar">
                <g id="Group-2" transform="translate(320.000000, 80.000000)">
                    <g id="Group-Copy-7" transform="translate(0.000000, 50.000000)">
                        <g id="nicebot" transform="translate(40.000000, 40.000000)">
                            <g id="Landing-Page-Artwork">
                                <g>
                                    <g id="nicebot">
                                        <circle id="Oval" cx="26.4406779" cy="5.08474576" r="1.01694915"></circle>
                                        <circle id="Oval" cx="33.5593221" cy="5.08474576" r="1.01694915"></circle>
                                        <path d="M24.4067796,24.4067796 C21.6030508,24.4067796 19.3220339,26.6877966 19.3220339,29.4915254 C19.3220339,32.2952542 21.6030508,34.5762712 24.4067796,34.5762712 C27.2105085,34.5762712 29.4915254,32.2952542 29.4915254,29.4915254 C29.4915254,26.6877966 27.2105085,24.4067796 24.4067796,24.4067796 L24.4067796,24.4067796 L24.4067796,24.4067796 Z M24.4067796,32.5423729 C22.7247458,32.5423729 21.3559322,31.1735593 21.3559322,29.4915254 C21.3559322,27.8094915 22.7247458,26.4406779 24.4067796,26.4406779 C26.0888136,26.4406779 27.4576271,27.8094915 27.4576271,29.4915254 C27.4576271,31.1735593 26.0888136,32.5423729 24.4067796,32.5423729 L24.4067796,32.5423729 L24.4067796,32.5423729 Z" id="Shape"></path>
                                        <path d="M39.661017,32.5423729 L32.5423729,32.5423729 C31.981017,32.5423729 31.5254238,32.9979661 31.5254238,33.5593221 C31.5254238,34.1206779 31.981017,34.5762712 32.5423729,34.5762712 L39.661017,34.5762712 C40.2223729,34.5762712 40.6779661,34.1206779 40.6779661,33.5593221 C40.6779661,32.9979661 40.2223729,32.5423729 39.661017,32.5423729 L39.661017,32.5423729 L39.661017,32.5423729 Z" id="Shape"></path>
                                        <path d="M39.661017,28.4745762 L33.5593221,28.4745762 C32.9979661,28.4745762 32.5423729,28.9301695 32.5423729,29.4915254 C32.5423729,30.0528813 32.9979661,30.5084746 33.5593221,30.5084746 L39.661017,30.5084746 C40.2223729,30.5084746 40.6779661,30.0528813 40.6779661,29.4915254 C40.6779661,28.9301695 40.2223729,28.4745762 39.661017,28.4745762 L39.661017,28.4745762 L39.661017,28.4745762 Z" id="Shape"></path>
                                        <path d="M39.661017,24.4067796 L33.5593221,24.4067796 C32.9979661,24.4067796 32.5423729,24.8623729 32.5423729,25.4237288 C32.5423729,25.9850847 32.9979661,26.4406779 33.5593221,26.4406779 L39.661017,26.4406779 C40.2223729,26.4406779 40.6779661,25.9850847 40.6779661,25.4237288 C40.6779661,24.8623729 40.2223729,24.4067796 39.661017,24.4067796 L39.661017,24.4067796 L39.661017,24.4067796 Z" id="Shape"></path>
                                        <path d="M56.9430508,41.499661 C56.8779661,31.3728813 51.8542373,24.9518644 43.7288136,24.4555932 L43.7288136,21.8949153 C43.7288136,20.4762712 42.5745762,19.3220339 41.1559322,19.3220339 L36.6101695,19.3220339 L36.6101695,16.2711864 L39.661017,16.2711864 L39.661017,13.9535593 L42.7118644,12.9366102 L42.7118644,10.1694915 L45.9071187,10.1694915 C46.3616949,11.9186441 47.941017,13.220339 49.8305085,13.220339 C52.0738983,13.220339 53.8983051,11.3959322 53.8983051,9.15254238 C53.8983051,6.90915254 52.0738983,5.08474576 49.8305085,5.08474576 C47.941017,5.08474576 46.3616949,6.38644068 45.9071187,8.13559322 L42.7118644,8.13559322 L42.7118644,5.36847458 L39.661017,4.35152542 L39.661017,3.68033898 C39.661017,1.65152542 38.0094915,0 35.9806779,0 L24.0193221,0 C21.9905085,0 20.338983,1.65152542 20.338983,3.68033898 L20.338983,4.35152542 L17.2881356,5.36847458 L17.2881356,8.13559322 L14.0928813,8.13559322 C13.6383051,6.38644068 12.058983,5.08474576 10.1694915,5.08474576 C7.9261017,5.08474576 6.10169492,6.90915254 6.10169492,9.15254238 C6.10169492,11.3959322 7.9261017,13.220339 10.1694915,13.220339 C12.058983,13.220339 13.6383051,11.9186441 14.0928813,10.1694915 L17.2881356,10.1694915 L17.2881356,12.9366102 L20.338983,13.9535593 L20.338983,16.2711864 L23.3898305,16.2711864 L23.3898305,19.3220339 L18.8440678,19.3220339 C17.4254238,19.3220339 16.2711864,20.4762712 16.2711864,21.8949153 L16.2711864,24.4555932 C8.14576271,24.9518644 3.1220339,31.3728813 3.05694915,41.499661 C1.23254237,42.5552542 0,44.5240678 0,46.779661 C0,48.7179661 0.889830508,50.4986441 2.44271187,51.6630508 C2.62576271,51.800339 2.84033898,51.8664407 3.05186441,51.8664407 C3.36101695,51.8664407 3.6661017,51.7261017 3.86644068,51.459661 C4.20406779,51.0101695 4.11254238,50.3735593 3.66305085,50.0359322 C2.62779661,49.258983 2.0338983,48.0722034 2.0338983,46.779661 C2.0338983,44.5362712 3.85830508,42.7118644 6.10169492,42.7118644 C8.34508475,42.7118644 10.1694915,44.5362712 10.1694915,46.779661 C10.1694915,48.0711864 9.57661017,49.2579661 8.54135593,50.0338983 C8.09288136,50.3715254 8.00135593,51.0091525 8.33898305,51.4576271 C8.67661017,51.9061017 9.31322034,51.9966102 9.76271187,51.66 C11.3135593,50.4955932 12.2033898,48.7169492 12.2033898,46.779661 C12.2033898,44.5281356 10.9749153,42.5633898 9.15559322,41.5057627 C9.18915254,36.7138983 10.501017,31.1511864 16.2711864,30.5674576 L16.2711864,38.1050847 C16.2711864,39.3386441 17.1447458,40.3698305 18.3050847,40.618983 L18.3050847,42.7118644 L16.2711864,42.7118644 C15.7098305,42.7118644 15.2542373,43.1674576 15.2542373,43.7288136 L15.2542373,48.8135593 C15.2542373,49.3749153 15.7098305,49.8305085 16.2711864,49.8305085 L18.3050847,49.8305085 L18.3050847,52.8813559 L17.1386441,52.8813559 C15.538983,52.8813559 14.2372881,54.1830508 14.2372881,55.7827119 L14.2372881,57.099661 C14.2372881,58.6983051 15.538983,60 17.1386441,60 L27.4576271,60 L27.4576271,54.9152542 L27.4576271,52.8813559 L27.4576271,40.6779661 L32.5423729,40.6779661 L32.5423729,52.8813559 L32.5423729,54.9152542 L32.5423729,60 L42.8613559,60 C44.461017,60 45.7627119,58.6983051 45.7627119,57.0986441 L45.7627119,55.7816949 C45.7627119,54.1830508 44.461017,52.8813559 42.8613559,52.8813559 L41.6949153,52.8813559 L41.6949153,49.8305085 L43.7288136,49.8305085 C44.2901695,49.8305085 44.7457627,49.3749153 44.7457627,48.8135593 L44.7457627,43.7288136 C44.7457627,43.1674576 44.2901695,42.7118644 43.7288136,42.7118644 L41.6949153,42.7118644 L41.6949153,40.618983 C42.8552542,40.3698305 43.7288136,39.3386441 43.7288136,38.1050847 L43.7288136,30.5674576 C49.498983,31.1511864 50.8108475,36.7138983 50.8444068,41.5057627 C49.0250847,42.5633898 47.7966102,44.5281356 47.7966102,46.779661 C47.7966102,48.7169492 48.6864407,50.4955932 50.2362712,51.661017 C50.6867796,51.9976271 51.3223729,51.9071187 51.66,51.4586441 C51.9976271,51.0101695 51.9061017,50.3725424 51.4576271,50.0349153 C50.4233898,49.2579661 49.8305085,48.0711864 49.8305085,46.779661 C49.8305085,44.5362712 51.6549153,42.7118644 53.8983051,42.7118644 C56.1416949,42.7118644 57.9661017,44.5362712 57.9661017,46.779661 C57.9661017,48.0722034 57.3722034,49.258983 56.3359322,50.0359322 C55.8864407,50.3735593 55.7959322,51.0101695 56.1325424,51.459661 C56.3318644,51.7261017 56.6379661,51.8664407 56.9471187,51.8664407 C57.1586441,51.8664407 57.3732204,51.800339 57.5562712,51.6630508 C59.1101695,50.4986441 60,48.7179661 60,46.779661 C60,44.5240678 58.7674576,42.5552542 56.9430508,41.499661 L56.9430508,41.499661 L56.9430508,41.499661 Z M49.8305085,7.11864407 C50.9522034,7.11864407 51.8644068,8.03084746 51.8644068,9.15254238 C51.8644068,10.2742373 50.9522034,11.1864407 49.8305085,11.1864407 C48.7088136,11.1864407 47.7966102,10.2742373 47.7966102,9.15254238 C47.7966102,8.03084746 48.7088136,7.11864407 49.8305085,7.11864407 L49.8305085,7.11864407 L49.8305085,7.11864407 Z M10.1694915,11.1864407 C9.04779661,11.1864407 8.13559322,10.2742373 8.13559322,9.15254238 C8.13559322,8.03084746 9.04779661,7.11864407 10.1694915,7.11864407 C11.2911864,7.11864407 12.2033898,8.03084746 12.2033898,9.15254238 C12.2033898,10.2742373 11.2911864,11.1864407 10.1694915,11.1864407 L10.1694915,11.1864407 L10.1694915,11.1864407 Z M40.6779661,6.83491525 L40.6779661,11.4711864 L39.661017,11.8098305 L39.661017,6.49525424 L40.6779661,6.83491525 L40.6779661,6.83491525 L40.6779661,6.83491525 Z M19.3220339,11.4701695 L19.3220339,6.83491525 L20.338983,6.49627119 L20.338983,11.8108475 L19.3220339,11.4701695 L19.3220339,11.4701695 L19.3220339,11.4701695 Z M22.3728813,14.2372881 L22.3728813,3.68033898 C22.3728813,2.77322034 23.1122034,2.0338983 24.0193221,2.0338983 L35.9806779,2.0338983 C36.8877966,2.0338983 37.6271187,2.77322034 37.6271187,3.68033898 L37.6271187,14.2372881 L36.6101695,14.2372881 L23.3898305,14.2372881 L22.3728813,14.2372881 L22.3728813,14.2372881 L22.3728813,14.2372881 Z M25.4237288,16.2711864 L34.5762712,16.2711864 L34.5762712,19.3220339 L25.4237288,19.3220339 L25.4237288,16.2711864 L25.4237288,16.2711864 L25.4237288,16.2711864 Z M7.1379661,40.6779661 L5.10508475,40.6779661 C5.37966102,33.9 8.43966102,27.0213559 16.2711864,26.4752542 L16.2711864,28.5162712 C10.6911864,28.9820339 7.41152542,33.3406779 7.1379661,40.6779661 L7.1379661,40.6779661 L7.1379661,40.6779661 Z M17.2881356,47.7966102 L17.2881356,44.7457627 L18.3050847,44.7457627 L21.3559322,44.7457627 L21.3559322,47.7966102 L18.3050847,47.7966102 L17.2881356,47.7966102 L17.2881356,47.7966102 L17.2881356,47.7966102 Z M25.4237288,57.9661017 L17.1386441,57.9661017 C16.659661,57.9661017 16.2711864,57.5776271 16.2711864,57.0986441 L16.2711864,55.7816949 C16.2711864,55.3037288 16.659661,54.9152542 17.1386441,54.9152542 L18.3050847,54.9152542 L25.4237288,54.9152542 L25.4237288,57.9661017 L25.4237288,57.9661017 L25.4237288,57.9661017 Z M25.4237288,52.8813559 L20.338983,52.8813559 L20.338983,49.8305085 L22.3728813,49.8305085 L23.3898305,49.8305085 L23.3898305,48.8135593 L23.3898305,43.7288136 L23.3898305,42.7118644 L22.3728813,42.7118644 L20.338983,42.7118644 L20.338983,40.6779661 L25.4237288,40.6779661 L25.4237288,52.8813559 L25.4237288,52.8813559 L25.4237288,52.8813559 Z M42.8613559,54.9152542 C43.340339,54.9152542 43.7288136,55.3037288 43.7288136,55.7827119 L43.7288136,57.099661 C43.7288136,57.5776271 43.340339,57.9661017 42.8613559,57.9661017 L34.5762712,57.9661017 L34.5762712,54.9152542 L41.6949153,54.9152542 L42.8613559,54.9152542 L42.8613559,54.9152542 L42.8613559,54.9152542 Z M42.7118644,44.7457627 L42.7118644,47.7966102 L41.6949153,47.7966102 L38.6440678,47.7966102 L38.6440678,44.7457627 L41.6949153,44.7457627 L42.7118644,44.7457627 L42.7118644,44.7457627 L42.7118644,44.7457627 Z M37.6271187,42.7118644 L36.6101695,42.7118644 L36.6101695,43.7288136 L36.6101695,48.8135593 L36.6101695,49.8305085 L37.6271187,49.8305085 L39.661017,49.8305085 L39.661017,52.8813559 L34.5762712,52.8813559 L34.5762712,40.6779661 L39.661017,40.6779661 L39.661017,42.7118644 L37.6271187,42.7118644 L37.6271187,42.7118644 L37.6271187,42.7118644 Z M41.6949153,38.1050847 C41.6949153,38.4020339 41.4528813,38.6440678 41.1559322,38.6440678 L32.5423729,38.6440678 L27.4576271,38.6440678 L18.8440678,38.6440678 C18.5471187,38.6440678 18.3050847,38.4020339 18.3050847,38.1050847 L18.3050847,30.5084746 L18.3050847,24.4067796 L18.3050847,21.8949153 C18.3050847,21.5979661 18.5471187,21.3559322 18.8440678,21.3559322 L23.3898305,21.3559322 L36.6101695,21.3559322 L41.1559322,21.3559322 C41.4528813,21.3559322 41.6949153,21.5979661 41.6949153,21.8949153 L41.6949153,24.4067796 L41.6949153,30.5084746 L41.6949153,38.1050847 L41.6949153,38.1050847 L41.6949153,38.1050847 Z M52.8620339,40.6779661 C52.5874576,33.3406779 49.3077966,28.9820339 43.7288136,28.5162712 L43.7288136,26.4752542 C51.560339,27.0213559 54.620339,33.9 54.8949153,40.6779661 L52.8620339,40.6779661 L52.8620339,40.6779661 L52.8620339,40.6779661 Z" id="Shape"></path>
                                        <path d="M33.5593221,8.13559322 C32.9979661,8.13559322 32.5423729,8.59118644 32.5423729,9.15254238 C32.5423729,10.6525424 31.2284746,11.1864407 30,11.1864407 C28.7715254,11.1864407 27.4576271,10.6525424 27.4576271,9.15254238 C27.4576271,8.59118644 27.0020339,8.13559322 26.4406779,8.13559322 C25.8793221,8.13559322 25.4237288,8.59118644 25.4237288,9.15254238 C25.4237288,11.5474576 27.3061017,13.220339 30,13.220339 C32.6938983,13.220339 34.5762712,11.5474576 34.5762712,9.15254238 C34.5762712,8.59118644 34.1206779,8.13559322 33.5593221,8.13559322 L33.5593221,8.13559322 L33.5593221,8.13559322 Z" id="Shape"></path>
                                    </g>
                                </g>
                            </g>
                        </g>
                    </g>
                </g>
            </g>
        </g>
    </g>
</svg>