<?xml version="1.0" encoding="UTF-8"?>
<svg width="22px" height="17px" viewBox="0 0 22 17" version="1.1" xmlns="http://www.w3.org/2000/svg" xmlns:xlink="http://www.w3.org/1999/xlink">
    <!-- Generator: Sketch 41.2 (35397) - http://www.bohemiancoding.com/sketch -->
    <title>notifications</title>
    <desc>Created with Sketch.</desc>
    <defs></defs>
    <g id="Desktop" stroke="none" stroke-width="1" fill="none" fill-rule="evenodd">
        <g id="10.1.-Profile---Overview" transform="translate(-30.000000, -250.000000)" fill="#76767B">
            <g id="Menu" transform="translate(0.000000, 60.000000)">
                <g id="Active-(Hover)" transform="translate(0.000000, 180.000000)">
                    <g id="notifications" transform="translate(30.000000, 10.000000)">
                        <path d="M15.255625,6.6395142 C16.0039196,7.11464489 16.6607768,7.70665057 17.2079286,8.39920739 C17.2853705,8.49719886 17.4013125,8.54848864 17.518433,8.54848864 C17.6026518,8.54848864 17.6875089,8.52197443 17.7592054,8.46720739 C17.9304911,8.33627841 17.9614777,8.09354545 17.8283482,7.92499432 C17.2267366,7.16361648 16.5045179,6.51273864 15.6817277,5.9903267 C15.4994911,5.8746108 15.2562143,5.92614205 15.1386027,6.10536648 C15.0209911,6.2846392 15.0733393,6.5237983 15.255625,6.6395142 Z" id="Shape"></path>
                        <path d="M13.1044866,5.68930114 C13.4050714,5.77125852 13.7039866,5.87224432 13.9928839,5.98940909 C14.0418929,6.00925852 14.0925714,6.01862784 14.1425134,6.01862784 C14.2969062,6.01862784 14.4433437,5.92855682 14.5058571,5.77946875 C14.5885536,5.58218182 14.492942,5.35630398 14.2923884,5.27497443 C13.9743705,5.14602557 13.6453036,5.03489773 13.3144196,4.94468182 C13.1052723,4.88788636 12.8888571,5.00814205 12.8308616,5.2137358 C12.7729643,5.41937784 12.8954375,5.6322642 13.1044866,5.68930114 Z" id="Shape"></path>
                        <path d="M21.2142857,14.2954545 L12.5714286,14.2954545 L12.5714286,13.5227273 L20.8214286,13.5227273 C21.0383839,13.5227273 21.2142857,13.349733 21.2142857,13.1363636 C21.2142857,7.72674148 16.8436027,3.30287784 11.3928571,3.09907102 L11.3928571,2.31818182 C11.3928571,2.29615909 11.3905491,2.27471591 11.3869643,2.25370739 C11.8472455,2.09582955 12.1785714,1.6649375 12.1785714,1.15909091 C12.1785714,0.519997159 11.6498348,0 11,0 C10.3501161,0 9.82142857,0.519997159 9.82142857,1.15909091 C9.82142857,1.6649375 10.1527545,2.09582955 10.6130357,2.25370739 C10.6094509,2.27471591 10.6071429,2.29615909 10.6071429,2.31818182 L10.6071429,3.09907102 C5.15639732,3.30287784 0.785714286,7.72674148 0.785714286,13.1363636 C0.785714286,13.349733 0.961616071,13.5227273 1.17857143,13.5227273 L9.42857143,13.5227273 L9.42857143,14.2954545 L0.785714286,14.2954545 C0.352491071,14.2954545 0,14.6421193 0,15.0681818 L0,16.2272727 C0,16.6533352 0.352491071,17 0.785714286,17 L21.2142857,17 C21.6475089,17 22,16.6533352 22,16.2272727 L22,15.0681818 C22,14.6421193 21.6475089,14.2954545 21.2142857,14.2954545 Z M11,0.772727273 C11.2166116,0.772727273 11.3928571,0.946059659 11.3928571,1.15909091 C11.3928571,1.37212216 11.2166116,1.54545455 11,1.54545455 C10.7833884,1.54545455 10.6071429,1.37212216 10.6071429,1.15909091 C10.6071429,0.946059659 10.7833884,0.772727273 11,0.772727273 Z M11,3.86363636 C16.0672679,3.86363636 20.2130402,7.81555682 20.4197813,12.75 L1.58021875,12.75 C1.78695982,7.81555682 5.93273214,3.86363636 11,3.86363636 Z M10.2142857,13.5227273 L11.7857143,13.5227273 L11.7857143,14.2954545 L10.2142857,14.2954545 L10.2142857,13.5227273 Z M0.785714286,16.2272727 L0.785714286,15.0681818 L21.2142857,15.0681818 L21.2143839,16.2272727 L0.785714286,16.2272727 Z" id="Shape"></path>
                    </g>
                </g>
            </g>
        </g>
    </g>
</svg>