<?xml version="1.0" encoding="UTF-8"?>
<svg width="24px" height="24px" viewBox="0 0 24 24" version="1.1" xmlns="http://www.w3.org/2000/svg" xmlns:xlink="http://www.w3.org/1999/xlink">
    <!-- Generator: Sketch 41.2 (35397) - http://www.bohemiancoding.com/sketch -->
    <title>Group 5</title>
    <desc>Created with Sketch.</desc>
    <defs></defs>
    <g id="Desktop" stroke="none" stroke-width="1" fill="none" fill-rule="evenodd">
        <g id="4.1.-Measure-(Analytics-Dashboard)" transform="translate(-260.000000, -16.000000)">
            <g id="Top-Bar">
                <g id="TopNav" transform="translate(240.000000, 0.000000)">
                    <g id="Group-5">
                        <rect id="Base" fill-opacity="1.49011614e-09" fill="#F0F1F6" x="0" y="0" width="60" height="60"></rect>
                        <path d="M38.3063258,24.4359562 L38.0070676,24.5308123 L36.4133584,24.6727782 L35.9631976,25.3915202 L35.6365604,25.2877515 L34.368215,24.144385 L34.184203,23.5497835 L33.9377925,22.9157117 L33.1406195,22.2007894 L32.2001846,22.0168067 L32.1785362,22.4471607 L33.0998695,23.3460657 L33.550667,23.8770053 L33.0438381,24.1418386 L32.6312438,24.0202445 L32.0129891,23.7624141 L32.0340008,23.2639419 L31.22282,22.930354 L30.9534876,24.1023682 L30.1359396,24.2876241 L30.216803,24.9414311 L31.282035,25.1464222 L31.4660469,24.1017316 L32.3453567,24.2316017 L32.7541307,24.4709702 L33.4099519,24.4709702 L33.8588393,25.3698752 L35.0488682,26.5769035 L34.9616376,27.0460912 L34.0021012,26.9238605 L32.3440833,27.7610135 L31.150234,29.192768 L30.9948744,29.8268398 L30.5663621,29.8268398 L29.7679157,29.4588745 L28.9923912,29.8268398 L29.1853172,30.6448943 L29.5227786,30.2559206 L30.1162013,30.2374586 L30.0748146,30.9721161 L30.5663621,31.1159919 L31.0572729,31.6673033 L31.8589029,31.4419404 L32.7745057,31.5864528 L33.8378275,31.8722944 L34.3688517,31.934683 L35.2691732,32.9564553 L37.0067811,33.9782277 L35.8829709,36.1249045 L34.6967623,36.6762159 L34.2466015,37.9029794 L32.5300054,39.0488923 L32.3472669,39.7097021 C36.7355385,38.6529157 40,34.7116119 40,29.9993634 C39.9987266,27.9411765 39.3747413,26.0255921 38.3063258,24.4359562 Z M31.1495973,35.2259995 L30.42119,33.8757321 L31.0897456,32.4828113 L30.42119,32.2829132 L29.6704976,31.5291571 L28.0073859,31.1560988 L27.45535,30.0012732 L27.45535,30.6869111 L27.2121231,30.6869111 L25.7788673,28.7439521 L25.7788673,27.1479501 L24.7282799,25.4399032 L23.0600745,25.737204 L21.9362644,25.737204 L21.3708573,25.3666921 L22.0922607,24.7950089 L21.3727675,24.9611663 C20.5055554,26.4419404 20,28.1601732 20,30.0006366 C20,35.522027 24.4767757,40 29.9996816,40 C30.4250103,40 30.8420617,39.9624395 31.254656,39.9127833 L31.150234,38.7012987 C31.150234,38.7012987 31.6093088,36.9022154 31.6093088,36.8411001 C31.6086721,36.7793481 31.1495973,35.2259995 31.1495973,35.2259995 Z M23.7158957,23.2244716 L25.4923434,22.9768271 L26.3111649,22.5280112 L27.2324982,22.793481 L28.7045939,22.7119939 L29.2088759,21.9194041 L29.944287,22.0403616 L31.7302856,21.872931 L32.2224698,21.3305322 L32.9164942,20.8670741 L33.8983159,21.0147695 L34.2561523,20.960657 C32.9629748,20.3520499 31.5239884,20 29.9990449,20 C26.8950368,20 24.1195759,21.4145658 22.2870969,23.635727 L22.2921906,23.635727 L23.7158957,23.2244716 Z" id="Combined-Shape" fill-opacity="0.5" fill="#FFFFFF"></path>
                    </g>
                </g>
            </g>
        </g>
    </g>
</svg>