<?xml version="1.0" encoding="UTF-8"?>
<svg width="22px" height="22px" viewBox="0 0 22 22" version="1.1" xmlns="http://www.w3.org/2000/svg" xmlns:xlink="http://www.w3.org/1999/xlink">
    <!-- Generator: Sketch 41.2 (35397) - http://www.bohemiancoding.com/sketch -->
    <title>overview</title>
    <desc>Created with Sketch.</desc>
    <defs></defs>
    <g id="Desktop" stroke="none" stroke-width="1" fill="none" fill-rule="evenodd">
        <g id="10.1.-Profile---Overview" transform="translate(-30.000000, -89.000000)" fill="#0B61FF">
            <g id="Menu" transform="translate(0.000000, 60.000000)">
                <g id="Active-(Hover)" transform="translate(0.000000, 20.000000)">
                    <g id="overview" transform="translate(30.000000, 9.000000)">
                        <path d="M11,22 C4.93466667,22 0,17.0653333 0,11 C0,4.93466667 4.93466667,0 11,0 C17.0653333,0 22,4.93466667 22,11 C22,17.0653333 17.0653333,22 11,22 Z M11,0.666666667 C5.302,0.666666667 0.666666667,5.302 0.666666667,11 C0.666666667,16.698 5.302,21.3333333 11,21.3333333 C16.698,21.3333333 21.3333333,16.698 21.3333333,11 C21.3333333,5.302 16.698,0.666666667 11,0.666666667 Z" id="Shape"></path>
                        <path d="M11,22 C8.71,22 6.50933333,21.2946667 4.634,19.96 C4.534,19.8886667 4.48066667,19.7666667 4.49666667,19.6446667 C4.51266667,19.5226667 4.59533333,19.4186667 4.71133333,19.376 C7.47533333,18.3526667 7.92133333,17.522 7.92133333,15.93 C7.92133333,15.5093333 7.82666667,15.3713333 7.656,15.1206667 C7.43,14.7913333 7.12066667,14.34 6.90333333,13.1613333 C6.87133333,12.992 6.844,12.9786667 6.69266667,12.9053333 C6.28866667,12.7106667 5.91733333,12.4306667 5.82,11.1533333 C5.82,10.5346667 6.03333333,10.1926667 6.21,10.0146667 C6.17133333,9.79466667 6.108,9.41533333 6.04866667,9.002 C5.74666667,7.15066667 5.73333333,4.88333333 8.33733333,3.82933333 C10.6066667,2.90933333 12.418,3.412 12.9866667,4.01133333 C13.3893333,4.024 14.428,4.12933333 15.1506667,4.97 C16.2626667,6.26333333 15.9086667,9.212 15.7873333,10.0113333 C15.9646667,10.1853333 16.18,10.5226667 16.18,11.128 C16.0826667,12.4306667 15.7113333,12.7113333 15.3066667,12.9053333 C15.1546667,12.9786667 15.1273333,12.9913333 15.096,13.1613333 C14.8786667,14.34 14.57,14.7913333 14.344,15.1206667 C14.1726667,15.3706667 14.0786667,15.5093333 14.0786667,15.93 C14.0786667,17.522 14.5246667,18.3526667 17.2886667,19.376 C17.4046667,19.4186667 17.4873333,19.522 17.5033333,19.6446667 C17.5193333,19.7673333 17.466,19.8886667 17.366,19.96 C15.4906667,21.2946667 13.29,22 11,22 Z M5.54466667,19.7673333 C7.186,20.794 9.05933333,21.3333333 11,21.3333333 C12.9406667,21.3333333 14.814,20.794 16.4553333,19.7673333 C14.1393333,18.8166667 13.412,17.858 13.412,15.9306667 C13.412,15.3033333 13.5973333,15.032 13.794,14.7446667 C13.9966667,14.4486667 14.2486667,14.0806667 14.4413333,13.0406667 C14.534,12.538 14.8253333,12.398 15.018,12.3053333 C15.2253333,12.206 15.4386667,12.1033333 15.514,11.1033333 C15.5133333,10.594 15.2846667,10.4553333 15.2753333,10.45 C15.1526667,10.3793333 15.0733333,10.2306667 15.0993333,10.092 C15.2646667,9.206 15.5366667,6.44266667 14.6453333,5.40466667 C14.0366667,4.69666667 13.0773333,4.67733333 12.8946667,4.68466667 C12.864,4.682 12.834,4.68133333 12.8053333,4.674 C12.7186667,4.652 12.572,4.57666667 12.5273333,4.49933333 C12.346,4.18866667 10.7666667,3.564 8.58733333,4.446 C6.43333333,5.318 6.42866667,7.18733333 6.708,8.90066667 C6.8,9.53866667 6.90066667,10.09 6.90133333,10.0926667 C6.92866667,10.2426667 6.85066667,10.392 6.71266667,10.4553333 L6.71266667,10.4553333 C6.71466667,10.4553333 6.48666667,10.5946667 6.48666667,11.1273333 C6.56133333,12.1013333 6.77533333,12.2046667 6.982,12.304 C7.17466667,12.3966667 7.46666667,12.5366667 7.55933333,13.0393333 C7.75133333,14.0793333 8.00333333,14.4473333 8.206,14.7433333 C8.40333333,15.0306667 8.58866667,15.302 8.58866667,15.9293333 C8.58866667,17.8586667 7.86133333,18.8173333 5.54466667,19.7673333 Z" id="Shape"></path>
                    </g>
                </g>
            </g>
        </g>
    </g>
</svg>