<?xml version="1.0" encoding="UTF-8"?>
<svg width="18px" height="20px" viewBox="0 0 18 20" version="1.1" xmlns="http://www.w3.org/2000/svg" xmlns:xlink="http://www.w3.org/1999/xlink">
    <!-- Generator: Sketch 42 (36781) - http://www.bohemiancoding.com/sketch -->
    <title>recycling-bin-solid</title>
    <desc>Created with Sketch.</desc>
    <defs></defs>
    <g id="Iconography" stroke="none" stroke-width="1" fill="none" fill-rule="evenodd">
        <g id="Icons" transform="translate(-157.000000, -706.000000)" fill-rule="nonzero" fill="#767B7B">
            <g id="recycling-bin-solid" transform="translate(157.000000, 706.000000)">
                <path d="M17.641281,3.74552916 C17.839416,3.74552916 18,3.89062635 18,4.06954644 C18,4.24846652 17.8393681,4.39352052 17.6412332,4.39352052 L16.935515,4.39352052 L15.6811228,18.5529158 C15.6092259,19.3643629 14.8467747,20 13.9453133,20 L4.05473453,20 C3.15327315,20 2.39082195,19.3643629 2.31892508,18.5529158 L1.06448501,4.39352052 L0.358766799,4.39352052 C0.160631855,4.39352052 0,4.24846652 0,4.06954644 C0,3.89062635 0.160631855,3.74557235 0.358766799,3.74557235 L0.691271868,3.74557235 L0.691271868,3.13317495 C0.691271868,2.61032397 1.16235659,2.18492441 1.74135837,2.18492441 L5.61857508,2.18492441 L6.09224293,0.687732181 C6.22039443,0.282807775 6.63555937,0 7.10190837,0 L10.8981395,0 C11.3644406,0 11.7796534,0.282807775 11.9078049,0.687688985 L12.3814728,2.18488121 L16.2586895,2.18488121 C16.8376912,2.18488121 17.308776,2.61028078 17.308776,3.13313175 L17.308776,3.74552916 L17.641281,3.74552916 Z M9,16.6183153 C9.19776127,16.6183153 9.35809019,16.5051778 9.35809019,16.3656259 L9.35809019,6.87100479 C9.35809019,6.73145283 9.19776127,6.61831533 9,6.61831533 C8.80223873,6.61831533 8.64190981,6.73145283 8.64190981,6.87100479 L8.64190981,16.3655922 C8.64190981,16.5051778 8.80223873,16.6183153 9,16.6183153 Z M6.7821754,0.86574514 L6.36481003,2.18492441 L11.6352378,2.18492441 L11.2178724,0.86574514 C11.1773079,0.7374946 11.0458079,0.647948164 10.8981395,0.647948164 L7.10190837,0.647948164 C6.95423996,0.647948164 6.82273997,0.7374946 6.7821754,0.86574514 Z M5.53741114,16.3785594 C5.54724668,16.5135292 5.70537931,16.618311 5.8947374,16.618311 C5.90089655,16.618311 5.90715119,16.61821 5.91340584,16.6179741 C6.11092838,16.6108314 6.26280637,16.4920337 6.25268435,16.3526503 L5.56262069,6.85806607 C5.55249867,6.71868261 5.38467374,6.61147493 5.18662599,6.61865131 C4.98910345,6.625794 4.83722546,6.74459169 4.84734748,6.88397515 L5.53741114,16.3785594 Z M12.0865942,16.6179781 C12.0928488,16.6182139 12.0990557,16.618315 12.1052626,16.618315 C12.2946207,16.618315 12.4527533,16.5135331 12.4625889,16.3785633 L13.1526048,6.88397611 C13.1627268,6.74459261 13.0108488,6.62582857 12.8133263,6.61865219 C12.615374,6.6115095 12.4475013,6.71871721 12.4373316,6.85806702 L11.7473156,16.3526542 C11.7372414,16.4920377 11.8891194,16.6108017 12.0865942,16.6179781 Z" id="Combined-Shape"></path>
            </g>
        </g>
    </g>
</svg>