<?xml version="1.0" encoding="UTF-8"?>
<svg width="28px" height="28px" viewBox="0 0 28 28" version="1.1" xmlns="http://www.w3.org/2000/svg" xmlns:xlink="http://www.w3.org/1999/xlink">
    <!-- Generator: Sketch 41.2 (35397) - http://www.bohemiancoding.com/sketch -->
    <title>search</title>
    <desc>Created with Sketch.</desc>
    <defs></defs>
    <g id="Desktop" stroke="none" stroke-width="1" fill="none" fill-rule="evenodd">
        <g id="4.1.-Measure-(Analytics-Dashboard)" transform="translate(-1176.000000, -16.000000)" fill="#FFFFFF">
            <g id="Top-Bar">
                <g id="search" transform="translate(1176.000000, 16.000000)">
                    <circle id="icon" fill-opacity="0.100000001" cx="14" cy="14" r="14"></circle>
                    <path d="M13.0625,16.5 L13.0625,16.5 C14.9609788,16.5 16.5,14.9609788 16.5,13.0625 C16.5,11.1640212 14.9609788,9.625 13.0625,9.625 C11.1640212,9.625 9.625,11.1640212 9.625,13.0625 C9.625,14.9609788 11.1640212,16.5 13.0625,16.5 L13.0625,16.5 Z M13.0625,17.125 C10.8188432,17.125 9,15.3061568 9,13.0625 C9,10.8188432 10.8188432,9 13.0625,9 C15.3061568,9 17.125,10.8188432 17.125,13.0625 C17.125,15.3061568 15.3061568,17.125 13.0625,17.125 Z M16.2790291,16.7209709 L18.4665291,18.9084709 C18.588568,19.0305097 18.786432,19.0305097 18.9084709,18.9084709 C19.0305097,18.786432 19.0305097,18.588568 18.9084709,18.4665291 L16.7209709,16.2790291 C16.598932,16.1569903 16.401068,16.1569903 16.2790291,16.2790291 C16.1569903,16.401068 16.1569903,16.598932 16.2790291,16.7209709 Z" id="Shape"></path>
                </g>
            </g>
        </g>
    </g>
</svg>