<?xml version="1.0" encoding="UTF-8"?>
<svg width="30px" height="30px" viewBox="0 0 30 30" version="1.1" xmlns="http://www.w3.org/2000/svg" xmlns:xlink="http://www.w3.org/1999/xlink">
    <!-- Generator: Sketch 41.2 (35397) - http://www.bohemiancoding.com/sketch -->
    <title>Combined Shape</title>
    <desc>Created with Sketch.</desc>
    <defs></defs>
    <g id="Desktop" stroke="none" stroke-width="1" fill="none" fill-rule="evenodd" fill-opacity="0.6">
        <g id="5.1---Messaging---Inbox" transform="translate(-264.000000, -84.000000)" fill="#4A4A4A">
            <g id="Conversations" transform="translate(240.000000, 60.000000)">
                <g id="Search" transform="translate(24.000000, 24.000000)">
                    <path d="M15,30 C23.2842712,30 30,23.2842712 30,15 C30,6.71572875 23.2842712,0 15,0 C6.71572875,0 0,6.71572875 0,15 C0,23.2842712 6.71572875,30 15,30 Z M14.0625,17.5 C15.9609788,17.5 17.5,15.9609788 17.5,14.0625 C17.5,12.1640212 15.9609788,10.625 14.0625,10.625 C12.1640212,10.625 10.625,12.1640212 10.625,14.0625 C10.625,15.9609788 12.1640212,17.5 14.0625,17.5 Z M14.0625,18.125 L14.0625,18.125 C11.8188432,18.125 10,16.3061568 10,14.0625 C10,11.8188432 11.8188432,10 14.0625,10 C16.3061568,10 18.125,11.8188432 18.125,14.0625 C18.125,16.3061568 16.3061568,18.125 14.0625,18.125 L14.0625,18.125 Z M17.2790291,17.7209709 L19.4665291,19.9084709 C19.588568,20.0305097 19.786432,20.0305097 19.9084709,19.9084709 C20.0305097,19.786432 20.0305097,19.588568 19.9084709,19.4665291 L17.7209709,17.2790291 C17.598932,17.1569903 17.401068,17.1569903 17.2790291,17.2790291 C17.1569903,17.401068 17.1569903,17.598932 17.2790291,17.7209709 L17.2790291,17.7209709 Z" id="Combined-Shape"></path>
                </g>
            </g>
        </g>
    </g>
</svg>