<?xml version="1.0" encoding="UTF-8"?>
<svg width="22px" height="21px" viewBox="0 0 22 21" version="1.1" xmlns="http://www.w3.org/2000/svg" xmlns:xlink="http://www.w3.org/1999/xlink">
    <!-- Generator: Sketch 41.2 (35397) - http://www.bohemiancoding.com/sketch -->
    <title>Combined Shape</title>
    <desc>Created with Sketch.</desc>
    <defs></defs>
    <g id="Desktop" stroke="none" stroke-width="1" fill="none" fill-rule="evenodd">
        <g id="5.1---Messaging---Inbox" transform="translate(-30.000000, -167.000000)" fill="#767B7B">
            <g id="Menu" transform="translate(0.000000, 60.000000)">
                <g id="Grid-View" transform="translate(0.000000, 97.000000)">
                    <path d="M51.7043051,21.9066182 L51.6599322,21.7901636 L51.6453898,21.4942545 L51.4865424,21.4942545 L47.7629492,15.7669818 L43.4617627,15.7669818 L43.4617627,16.5306182 L47.3639661,16.5306182 L50.6002034,21.4942545 L44.5804068,21.4942545 L44.5804068,24.1669818 L37.1227797,24.1669818 L37.1227797,21.4942545 L31.1029831,21.4942545 L34.3392203,16.5306182 L38.2414237,16.5306182 L38.2414237,15.7669818 L33.9398644,15.7669818 L30.1987458,21.5060909 L30.0380339,21.5144909 L30.0380339,21.823 L30,21.9188364 L30.0380339,21.9738182 L30.0380339,29.3654364 C30.0380339,30.0779091 30.6044407,30.6575091 31.3002373,30.6575091 L50.4029492,30.6575091 C51.0987458,30.6575091 51.6651525,30.0779091 51.6651525,29.3654364 L51.6651525,21.9673273 L51.7043051,21.9066182 L51.7043051,21.9066182 Z M50.9193898,29.3654364 C50.9193898,29.6567636 50.6878305,29.8938727 50.4029492,29.8938727 L31.2998644,29.8938727 C31.0149831,29.8938727 30.7834237,29.6567636 30.7834237,29.3654364 L30.7834237,22.2578909 L36.3766441,22.2578909 L36.3766441,24.9306182 L45.3257966,24.9306182 L45.3257966,22.2578909 L50.9190169,22.2578909 L50.9190169,29.3654364 L50.9193898,29.3654364 Z M38.1321695,13.9040909 C37.9863729,14.0533818 37.7507119,14.0533818 37.6049153,13.9040909 C37.4591186,13.7548 37.4591186,13.5134909 37.6049153,13.3642 L40.5875932,10.3100364 C40.5879661,10.3096545 40.5879661,10.3096545 40.588339,10.3092727 L40.8515932,10.0397091 L41.1148475,10.3092727 C41.1152203,10.3096545 41.1152203,10.3096545 41.1155932,10.3100364 L44.0982712,13.3642 C44.2440678,13.5134909 44.2440678,13.7548 44.0982712,13.9040909 C43.9524746,14.0533818 43.7168136,14.0533818 43.5710169,13.9040909 L41.2244746,11.5013091 L41.2244746,22.0337636 C41.2244746,22.2445273 41.0577966,22.4155818 40.8515932,22.4155818 C40.6453898,22.4155818 40.4787119,22.2445273 40.4787119,22.0337636 L40.4787119,11.5009273 L38.1321695,13.9040909 Z" id="Combined-Shape"></path>
                </g>
            </g>
        </g>
    </g>
</svg>