<?xml version="1.0" encoding="UTF-8"?>
<svg width="21px" height="21px" viewBox="0 0 21 21" version="1.1" xmlns="http://www.w3.org/2000/svg" xmlns:xlink="http://www.w3.org/1999/xlink">
    <!-- Generator: Sketch 41.2 (35397) - http://www.bohemiancoding.com/sketch -->
    <title>share</title>
    <desc>Created with Sketch.</desc>
    <defs></defs>
    <g id="Desktop" stroke="none" stroke-width="1" fill="none" fill-rule="evenodd">
        <g id="9.1.1.-Growth-Hacks" transform="translate(-1070.000000, -150.000000)" fill="#0B61FF">
            <g id="Top-Bar">
                <g id="Group-2" transform="translate(320.000000, 80.000000)">
                    <g id="Group-Copy-7" transform="translate(0.000000, 50.000000)">
                        <path d="M766.237808,33.4912791 C765.017544,33.4912791 763.929438,34.0668605 763.233403,34.9563953 L757.405209,31.7340116 C757.541773,31.3459302 757.616663,30.9273256 757.616663,30.4956395 C757.616663,30.059593 757.541773,29.6453488 757.400804,29.252907 L763.224592,26.0348837 C763.916222,26.9287791 765.008733,27.5087209 766.233403,27.5087209 C768.321508,27.5087209 770.026354,25.8255814 770.026354,23.7543605 C770.026354,21.6831395 768.325914,20 766.233403,20 C764.140892,20 762.440451,21.6831395 762.440451,23.7543605 C762.440451,24.190407 762.515341,24.6090116 762.65631,24.997093 L756.836927,28.2151163 C756.145297,27.3168605 755.052786,26.7412791 753.828116,26.7412791 C751.740011,26.7412791 750.035165,28.4244186 750.035165,30.4956395 C750.035165,32.5668605 751.740011,34.25 753.832522,34.25 C755.057191,34.25 756.149702,33.6700581 756.845738,32.7718023 L762.669526,35.994186 C762.528557,36.3866279 762.449262,36.809593 762.449262,37.2456395 C762.449262,39.3125 764.149702,41 766.242213,41 C768.334724,41 770.035165,39.3168605 770.035165,37.2456395 C770.035165,35.1744186 768.330319,33.4912791 766.237808,33.4912791 Z M766.237808,21.181686 C767.673931,21.181686 768.841332,22.3372093 768.841332,23.7587209 C768.841332,25.1802326 767.673931,26.3357558 766.237808,26.3357558 C764.801685,26.3357558 763.634284,25.1802326 763.634284,23.7587209 C763.634284,22.3372093 764.80609,21.181686 766.237808,21.181686 Z M753.832522,33.0726744 C752.396398,33.0726744 751.228997,31.9171512 751.228997,30.4956395 C751.228997,29.0741279 752.396398,27.9186047 753.832522,27.9186047 C755.268645,27.9186047 756.436046,29.0741279 756.436046,30.4956395 C756.436046,31.9171512 755.26424,33.0726744 753.832522,33.0726744 Z M766.237808,39.818314 C764.801685,39.818314 763.634284,38.6627907 763.634284,37.2412791 C763.634284,35.8197674 764.801685,34.6642442 766.237808,34.6642442 C767.673931,34.6642442 768.841332,35.8197674 768.841332,37.2412791 C768.841332,38.6627907 767.673931,39.818314 766.237808,39.818314 Z" id="share"></path>
                    </g>
                </g>
            </g>
        </g>
    </g>
</svg>