<?xml version="1.0" encoding="UTF-8"?>
<svg width="32px" height="32px" viewBox="0 0 32 32" version="1.1" xmlns="http://www.w3.org/2000/svg" xmlns:xlink="http://www.w3.org/1999/xlink">
    <!-- Generator: Sketch 41.2 (35397) - http://www.bohemiancoding.com/sketch -->
    <title>skype_app</title>
    <desc>Created with Sketch.</desc>
    <defs>
        <linearGradient x1="50%" y1="0%" x2="50%" y2="100%" id="linearGradient-1">
            <stop stop-color="#4CC4FF" offset="0%"></stop>
            <stop stop-color="#2591FF" offset="100%"></stop>
        </linearGradient>
    </defs>
    <g id="Desktop" stroke="none" stroke-width="1" fill="none" fill-rule="evenodd">
        <g id="8.1.2.-Apps---Chatbot-Integrations---Coming-Soon" transform="translate(-834.000000, -580.000000)" fill="url(#linearGradient-1)">
            <g id="Top-Bar">
                <g id="Group-2" transform="translate(470.000000, 120.000000)">
                    <path d="M380.069,485.201641 C374.7,485.201641 372.299,482.556276 372.299,480.573505 C372.299,479.556057 373.048,478.843342 374.08,478.843342 C376.378,478.843342 375.783,482.150299 380.069,482.150299 C382.263,482.150299 383.475,480.955424 383.475,479.733484 C383.475,478.998716 383.113,478.183755 381.668,477.826896 L376.893,476.632021 C373.048,475.665696 372.35,473.581681 372.35,471.622968 C372.35,467.55518 376.17,466.028506 379.758,466.028506 C383.062,466.028506 386.958,467.858911 386.958,470.298781 C386.958,471.344297 386.055,471.952761 385.023,471.952761 C383.062,471.952761 383.423,469.232215 379.474,469.232215 C377.514,469.232215 376.429,470.122357 376.429,471.39542 C376.429,472.665476 377.977,473.071453 379.32,473.378191 L382.855,474.165085 C386.726,475.029164 387.707,477.294615 387.707,479.42875 C387.707,482.733703 385.177,485.201641 380.069,485.201641 M394.867,478.670927 C394.857,478.727062 394.85,478.784199 394.839,478.840335 L394.785,478.517558 C394.814,478.567678 394.839,478.619804 394.867,478.670927 C395.032,477.769758 395.119,476.847539 395.119,475.92532 C395.119,473.8804 394.719,471.896626 393.931,470.029133 C393.169,468.225793 392.081,466.605895 390.692,465.214548 C389.305,463.8232 387.688,462.731573 385.889,461.968737 C384.027,461.178837 382.048,460.778874 380.009,460.778874 C379.047,460.778874 378.084,460.869091 377.147,461.049525 C377.145,461.049525 377.143,461.049525 377.14,461.050528 C377.193,461.078595 377.246,461.103656 377.298,461.132726 L376.98,461.082605 C377.033,461.072581 377.087,461.061554 377.14,461.050528 C375.854,460.36588 374.409,460 372.945,460 C370.556,460 368.309,460.932243 366.62,462.62632 C364.931,464.319394 364,466.571813 364,468.967578 C364,470.491245 364.391,471.989851 365.125,473.315039 C365.134,473.259907 365.141,473.203772 365.152,473.149641 L365.207,473.467406 C365.178,473.417285 365.153,473.36516 365.125,473.315039 C364.976,474.172102 364.897,475.049212 364.897,475.92532 C364.897,477.970241 365.297,479.954014 366.086,481.821508 C366.846,483.62585 367.936,485.244745 369.323,486.636093 C370.711,488.026439 372.326,489.12007 374.127,489.880901 C375.989,490.672806 377.969,491.072769 380.009,491.072769 C380.896,491.072769 381.786,490.991573 382.655,490.837202 C382.604,490.809134 382.552,490.783072 382.501,490.752999 L382.824,490.810137 C382.768,490.820161 382.712,490.827178 382.655,490.837202 C383.993,491.59703 385.508,492 387.055,492 C389.445,492 391.69,491.068759 393.38,489.37368 C395.07,487.681609 396,485.429189 396,483.033424 C396,481.503743 395.607,480.000125 394.867,478.670927" id="skype_app"></path>
                </g>
            </g>
        </g>
    </g>
</svg>