<?xml version="1.0" encoding="UTF-8"?>
<svg width="32px" height="32px" viewBox="0 0 32 32" version="1.1" xmlns="http://www.w3.org/2000/svg" xmlns:xlink="http://www.w3.org/1999/xlink">
    <!-- Generator: Sketch 41.2 (35397) - http://www.bohemiancoding.com/sketch -->
    <title>slack_app</title>
    <desc>Created with Sketch.</desc>
    <defs>
        <linearGradient x1="50%" y1="0%" x2="50%" y2="100%" id="linearGradient-1">
            <stop stop-color="#DE2535" offset="0%"></stop>
            <stop stop-color="#9F031B" offset="100%"></stop>
        </linearGradient>
    </defs>
    <g id="Desktop" stroke="none" stroke-width="1" fill="none" fill-rule="evenodd">
        <g id="8.1.2.-Apps---Chatbot-Integrations---Coming-Soon" transform="translate(-1094.000000, -580.000000)" fill="url(#linearGradient-1)">
            <g id="Top-Bar">
                <g id="Group-2" transform="translate(470.000000, 120.000000)">
                    <path d="M654.660394,471.601549 C651.362394,460.605549 646.597394,458.040549 635.601394,461.339549 C624.606394,464.637549 622.040394,469.402549 625.339394,480.398549 C628.638394,491.393549 633.403394,493.959549 644.398394,490.660549 C655.394394,487.361549 657.959394,482.596549 654.660394,471.601549 Z M649.099394,478.739549 L647.026394,479.433549 L647.744394,481.579549 C648.035394,482.447549 647.567394,483.387549 646.698394,483.678549 C646.509394,483.742549 646.317394,483.769549 646.129394,483.764549 C645.451394,483.746549 644.826394,483.312549 644.599394,482.632549 L643.880394,480.487549 L639.605394,481.919549 L640.323394,484.064549 C640.614394,484.933549 640.146394,485.873549 639.277394,486.164549 C639.088394,486.227549 638.896394,486.254549 638.708394,486.249549 C638.030394,486.232549 637.405394,485.797549 637.178394,485.118549 L636.459394,482.972549 L634.386394,483.667549 C634.197394,483.730549 634.004394,483.757549 633.816394,483.752549 C633.139394,483.735549 632.514394,483.300549 632.286394,482.620549 C631.995394,481.752549 632.463394,480.812549 633.332394,480.521549 L635.406394,479.826549 L634.027394,475.711549 L631.954394,476.406549 C631.765394,476.469549 631.573394,476.496549 631.384394,476.491549 C630.707394,476.474549 630.082394,476.039549 629.854394,475.359549 C629.563394,474.491549 630.032394,473.551549 630.900394,473.260549 L632.974394,472.565549 L632.255394,470.420549 C631.964394,469.551549 632.432394,468.611549 633.301394,468.321549 C634.170394,468.030549 635.110394,468.498549 635.401394,469.367549 L636.119394,471.512549 L640.395394,470.080549 L639.676394,467.935549 C639.385394,467.066549 639.854394,466.126549 640.722394,465.835549 C641.591394,465.544549 642.531394,466.013549 642.822394,466.881549 L643.540394,469.027549 L645.614394,468.332549 C646.483394,468.041549 647.422394,468.510549 647.713394,469.378549 C648.004394,470.247549 647.536394,471.187549 646.667394,471.478549 L644.594394,472.172549 L645.972394,476.288549 L648.046394,475.593549 C648.914394,475.303549 649.854394,475.771549 650.145394,476.639549 C650.436394,477.508549 649.968394,478.448549 649.099394,478.739549 Z M637.173094,474.658249 L638.551094,478.773249 L642.827094,477.341249 L641.449094,473.226249 L637.173094,474.658249 Z" id="slack_app"></path>
                </g>
            </g>
        </g>
    </g>
</svg>