<?xml version="1.0" encoding="UTF-8"?>
<svg width="22px" height="20px" viewBox="0 0 22 20" version="1.1" xmlns="http://www.w3.org/2000/svg" xmlns:xlink="http://www.w3.org/1999/xlink">
    <!-- Generator: Sketch 41.2 (35397) - http://www.bohemiancoding.com/sketch -->
    <title>stylizebot</title>
    <desc>Created with Sketch.</desc>
    <defs></defs>
    <g id="Desktop" stroke="none" stroke-width="1" fill="none" fill-rule="evenodd">
        <g id="7.1.-KoalaBot---FAQs" transform="translate(-30.000000, -131.000000)" fill="#76767B">
            <g id="Menu" transform="translate(0.000000, 60.000000)">
                <g id="Active-(Hover)" transform="translate(0.000000, 60.000000)">
                    <g id="stylizebot" transform="translate(30.000000, 11.000000)">
                        <path d="M5.72411656,13.3063481 C5.41058282,13.0557679 5.01761963,12.9177474 4.61763804,12.9177474 C4.07404908,12.9177474 3.56784663,13.1620478 3.22880368,13.5881229 C2.93234356,13.9610922 2.79811656,14.4277133 2.85102454,14.9019113 C2.904,15.3771331 3.13837423,15.8027986 3.51088957,16.1006143 C3.82442331,16.3512628 4.21725153,16.4892833 4.61716564,16.4892833 C5.16115951,16.4892833 5.66742945,16.2445051 6.00620245,15.8180205 C6.30239264,15.4456655 6.43648466,14.9795904 6.38377914,14.5055973 C6.33093865,14.0303754 6.09669939,13.6044369 5.72411656,13.3063481 Z M5.3750184,15.3047782 C5.19065031,15.5369966 4.9143681,15.6702389 4.61716564,15.6702389 C4.3956135,15.6702389 4.18668098,15.5968601 4.01311043,15.4580887 C3.8112638,15.2967235 3.68439264,15.0666212 3.65571166,14.8101024 C3.62723313,14.5546075 3.69971166,14.3028669 3.85971779,14.1016382 C4.04415337,13.8698294 4.32043558,13.7368601 4.61763804,13.7368601 C4.83939264,13.7368601 5.04839264,13.8102389 5.22189571,13.948942 C5.42367485,14.1103072 5.55047853,14.3405461 5.57902454,14.5972014 C5.60743558,14.8524915 5.53509202,15.103686 5.3750184,15.3047782 Z" id="Shape"></path>
                        <path d="M12.8443558,9.11153584 C13.1114601,9.11153584 13.3697239,9.05235495 13.6126012,8.9352901 C14.0419387,8.72750853 14.3644479,8.3640273 14.5205399,7.91174061 C14.6758221,7.46232082 14.6478834,6.97870307 14.4420552,6.55037543 C14.1476196,5.93645051 13.5187975,5.53972696 12.8401043,5.53972696 C12.5724601,5.53972696 12.3136564,5.59911263 12.0708466,5.71631399 C11.6416442,5.92341297 11.319,6.28662116 11.162638,6.73904437 C11.0070859,7.18880546 11.0349571,7.67249147 11.2411227,8.10102389 C11.5365031,8.71488055 12.1657975,9.11153584 12.8443558,9.11153584 Z M11.9269693,7.0094198 C12.0115951,6.7647099 12.1865153,6.56798635 12.4194724,6.45556314 C12.5525521,6.39139932 12.694,6.35883959 12.8400368,6.35883959 C13.2105951,6.35883959 13.5534172,6.57433447 13.7134908,6.90819113 C13.8245031,7.13918089 13.8395521,7.39959044 13.7560061,7.64163823 C13.6714479,7.88648464 13.4963252,8.08348123 13.263638,8.19610922 C13.1310307,8.26006826 12.9899202,8.29242321 12.8442883,8.29242321 C12.4733926,8.29242321 12.1298957,8.07658703 11.9691472,7.74259386 C11.8582699,7.51194539 11.8432883,7.2516041 11.9269693,7.0094198 Z" id="Shape"></path>
                        <path d="M8.43794479,6.21713311 C8.56819018,6.2468942 8.70147239,6.26197952 8.83407975,6.26197952 C9.66765031,6.26197952 10.379816,5.69174061 10.5660736,4.87447099 C10.6707423,4.41105802 10.5902331,3.93399317 10.3395951,3.53098976 C10.086865,3.12484642 9.6918773,2.8425256 9.22771779,2.73617747 C9.09693252,2.70614334 8.96311043,2.69085324 8.82989571,2.69085324 C7.99686503,2.69085324 7.28544172,3.26170648 7.09979141,4.07883959 C6.9942454,4.54191126 7.07421472,5.01904437 7.32492025,5.42232082 C7.57785276,5.82901024 7.9732454,6.11133106 8.43794479,6.21713311 Z M7.88902454,4.26259386 C7.98964417,3.81952218 8.37660123,3.51003413 8.82989571,3.51003413 C8.90271166,3.51003413 8.97620245,3.51843003 9.04847853,3.53501706 C9.30168098,3.59303754 9.5167546,3.7465529 9.65415337,3.96730375 C9.78952761,4.18484642 9.83298773,4.4421843 9.77670552,4.69119454 C9.67743558,5.12675768 9.28096319,5.44286689 8.83401227,5.44286689 C8.76139877,5.44286689 8.68817791,5.43453925 8.61610429,5.41808874 C8.36283436,5.36040956 8.14776074,5.20703072 8.01042945,4.98627986 C7.87532515,4.76887372 7.83220245,4.51194539 7.88902454,4.26259386 Z" id="Shape"></path>
                        <path d="M5.22034356,7.23890785 C5.59245399,6.94068259 5.82642331,6.51467577 5.87933129,6.03938567 C5.93203681,5.56552901 5.79821472,5.09945392 5.50188957,4.72641638 C5.16230675,4.30054608 4.65569939,4.05631399 4.11211043,4.05631399 C3.71253374,4.05631399 3.31997546,4.19392491 3.00637423,4.44409556 C2.63419632,4.74143345 2.40009202,5.16675768 2.3469816,5.64170648 C2.29393865,6.11617747 2.42809816,6.58307167 2.72496319,6.95672355 C3.06427607,7.38307167 3.57095092,7.62764505 4.11514724,7.62764505 C4.51506135,7.62757679 4.90761963,7.48955631 5.22034356,7.23890785 Z M3.35607975,6.44320819 C3.1957362,6.24143345 3.12319018,5.9894198 3.15180368,5.73358362 C3.18041718,5.47740614 3.30715337,5.24764505 3.50825767,5.0868942 C3.68176074,4.94846416 3.89062577,4.8752901 4.11217791,4.8752901 C4.40965031,4.8752901 4.68653988,5.0083959 4.87111043,5.23986348 C5.03071166,5.44095563 5.10305521,5.69235495 5.07464417,5.94771331 C5.04609816,6.20464164 4.91922699,6.43522184 4.71751534,6.59686007 C4.54482209,6.73522184 4.33649693,6.8083959 4.11521472,6.8083959 C3.81740491,6.80846416 3.54071779,6.67522184 3.35607975,6.44320819 Z" id="Shape"></path>
                        <path d="M21.7803374,3.23112628 C21.7103558,3.15972696 21.5855092,3.07460751 21.3885215,3.07460751 C21.1575215,3.07460751 20.5438834,3.07460751 16.8171104,6.28225256 C16.7422025,6.34668942 16.6666196,6.41201365 16.5907669,6.4778157 C15.9248957,4.72088737 14.7549816,3.15453925 13.2474417,2.02156997 C11.5188896,0.722525597 9.46060736,0.0354948805 7.29529448,0.0349488055 L7.29360736,0.0349488055 C5.83229448,0.0349488055 4.05596319,0.551399317 2.6576135,1.38300341 C0.943503067,2.40225256 -0.000337423313,3.76539249 2.23450433e-13,5.22116041 C0.000539877301,6.97870307 0.980552147,7.71385666 1.76803067,8.30450512 C2.41014724,8.7862116 2.91729448,9.16662116 2.91756442,10.0003413 C2.91776687,10.8339932 2.41088957,11.2140614 1.76911043,11.6952901 C0.98190184,12.2855973 0.00209202454,13.0203413 0.00263190184,14.7780887 C0.00303680982,16.2336519 0.947484663,17.5971331 2.66193252,18.6172696 C4.06129448,19.4498976 5.83857055,19.9674403 7.30015337,19.9678498 L7.30298773,19.9678498 C9.95547239,19.9678498 12.4489632,18.9322867 14.324362,17.0518089 C16.1758712,15.1953584 17.2056196,12.7346758 17.232681,10.1124915 C17.8613681,9.38887372 18.4704172,8.66962457 19.0264233,7.99187713 C19.9776871,6.83242321 20.7091534,5.87569966 21.2005092,5.1483959 C21.8514663,4.18505119 22.1365215,3.59419795 21.7803374,3.23112628 Z M13.754319,16.4701024 C12.0315031,18.1976109 9.74066871,19.1487372 7.30305521,19.1487372 L7.3004908,19.1487372 C4.68836196,19.1479863 0.813190184,17.3123549 0.812447853,14.7778157 C0.812042945,13.432628 1.51118405,12.9083276 2.25142331,12.3532423 C2.94334356,11.8343345 3.72758282,11.2462116 3.72731288,10.0000683 C3.72690798,8.75412969 2.94246626,8.16566553 2.25034356,7.6465529 C1.50976687,7.09098976 0.810220859,6.56627986 0.809815951,5.22095563 C0.809478528,3.66457338 2.22449693,2.59071672 3.06805521,2.0890785 C4.32988344,1.33870307 5.98831902,0.853993174 7.29360736,0.853993174 L7.29502454,0.853993174 C9.28521472,0.854539249 11.1765399,1.48566553 12.7645215,2.67897611 C14.2290736,3.7796587 15.3470245,5.32477816 15.9358957,7.0509215 C14.1796074,8.60204778 12.2777546,10.3904437 10.8613865,11.8277133 C8.50893865,12.1356997 8.18845399,13.7215017 7.95414724,14.8864846 C7.75466258,15.87843 7.62515951,16.3580205 6.86818405,16.4194539 C6.68165644,16.4346075 6.52974847,16.5769966 6.50066258,16.763959 C6.4715092,16.9508532 6.57280368,17.1336519 6.74569939,17.2060751 C6.79435583,17.2264164 7.9521227,17.7049147 9.30478528,17.7049829 L9.30525767,17.7049829 C10.2478834,17.7049829 11.0564847,17.4738567 11.7085215,17.0180887 C12.5119939,16.4564505 13.0567975,15.5660068 13.3305828,14.3718771 C14.256,13.4248464 15.3134172,12.2828669 16.3590245,11.1065529 C16.1183742,13.1318089 15.2148221,15.0056655 13.754319,16.4701024 Z M12.5170552,14.2943345 C12.0879877,16.014198 11.0083681,16.8860068 9.30519018,16.8859386 L9.30478528,16.8859386 C8.85567485,16.8859386 8.42559509,16.823959 8.06401227,16.7466894 C8.49591411,16.3011604 8.63081595,15.6307167 8.7476319,15.0498976 C8.97012883,13.9435495 9.18054601,12.8965188 10.9019448,12.6477816 L12.5170552,14.2943345 Z M18.1085644,7.82607509 C16.5034417,9.7603413 14.5605583,11.9324915 12.9611718,13.5840273 L12.7135706,13.3316041 L11.6210613,12.2178157 C13.0711718,10.7577474 14.931454,9.01679181 16.667092,7.49317406 L16.667092,7.49317406 C16.869411,7.31556314 17.0704479,7.14020478 17.2685828,6.96928328 C19.2827975,5.23174061 20.3383926,4.47556314 20.8768528,4.14648464 C20.5552883,4.69440273 19.8145767,5.77023891 18.1085644,7.82607509 Z" id="Shape"></path>
                    </g>
                </g>
            </g>
        </g>
    </g>
</svg>