<?xml version="1.0" encoding="UTF-8"?>
<svg width="22px" height="19px" viewBox="0 0 22 19" version="1.1" xmlns="http://www.w3.org/2000/svg" xmlns:xlink="http://www.w3.org/1999/xlink">
    <!-- Generator: Sketch 41.2 (35397) - http://www.bohemiancoding.com/sketch -->
    <title>team</title>
    <desc>Created with Sketch.</desc>
    <defs></defs>
    <g id="Desktop" stroke="none" stroke-width="1" fill="none" fill-rule="evenodd">
        <g id="10.1.-Profile---Overview" transform="translate(-30.000000, -170.000000)" fill="#76767B">
            <g id="Menu" transform="translate(0.000000, 60.000000)">
                <g id="Active-(Hover)" transform="translate(0.000000, 100.000000)">
                    <path d="M51.9558068,27.5274489 L51.0837028,24.5414424 C51.0629384,24.4800861 51.0214096,24.4187298 50.9798809,24.3778256 C50.4400069,22.7621098 49.1110865,21.5145318 47.4291715,21.0850377 L47.179999,21.0441335 C46.8062401,20.941873 46.3909524,21.0645856 46.1210155,21.3713671 C45.2073827,22.393972 44.0445773,22.4757804 42.8194787,22.4757804 C41.5943802,22.4757804 40.4315748,22.393972 39.517942,21.3713671 C39.248005,21.0645856 38.8327174,20.941873 38.4589585,21.0441335 L38.2097859,21.1054898 C36.9431586,21.4327234 35.8634108,22.2303552 35.1781861,23.2938644 L32.561874,23.2938644 C32.5411096,23.2938644 32.5411096,23.2938644 32.5203453,23.2734123 C32.5203453,23.2529602 32.4995809,23.2325081 32.4995809,23.1916039 L33.0394548,21.2895587 C33.5170356,19.7965554 34.4306684,19.3466093 36.2164053,18.8966631 C36.2994628,18.876211 36.3617559,18.8353068 36.4032847,18.7944026 C36.5486354,18.9171152 36.7147504,19.0193757 36.8808655,19.1011841 C36.9431586,19.1420883 37.0054518,19.1420883 37.0677449,19.1420883 C37.2130956,19.1420883 37.3584463,19.0602799 37.4415038,18.9171152 C37.5453257,18.7125942 37.4622682,18.467169 37.2546244,18.3649085 C36.2994628,17.8740581 35.6142382,16.4833154 35.6142382,15.0516685 C35.6142382,13.7836383 36.6732217,12.7405813 37.9606133,12.7405813 C38.2097859,12.7405813 38.4381941,12.7814855 38.6666023,12.8428418 C38.4381941,13.3950484 38.3136078,13.9881593 38.3136078,14.6221744 C38.3136078,18.1194833 40.4523392,21.0645856 42.9855938,21.0645856 C45.4773196,21.0645856 47.6783441,18.058127 47.6783441,14.6221744 C47.6783441,12.065662 45.5811415,10 42.9855938,10 C41.3452076,10 39.8917009,10.8385361 39.0611256,12.1065662 C38.7081311,11.9838536 38.3343722,11.9224973 37.9606133,11.9224973 C36.8393367,11.9224973 35.8426464,12.5156082 35.2820081,13.3950484 C35.2404793,13.3541442 35.1989505,13.3336921 35.1574218,13.31324 C34.845956,13.1496233 34.5344903,13.088267 34.1814958,13.088267 C33.0186904,13.0678149 32.0842932,13.9881593 32.0842932,15.1334769 C32.0842932,15.787944 32.2711727,16.401507 32.561874,16.8923574 C31.6067124,17.1377826 30.7553728,17.5059203 30.3608495,18.7534984 L30.0286194,19.9397201 C29.9663263,20.1442411 30.007855,20.3692142 30.1324413,20.532831 C30.2570276,20.7168999 30.4854358,20.8191604 30.713844,20.8191604 L32.3127014,20.8191604 C32.2919371,20.9009688 32.2504083,20.9827772 32.2296439,21.0645856 L31.68977,22.9870829 C31.6067124,23.2529602 31.6690056,23.5392896 31.855885,23.7642626 C32.0220001,23.9892357 32.2711727,24.1119483 32.561874,24.1119483 L34.7628985,24.1119483 C34.7006054,24.255113 34.6590766,24.3982777 34.6175478,24.5414424 L33.7454438,27.547901 C33.6623863,27.8955867 33.7246794,28.2637244 33.9530876,28.5500538 C34.1814958,28.8363832 34.5137259,29 34.8667204,29 L47.3253496,29 L48.0313386,29 L50.8345302,29 C51.1875247,29 51.5405192,28.8363832 51.748163,28.5500538 C51.9765712,28.2637244 52.0596287,27.8955867 51.9558068,27.5274489 Z M39.5594708,12.9041981 C39.5802351,12.883746 39.6009995,12.8632939 39.6217639,12.8223897 C39.6425283,12.8019376 39.6425283,12.7610334 39.6632927,12.7405813 C40.3069885,11.5952637 41.5528514,10.818084 42.9855938,10.818084 C44.7090375,10.818084 46.1625442,11.9429494 46.6608894,13.4768568 C45.934136,13.6200215 45.1658539,13.3336921 44.7090375,12.7201292 C44.5636868,12.5360603 44.3145142,12.4951561 44.1276348,12.6383208 C44.0445773,12.6996771 44.0030485,12.7610334 43.9822841,12.8428418 C43.9615197,12.8632939 43.9615197,12.883746 43.9407554,12.9041981 C43.3593527,14.0699677 41.4075008,14.5608181 39.1857119,14.131324 C39.248005,13.7018299 39.3725913,13.2927879 39.5594708,12.9041981 Z M40.7222761,15.0925727 C42.3834267,15.0925727 43.7538759,14.5812702 44.4598649,13.6200215 C44.9789745,14.0699677 45.6226703,14.3153929 46.3078949,14.3153929 C46.47401,14.3153929 46.6608894,14.2949408 46.8270045,14.2540366 C46.8477688,14.3767492 46.8477688,14.4790097 46.8477688,14.6017223 C46.8477688,17.6081808 45.0412676,20.2465016 42.9855938,20.2465016 C41.0129775,20.2465016 39.2895338,17.8127018 39.1441831,14.949408 C39.684057,15.0516685 40.223931,15.0925727 40.7222761,15.0925727 Z M30.8799591,20.0010764 L31.1706604,18.9784715 C31.419833,18.1399354 31.9389426,17.8945102 32.9771617,17.649085 C33.0394548,17.6286329 33.1017479,17.6081808 33.1432767,17.5672766 C33.2470986,17.649085 33.3301562,17.7104413 33.4547424,17.7717976 C33.5170356,17.8127018 33.5793287,17.8127018 33.6416219,17.8127018 C33.7869726,17.8127018 33.9323232,17.7308934 34.0153808,17.5877287 C34.1192027,17.3832078 34.0361451,17.1377826 33.8492657,17.0355221 C33.3093918,16.7491927 32.9148685,15.9515608 32.9148685,15.1334769 C32.9148685,14.4381055 33.4755068,13.8858988 34.1814958,13.8858988 C34.409904,13.8858988 34.5967835,13.926803 34.7836629,14.0290635 C34.845956,14.0495156 34.8874848,14.0699677 34.9497779,14.0699677 C34.845956,14.3767492 34.7836629,14.7039828 34.7836629,15.0516685 C34.7836629,16.2174381 35.1781861,17.3627557 35.8011176,18.1603875 C34.5552547,18.467169 33.4547424,18.876211 32.7279891,20.0010764 L30.8799591,20.0010764 Z M51.1044672,28.0592034 C51.0629384,28.1001076 50.9798809,28.181916 50.8345302,28.181916 L48.0313386,28.181916 L47.3253496,28.181916 L34.8667204,28.181916 C34.7213697,28.181916 34.6383122,28.1001076 34.5967835,28.0592034 C34.5344903,27.977395 34.5137259,27.8546825 34.5344903,27.7728741 L35.4065944,24.7868676 C35.821882,23.3756728 36.963923,22.2712594 38.4174297,21.9031216 L38.6666023,21.8417653 C38.7288955,21.8213132 38.8327174,21.8622174 38.8950105,21.9235737 C40.0370515,23.212056 41.4490295,23.3143165 42.8194787,23.3143165 C44.1899279,23.3143165 45.6019059,23.212056 46.7439469,21.9235737 C46.8062401,21.8622174 46.8892976,21.8213132 46.9931195,21.8417653 L47.2422921,21.9031216 C48.6750345,22.2712594 49.8378398,23.3756728 50.2531275,24.7868676 L50.6268864,26.0548977 C50.6476507,26.116254 50.6684151,26.1571582 50.7099439,26.1980624 L51.1667603,27.752422 C51.1875247,27.8546825 51.1667603,27.977395 51.1044672,28.0592034 Z" id="team"></path>
                </g>
            </g>
        </g>
    </g>
</svg>