<?xml version="1.0" encoding="UTF-8"?>
<svg width="24px" height="15px" viewBox="0 0 24 15" version="1.1" xmlns="http://www.w3.org/2000/svg" xmlns:xlink="http://www.w3.org/1999/xlink">
    <!-- Generator: Sketch 41.2 (35397) - http://www.bohemiancoding.com/sketch -->
    <title>Combined Shape</title>
    <desc>Created with Sketch.</desc>
    <defs></defs>
    <g id="Desktop" stroke="none" stroke-width="1" fill="none" fill-rule="evenodd">
        <g id="5.1---Messaging---Inbox" transform="translate(-29.000000, -253.000000)" fill="#767B7B">
            <g id="Menu" transform="translate(0.000000, 60.000000)">
                <g id="Grid-View" transform="translate(0.000000, 180.000000)">
                    <path d="M52.9703278,19.9252919 C52.9574839,19.8762845 52.6461834,18.7095914 51.782267,17.3144974 C50.9857576,16.0282793 49.5470064,14.2962266 47.2159791,13.3491924 L46.7392548,13.1554941 L46.7392548,19.6369167 L45.5517096,19.6369167 L45.5517096,13.0395188 L44.839295,13.0395188 L44.839295,19.6368637 L43.6517498,19.6368637 L43.6517498,13.0395188 L42.9393352,13.0395188 L42.9393352,19.6368637 L41.7517901,19.6368637 L41.7517901,13.2225149 L41.0393755,13.2225149 L41.0393755,19.6368637 L39.8518303,19.6368637 L39.8518303,13.8038747 L39.1394157,13.8038747 L39.1394157,19.6368637 L37.9518705,19.6368637 L37.9518705,14.9331104 L37.2394559,14.9331104 L37.2394559,19.6368637 L36.0519108,19.6368637 L36.0519108,16.9272068 L35.3394962,16.9272068 L35.3394962,19.6368637 L34.3822506,19.6368637 C34.214858,19.2088307 33.8290253,18.3118635 33.2213307,17.4062074 C32.1022707,15.7383676 30.7657082,14.8568178 29.3562542,14.8568178 L29,14.8568178 L29,25.2223257 L29.3562073,25.2223257 C30.7656613,25.2223257 32.1022239,24.340776 33.2212838,22.6728832 C33.8290253,21.7671741 34.214858,20.8701009 34.3822506,20.4421209 L35.3393087,20.4421209 L35.3393087,23.1517248 L36.0517233,23.1517248 L36.0517233,20.4421209 L37.2392684,20.4421209 L37.2392684,25.1458742 L37.951683,25.1458742 L37.951683,20.4421209 L39.1392282,20.4421209 L39.1392282,26.2751099 L39.8516428,26.2751099 L39.8516428,20.4421739 L41.039188,20.4421739 L41.039188,26.8565226 L41.7516026,26.8565226 L41.7516026,20.4421739 L42.9391477,20.4421739 L42.9391477,27.0395188 L43.6515623,27.0395188 L43.6515623,20.4421739 L44.8391075,20.4421739 L44.8391075,27.0395188 L45.5515221,27.0395188 L45.5515221,20.4421739 L46.7390673,20.4421739 L46.7390673,22.2943874 L47.4514819,22.2943874 L47.4514819,14.3178428 C48.9589058,15.0408736 50.2124517,16.1938447 51.1828693,17.7512722 C51.8371114,18.8013544 52.155537,19.7251829 52.2531787,20.0395718 C52.0450982,20.7080852 50.8348184,24.1316602 47.451435,25.7608239 L47.451435,23.368046 L46.7390204,23.368046 L46.7390204,26.9235965 L47.2157447,26.7298982 C49.546772,25.782811 50.9855233,24.0507583 51.7820326,22.7645932 C52.6459021,21.3696052 52.9572495,20.202806 52.9700934,20.1537987 L53,20.0395188 L52.9703278,19.9252919 L52.9703278,19.9252919 Z M29.7124146,24.3940748 L29.7124146,20.4420679 L32.6964183,20.4420679 L32.6964183,19.6368637 L29.7124146,19.6368637 L29.7124146,15.6850688 C32.080333,15.9936297 33.4773181,19.3036666 33.7597902,20.0397837 C33.4777868,20.7771723 32.0850205,24.0864675 29.7124146,24.3940748 Z M50.862125,18.3111278 L50.3583594,17.8263459 L49.6426719,18.5151278 L48.9269844,17.8263459 L48.4232656,18.3111278 L49.1389531,18.9999549 L48.4232656,19.6888271 L48.9269844,20.173609 L49.6426719,19.484782 L50.3583594,20.173609 L50.862125,19.6888271 L50.1463906,18.9999549 L50.862125,18.3111278 Z" id="Combined-Shape"></path>
                </g>
            </g>
        </g>
    </g>
</svg>