<?xml version="1.0" encoding="UTF-8"?>
<svg width="20px" height="13px" viewBox="0 0 20 13" version="1.1" xmlns="http://www.w3.org/2000/svg" xmlns:xlink="http://www.w3.org/1999/xlink">
    <!-- Generator: Sketch 41.2 (35397) - http://www.bohemiancoding.com/sketch -->
    <title>trash</title>
    <desc>Created with Sketch.</desc>
    <defs></defs>
    <g id="Iconography" stroke="none" stroke-width="1" fill="none" fill-rule="evenodd">
        <g id="Icons" transform="translate(-320.000000, -324.000000)">
            <g id="trash" transform="translate(320.000000, 320.000000)">
                <rect id="Rectangle" fill-opacity="0" fill="#D8D8D8" x="0" y="0" width="20" height="20"></rect>
                <g id="Combined-Shape" transform="translate(0.000000, 4.000000)" fill="#767B7B">
                    <g id="Desktop">
                        <g id="5.1---Messaging---Inbox">
                            <g id="Menu">
                                <g id="Grid-View">
                                    <path d="M19.9752732,6.00191965 C19.9645699,5.95944657 19.7051528,4.94831255 18.9852225,3.73923108 C18.3214647,2.62450873 17.1225053,1.12339639 15.1799826,0.302633413 L14.7827123,0.134761553 L14.7827123,5.75199447 L13.7930913,5.75199447 L13.7930913,0.0342496267 L13.1994125,0.0342496267 L13.1994125,5.75194854 L12.2097915,5.75194854 L12.2097915,0.0342496267 L11.6161127,0.0342496267 L11.6161127,5.75194854 L10.6264917,5.75194854 L10.6264917,0.192846247 L10.0328129,0.192846247 L10.0328129,5.75194854 L9.04319192,5.75194854 L9.04319192,0.696691407 L8.44951308,0.696691407 L8.44951308,5.75194854 L7.45989208,5.75194854 L7.45989208,1.67536235 L6.86621325,1.67536235 L6.86621325,5.75194854 L5.87659233,5.75194854 L5.87659233,3.40357923 L5.2829135,3.40357923 L5.2829135,5.75194854 L4.48520883,5.75194854 C4.345715,5.38098661 4.02418775,4.60361503 3.51777558,3.81871308 C2.58522558,2.37325192 1.4714235,1.60924209 0.2968785,1.60924209 L0,1.60924209 L0,10.5926823 L0.296839417,10.5926823 C1.47138442,10.5926823 2.58518658,9.82867253 3.5177365,8.38316544 C4.02418775,7.59821755 4.345715,6.82075411 4.48520883,6.44983811 L5.28275725,6.44983811 L5.28275725,8.79816149 L5.87643608,8.79816149 L5.87643608,6.44983811 L6.866057,6.44983811 L6.866057,10.5264243 L7.45973583,10.5264243 L7.45973583,6.44983811 L8.44935683,6.44983811 L8.44935683,11.5050952 L9.04303567,11.5050952 L9.04303567,6.44988405 L10.0326567,6.44988405 L10.0326567,12.0089863 L10.6263355,12.0089863 L10.6263355,6.44988405 L11.6159564,6.44988405 L11.6159564,12.167583 L12.2096353,12.167583 L12.2096353,6.44988405 L13.1992562,6.44988405 L13.1992562,12.167583 L13.7929351,12.167583 L13.7929351,6.44988405 L14.7825561,6.44988405 L14.7825561,8.05513575 L15.3762349,8.05513575 L15.3762349,1.14213043 C16.6324215,1.76875712 17.6770431,2.76799874 18.4857244,4.11776924 C19.0309262,5.02784048 19.2962808,5.82849185 19.3776489,6.10096223 C19.2042485,6.68034051 18.195682,9.64743884 15.3761958,11.0593807 L15.3761958,8.98563987 L14.782517,8.98563987 L14.782517,12.067117 L15.1797873,11.8992451 C17.12231,11.0784362 18.3212694,9.57732386 18.9850272,8.46264744 C19.7049184,7.25365784 19.9643746,6.24243187 19.9750778,6.19995887 L20,6.10091629 L19.9752732,6.00191965 L19.9752732,6.00191965 Z M0.593678833,9.87486483 L0.593678833,6.44979218 L3.08034858,6.44979218 L3.08034858,5.75194854 L0.593678833,5.75194854 L0.593678833,2.32705963 C2.56694417,2.59447907 3.73109842,5.46317772 3.96649183,6.10114587 C3.731489,6.74021599 2.57085042,9.60827183 0.593678833,9.87486483 Z M18.2184375,4.60297743 L17.7986328,4.18283311 L17.2022266,4.77977743 L16.6058203,4.18283311 L16.1860547,4.60297743 L16.7824609,5.19996091 L16.1860547,5.79698349 L16.6058203,6.2171278 L17.2022266,5.6201444 L17.7986328,6.2171278 L18.2184375,5.79698349 L17.6219922,5.19996091 L18.2184375,4.60297743 Z" id="Combined-Shape"></path>
                                </g>
                            </g>
                        </g>
                    </g>
                </g>
            </g>
        </g>
    </g>
</svg>