<?xml version="1.0" encoding="UTF-8"?>
<svg width="40px" height="40px" viewBox="0 0 40 40" version="1.1" xmlns="http://www.w3.org/2000/svg" xmlns:xlink="http://www.w3.org/1999/xlink">
    <!-- Generator: Sketch 41.2 (35397) - http://www.bohemiancoding.com/sketch -->
    <title>twitter_white</title>
    <desc>Created with Sketch.</desc>
    <defs></defs>
    <g id="Desktop" stroke="none" stroke-width="1" fill="none" fill-rule="evenodd">
        <g id="3.2.-Onboarding---Fill-up-User-Profile" transform="translate(-447.000000, -550.000000)">
            <g id="Group-3" transform="translate(447.000000, 450.000000)">
                <g id="Group" transform="translate(0.000000, 100.000000)">
                    <g id="twitter_white">
                        <rect id="Base" fill="#2591FF" x="0" y="0" width="40" height="40"></rect>
                        <path d="M22.5119548,24.9990872 C21.8204892,24.9990872 21.2330487,24.7589213 20.7502219,24.276691 C20.2657767,23.7938765 20.02543,23.2108042 20.02543,22.5211943 L20.02543,20.7648944 L27.1098812,20.7648944 C27.748525,20.7648944 28.2990343,20.5369961 28.7560387,20.0842662 C29.2129695,19.6279583 29.4425753,19.0823457 29.4425753,18.4470635 C29.4425753,17.8104668 29.2129695,17.2653654 28.7549352,16.8104449 C28.2963123,16.3569118 27.7441109,16.1293055 27.1027451,16.1293055 L20.0253564,16.1293055 L20.0253564,12.5011136 C20.0253564,11.8142055 19.7789772,11.2262408 19.2882051,10.7366353 C18.80067,10.2462266 18.2113167,10 17.5258837,10 C16.8208815,10 16.2221852,10.2426486 15.7333258,10.7223963 C15.2441722,11.2038234 15,11.7967535 15,12.5035963 L15,22.5230929 C15,24.5840362 15.7333258,26.3444252 17.202773,27.8062316 C18.6722202,29.2696445 20.4435905,30 22.5147504,30 L27.4858872,30 C28.1757343,30 28.7681039,29.7540654 29.2611566,29.2630726 C29.7542093,28.7747815 30,28.1860136 30,27.4999087 C30,26.8135848 29.7542093,26.2258392 29.2611566,25.7351384 C28.7680303,25.2460441 28.1748515,24.9990872 27.4841951,24.9990872 L22.5119548,24.9990872 Z" fill="#FFFFFF"></path>
                    </g>
                </g>
            </g>
        </g>
    </g>
</svg>