<?xml version="1.0" encoding="UTF-8"?>
<svg width="40px" height="32px" viewBox="0 0 40 32" version="1.1" xmlns="http://www.w3.org/2000/svg" xmlns:xlink="http://www.w3.org/1999/xlink">
    <!-- Generator: Sketch 41.2 (35397) - http://www.bohemiancoding.com/sketch -->
    <title>twitter_app</title>
    <desc>Created with Sketch.</desc>
    <defs>
        <linearGradient x1="50%" y1="0%" x2="50%" y2="100%" id="linearGradient-1">
            <stop stop-color="#A1DAFF" offset="0%"></stop>
            <stop stop-color="#67B3FF" offset="100%"></stop>
        </linearGradient>
    </defs>
    <g id="Desktop" stroke="none" stroke-width="1" fill="none" fill-rule="evenodd">
        <g id="8.1.2.-Apps---Chatbot-Integrations---Coming-Soon" transform="translate(-830.000000, -320.000000)" fill="url(#linearGradient-1)">
            <g id="Top-Bar">
                <g id="Group-2" transform="translate(470.000000, 120.000000)">
                    <path d="M400,203.787579 C398.52875,204.429917 396.94625,204.864295 395.28625,205.05995 C396.98125,204.059527 398.2825,202.477062 398.895,200.590656 C397.31,201.516016 395.5525,202.187887 393.68375,202.550894 C392.18625,200.980734 390.05375,200 387.69375,200 C383.16125,200 379.4875,203.616535 379.4875,208.078446 C379.4875,208.71094 379.56,209.327437 379.7,209.919323 C372.87875,209.582157 366.8325,206.365545 362.785,201.47787 C362.07875,202.671486 361.67375,204.059527 361.67375,205.539858 C361.67375,208.34178 363.1225,210.815151 365.32375,212.263488 C363.97875,212.22165 362.71375,211.858643 361.6075,211.253221 C361.60625,211.287675 361.60625,211.3209 361.60625,211.355355 C361.60625,215.269679 364.435,218.534282 368.19,219.276293 C367.50125,219.460873 366.77625,219.559316 366.0275,219.559316 C365.49875,219.559316 364.985,219.508864 364.48375,219.415343 C365.5275,222.624572 368.55875,224.960123 372.15,225.025341 C369.34125,227.192309 365.8025,228.483138 361.9575,228.483138 C361.295,228.483138 360.6425,228.444991 360,228.371159 C363.63125,230.662411 367.945,232 372.58,232 C387.675,232 395.92875,219.689752 395.92875,209.014882 C395.92875,208.66418 395.92125,208.315939 395.905,207.968929 C397.50875,206.830686 398.9,205.408191 400,203.787579" id="twitter_app"></path>
                </g>
            </g>
        </g>
    </g>
</svg>