<?xml version="1.0" encoding="UTF-8"?>
<svg width="24px" height="20px" viewBox="0 0 24 20" version="1.1" xmlns="http://www.w3.org/2000/svg" xmlns:xlink="http://www.w3.org/1999/xlink">
    <!-- Generator: Sketch 41.2 (35397) - http://www.bohemiancoding.com/sketch -->
    <title>twitter</title>
    <desc>Created with Sketch.</desc>
    <defs></defs>
    <g id="Desktop" stroke="none" stroke-width="1" fill="none" fill-rule="evenodd">
        <g id="5.1---Messaging---Inbox" transform="translate(-30.000000, -470.000000)" fill="#767B7B">
            <g id="Menu" transform="translate(0.000000, 60.000000)">
                <g id="Active-(Hover)" transform="translate(0.000000, 400.000000)">
                    <path d="M38.0978246,29.4080372 C35.7760702,29.4080372 33.4759298,28.7611896 31.446807,27.5377732 L30,26.6657509 L31.6858947,26.6943569 C31.7404912,26.6971115 31.8284211,26.701632 31.9668772,26.701632 C32.6086316,26.701632 34.6530526,26.5976617 36.7493333,25.4070186 C35.1735439,24.9354089 33.8714386,23.7093086 33.3352281,22.1041264 L33.069614,21.3093048 L33.7930526,21.4985985 C32.6335439,20.6020669 31.8749474,19.2238959 31.7919298,17.6877918 L31.7522105,16.9524424 L32.4228772,17.2470483 C32.5451228,17.3010818 32.6695439,17.3487584 32.7958596,17.3900074 C31.8433684,16.0481413 31.2669474,13.9745985 32.4689123,11.7720818 L32.7999298,11.1651413 L33.2207018,11.7130335 C35.2367018,14.3363755 38.2259649,15.9360483 41.4858246,16.1557138 C41.4659649,15.9518699 41.452,15.7644126 41.452,15.7058587 C41.452,13.2708922 43.2929825,10.7524387 46.3734035,10.7524387 C47.6664561,10.7524387 48.9112281,11.2694647 49.8281404,12.1796283 C51.0571228,11.889119 52.2315789,11.1678253 52.2442105,11.1600558 L53.3094737,10.5 L52.9071579,11.6924796 C52.7141053,12.263539 52.4200702,12.7896766 52.0430175,13.2490669 C52.2487018,13.1814015 52.4507368,13.103777 52.6586667,13.0125911 L53.9381754,12.3834015 L53.4005614,13.5455093 C52.9567719,14.5056097 52.2167018,15.2977472 51.2975439,15.8043197 C51.4995789,18.9823346 50.2011228,22.5280595 47.8654035,25.1319071 C46.1317193,27.0652454 43.0441404,29.3757584 38.1800702,29.407119 L38.0978246,29.4080372 L38.0978246,29.4080372 Z M33.3572632,27.5055651 C34.8609123,28.1587695 36.4736842,28.49971 38.0973333,28.49971 L38.1744561,28.4992862 C42.7097544,28.4702565 45.584,26.3212788 47.1959298,24.5236952 C49.4437193,22.017461 50.662386,18.5906803 50.3755088,15.5802045 L50.3452632,15.2606654 L50.6338947,15.1254052 C51.0916491,14.910684 51.501614,14.6124758 51.8457544,14.2497807 C51.4606316,14.3478178 51.0497544,14.4209219 50.5761404,14.4785576 L50.2302456,14.5207955 L49.9605614,13.8326283 L50.2744561,13.5893011 C50.7141754,13.3300818 51.0975439,12.9923903 51.4073684,12.5969926 C50.9171228,12.8071933 50.3384561,13.012803 49.7598596,13.1212937 L49.5127018,13.1676283 L49.3435789,12.9805948 C48.5831579,12.1407807 47.501193,11.6596357 46.3736842,11.6596357 C43.8579649,11.6596357 42.3543158,13.7164387 42.3543158,15.7051524 C42.3543158,15.8254387 42.4138246,16.3729071 42.4350175,16.5136059 L42.6397895,17.0996394 L41.9885614,17.0855836 C38.4977544,17.0097955 35.2501053,15.4700186 32.9702456,12.834881 C32.0682105,15.2189926 33.5827368,17.1237249 34.3061053,17.69429 L35.3637193,18.5290892 L34.0201404,18.5054981 C33.5993684,18.498223 33.1875789,18.4405874 32.7884211,18.3334387 C33.1433684,19.9267546 34.3944561,21.2068885 36.0198596,21.5582119 L37.7990877,21.9431561 L36.0473684,22.4393457 C35.7420351,22.5255874 35.3956491,22.5691673 35.0177544,22.5691673 C34.8409825,22.5691673 34.6718596,22.559632 34.5157895,22.5450818 C35.2202807,23.7934312 36.5322105,24.6323271 37.9835789,24.7035948 L39.2517895,24.7662454 L38.2290526,25.5227844 C36.476,26.8205762 34.6575439,27.320368 33.3572632,27.5055651 L33.3572632,27.5055651 Z" id="twitter"></path>
                </g>
            </g>
        </g>
    </g>
</svg>