<?xml version="1.0" encoding="UTF-8"?>
<svg width="24px" height="21px" viewBox="0 0 24 21" version="1.1" xmlns="http://www.w3.org/2000/svg" xmlns:xlink="http://www.w3.org/1999/xlink">
    <!-- Generator: Sketch 41.2 (35397) - http://www.bohemiancoding.com/sketch -->
    <title>website</title>
    <desc>Created with Sketch.</desc>
    <defs></defs>
    <g id="Desktop" stroke="none" stroke-width="1" fill="none" fill-rule="evenodd">
        <g id="5.1---Messaging---Inbox" transform="translate(-29.000000, -390.000000)" fill="#767B7B">
            <g id="Menu" transform="translate(0.000000, 60.000000)">
                <g id="Active-(Hover)" transform="translate(0.000000, 320.000000)">
                    <path d="M51.1818182,27.4582414 L30.8181818,27.4582414 C29.816,27.4582414 29,26.6464828 29,25.6478966 L29,11.89 C29,10.8914138 29.816,10.0796552 30.8181818,10.0796552 L51.1818182,10.0796552 C52.184,10.0796552 53,10.8914138 53,11.89 L53,25.6478966 C53,26.6464828 52.184,27.4582414 51.1818182,27.4582414 L51.1818182,27.4582414 Z M30.8181818,10.8037931 C30.2167273,10.8037931 29.7272727,11.2911379 29.7272727,11.89 L29.7272727,25.6478966 C29.7272727,26.2467586 30.2167273,26.7341034 30.8181818,26.7341034 L51.1818182,26.7341034 C51.7832727,26.7341034 52.2727273,26.2467586 52.2727273,25.6478966 L52.2727273,11.89 C52.2727273,11.2911379 51.7832727,10.8037931 51.1818182,10.8037931 L30.8181818,10.8037931 L30.8181818,10.8037931 Z M45.6363636,30.9203448 L36.3636364,30.9203448 C36.1629091,30.9203448 36,30.7581379 36,30.5582759 C36,30.3584138 36.1629091,30.1962069 36.3636364,30.1962069 L45.6363636,30.1962069 C45.8370909,30.1962069 46,30.3584138 46,30.5582759 C46,30.7581379 45.8370909,30.9203448 45.6363636,30.9203448 L45.6363636,30.9203448 Z M41.5287273,22.4283793 C41.3927273,22.4283793 41.2632727,22.353069 41.2007273,22.2234483 L39.9701818,19.6737586 L39.0567273,20.7751724 C38.9585455,20.8924828 38.7978182,20.9366552 38.6530909,20.8852414 C38.5083636,20.8338276 38.4123636,20.6969655 38.4123636,20.5441724 L38.4123636,14.7467241 C38.4123636,14.6055172 38.4952727,14.4766207 38.6247273,14.4179655 C38.7534545,14.3585862 38.9054545,14.3795862 39.0130909,14.4722759 L43.4610909,18.2776207 C43.5767273,18.3761034 43.6181818,18.5354138 43.5650909,18.678069 C43.512,18.8207241 43.376,18.9141379 43.224,18.9141379 L41.6465455,18.9141379 L42.8683636,21.4457241 C42.9105455,21.5333448 42.9156364,21.6347241 42.8829091,21.7259655 C42.8501818,21.8172069 42.7810909,21.8917931 42.6930909,21.9316207 L41.6807273,22.395069 C41.6305455,22.4175172 41.5789091,22.4283793 41.5287273,22.4283793 L41.5287273,22.4283793 Z M40.0509091,18.6440345 C40.0654545,18.6440345 40.08,18.6447586 40.0952727,18.646931 C40.2181818,18.6621379 40.3250909,18.7381724 40.3789091,18.8489655 L41.7010909,21.5883793 L42.0523636,21.4268966 L40.7403636,18.7084828 C40.6865455,18.5962414 40.6938182,18.4637241 40.76,18.3587241 C40.8269091,18.253 40.9425455,18.19 41.0676364,18.19 L42.2421818,18.19 L39.1389091,15.5353103 L39.1389091,19.5368966 L39.7701818,18.7751034 C39.84,18.6911034 39.9432727,18.6440345 40.0509091,18.6440345 L40.0509091,18.6440345 Z M41,30.9203448 C40.7992727,30.9203448 40.6363636,30.7581379 40.6363636,30.5582759 L40.6363636,27.0961724 C40.6363636,26.8963103 40.7992727,26.7341034 41,26.7341034 C41.2007273,26.7341034 41.3636364,26.8963103 41.3636364,27.0961724 L41.3636364,30.5582759 C41.3636364,30.7588621 41.2007273,30.9203448 41,30.9203448 L41,30.9203448 Z" id="website"></path>
                </g>
            </g>
        </g>
    </g>
</svg>