<?xml version="1.0" encoding="UTF-8"?>
<svg width="22px" height="22px" viewBox="0 0 22 22" version="1.1" xmlns="http://www.w3.org/2000/svg" xmlns:xlink="http://www.w3.org/1999/xlink">
    <!-- Generator: Sketch 41.2 (35397) - http://www.bohemiancoding.com/sketch -->
    <title>whatsapp</title>
    <desc>Created with Sketch.</desc>
    <defs></defs>
    <g id="Desktop" stroke="none" stroke-width="1" fill="none" fill-rule="evenodd" fill-opacity="0">
        <g id="5.1---Messaging---Inbox" transform="translate(-30.000000, -509.000000)" stroke="#767B7B" fill="#767B7B">
            <g id="Menu" transform="translate(0.000000, 60.000000)">
                <g id="Active-(Hover)" transform="translate(0.000000, 440.000000)">
                    <path d="M41.0025079,10 C35.4899872,10 31,14.4841261 31,20.0030387 C31,22.1947209 31.7086094,24.2215992 32.9038113,25.8699444 L31.6581464,29.5746865 L35.501083,28.3506334 C37.0778477,29.3966043 38.9694993,30 41.0025079,30 C46.5110261,30 51,25.5138311 51,19.9949185 C51,14.4851475 46.5110261,10 41.0025079,10 L41.0025079,10 Z M47.2479286,22.4046393 C47.1767386,22.2856831 46.9815402,22.2134725 46.6917792,22.0569056 C46.3898214,21.9115147 44.952141,21.2150267 44.6755973,21.1194433 C44.4122709,21.0218186 44.2170216,20.9740524 44.0218232,21.2638135 C43.8174391,21.5515333 43.2612897,22.2144932 43.0915055,22.4045883 C42.9105451,22.5977453 42.7417305,22.6221897 42.4509487,22.4778195 C42.1642496,22.33447 41.2125493,22.0253677 40.093106,21.0289631 C39.2227511,20.2613361 38.6300116,19.3086152 38.4602273,19.0127813 C38.2853398,18.7189376 38.4399165,18.5623707 38.586328,18.4190211 C38.7236047,18.2868476 38.8811923,18.07537 39.0265832,17.9066064 C39.1780979,17.7388634 39.2258641,17.6188866 39.3224681,17.4256785 C39.4200928,17.2263976 39.3702343,17.0586546 39.2980747,16.9081605 C39.2258641,16.7627697 38.6341452,15.3322338 38.3921503,14.7476084 C38.1451032,14.1650244 37.9051496,14.2616284 37.7353143,14.2616284 C37.5583855,14.2616284 37.3672698,14.237235 37.1679889,14.237235 C36.9748318,14.237235 36.6555741,14.308425 36.3830619,14.6042589 C36.1176943,14.8929993 35.3561401,15.5976015 35.3561401,17.0332405 C35.3561401,18.464797 36.4074553,19.8557318 36.5579494,20.0468476 C36.7043609,20.2400046 38.586328,23.2719323 41.574572,24.4391928 C44.5587335,25.6064022 44.5587335,25.2210578 45.1016655,25.1722709 C45.6313802,25.1234841 46.840283,24.4646068 47.0822779,23.7895013 C47.3200881,23.1031176 47.3200881,22.5256367 47.2479286,22.4046393 L47.2479286,22.4046393 Z" id="whatsapp"></path>
                </g>
            </g>
        </g>
    </g>
</svg>