<?xml version="1.0" encoding="UTF-8"?>
<svg width="32px" height="32px" viewBox="0 0 32 32" version="1.1" xmlns="http://www.w3.org/2000/svg" xmlns:xlink="http://www.w3.org/1999/xlink">
    <!-- Generator: Sketch 41.2 (35397) - http://www.bohemiancoding.com/sketch -->
    <title>whatsapp_app</title>
    <desc>Created with Sketch.</desc>
    <defs>
        <linearGradient x1="50%" y1="0%" x2="50%" y2="100%" id="linearGradient-1">
            <stop stop-color="#A2E600" offset="0%"></stop>
            <stop stop-color="#69C900" offset="100%"></stop>
        </linearGradient>
    </defs>
    <g id="Desktop" stroke="none" stroke-width="1" fill="none" fill-rule="evenodd">
        <g id="8.1.2.-Apps---Chatbot-Integrations---Coming-Soon" transform="translate(-574.000000, -580.000000)" fill="url(#linearGradient-1)">
            <g id="Top-Bar">
                <g id="Group-2" transform="translate(470.000000, 120.000000)">
                    <path d="M104,492 L106.2601,483.783 C104.865869,481.378 104.132593,478.65 104.133597,475.856 C104.13661,467.113 111.284553,460 120.066798,460 C124.328844,460.001 128.329723,461.653 131.337163,464.65 C134.345606,467.647 136.001004,471.631 136,475.868 C135.995982,484.611 128.848039,491.725 120.066798,491.725 L120.059767,491.725 C117.393854,491.724 114.773142,491.058 112.445742,489.795 L104,492 Z M116.0304,469.227 C115.7084,468.454 115.3824,468.559 115.1384,468.547 C114.9074,468.535 114.6434,468.533 114.3794,468.533 C114.1144,468.533 113.6854,468.632 113.3224,469.029 C112.9594,469.425 111.9354,470.384 111.9354,472.334 C111.9354,474.284 113.3554,476.168 113.5534,476.433 C113.7514,476.697 116.3484,480.699 120.3234,482.415 C121.2694,482.823 122.0074,483.067 122.5834,483.25 C123.5324,483.551 124.3964,483.509 125.0794,483.407 C125.8414,483.293 127.4244,482.448 127.7544,481.523 C128.0854,480.597 128.0854,479.804 127.9864,479.639 C127.8874,479.474 127.6224,479.374 127.2264,479.176 C126.8304,478.978 124.8814,478.019 124.5184,477.887 C124.1544,477.755 123.8904,477.689 123.6264,478.085 C123.3624,478.482 122.6024,479.374 122.3714,479.639 C122.1404,479.903 121.9094,479.936 121.5124,479.738 C121.1164,479.54 119.8394,479.121 118.3254,477.771 C117.1474,476.721 116.3524,475.423 116.1204,475.027 C115.8894,474.63 116.0964,474.416 116.2944,474.218 C116.4724,474.041 116.6914,473.755 116.8894,473.524 C117.0874,473.293 117.1534,473.127 117.2854,472.863 C117.4174,472.598 117.3514,472.367 117.2524,472.169 C117.1534,471.97 116.3604,470.02 116.0304,469.227" id="whatsapp_app"></path>
                </g>
            </g>
        </g>
    </g>
</svg>